<svg width="180" height="180" viewBox="0 0 180 180" fill="none" xmlns="http://www.w3.org/2000/svg">
<rect width="180" height="180" rx="12" fill="white"/>
<path d="M28.7009 100.294H33.185C38.4977 100.294 42.8355 97.2238 42.8355 90.3027C42.8355 83.3816 38.4977 80.2623 33.185 80.2623H28.7009V100.294ZM33.4774 107.557H21V73H33.5262C43.9078 73 50.8776 79.6286 50.8776 90.3027C50.8776 100.977 43.9078 107.557 33.4774 107.557Z" fill="black"/>
<path d="M78.2981 107.557H56.3651V73H78.2493V80.2623H64.066V86.8422H76.9333V93.617H64.066V100.246H78.2981V107.557Z" fill="black"/>
<path d="M98.5686 97.3213L106.806 73H114.994L102.37 107.557H94.4257L81.7533 73H90.234L98.5686 97.3213Z" fill="black"/>
<path d="M112.274 102.975C112.274 100.246 114.516 98.0036 117.245 98.0036C119.975 98.0036 122.266 100.246 122.266 102.975C122.266 105.656 119.975 107.995 117.245 107.995C114.516 107.995 112.274 105.656 112.274 102.975Z" fill="black"/>
<path d="M158.173 73L147.061 90.3514L158.271 107.557H148.913L142.089 96.3465L135.314 107.557H126.249L137.41 90.254L126.249 73H135.509L142.333 84.2102L149.156 73H158.173Z" fill="#7000FF"/>
</svg>
