<svg width="180" height="180" fill="none" xmlns="http://www.w3.org/2000/svg"><rect width="180" height="180" rx="12" fill="#fff"/><path d="M28.7 100.294h4.485c5.313 0 9.65-3.07 9.65-9.991 0-6.921-4.337-10.04-9.65-10.04h-4.484v20.031Zm4.777 7.263H21V73h12.526c10.382 0 17.352 6.629 17.352 17.303 0 10.674-6.97 17.254-17.4 17.254ZM78.298 107.557H56.365V73H78.25v7.262H64.066v6.58h12.867v6.775H64.066v6.629h14.232v7.311ZM98.569 97.321 106.806 73h8.188l-12.624 34.557h-7.944L81.753 73h8.481l8.335 24.321ZM112.274 102.975c0-2.729 2.242-4.971 4.971-4.971 2.73 0 5.021 2.242 5.021 4.971 0 2.681-2.291 5.02-5.021 5.02-2.729 0-4.971-2.339-4.971-5.02Z" fill="#000"/><path d="m158.173 73-11.112 17.351 11.21 17.206h-9.358l-6.824-11.21-6.775 11.21h-9.065l11.161-17.303L126.249 73h9.26l6.824 11.21L149.156 73h9.017Z" fill="#7000FF"/></svg>