<svg width="32" height="32" fill="none" xmlns="http://www.w3.org/2000/svg"><rect width="32" height="32" rx="4" fill="#fff"/><path d="M4.5 18.315h.873c1.034 0 1.879-.598 1.879-1.946 0-1.348-.845-1.955-1.88-1.955H4.5v3.9Zm.93 1.414H3V13h2.44c2.02 0 3.378 1.29 3.378 3.37 0 2.078-1.357 3.359-3.388 3.359ZM14.157 19.729h-4.27V13h4.26v1.414h-2.761v1.281h2.505v1.32h-2.505v1.29h2.771v1.424ZM18.104 17.736 19.708 13h1.594l-2.458 6.729h-1.547L14.83 13h1.651l1.623 4.736ZM20.773 18.837a.972.972 0 0 1 1.945 0 .995.995 0 0 1-.977.977.987.987 0 0 1-.968-.977Z" fill="#000"/><path d="m29.71 13-2.164 3.379 2.183 3.35h-1.822l-1.329-2.183-1.319 2.183h-1.765l2.173-3.37L23.494 13h1.803l1.329 2.183L27.954 13h1.756Z" fill="#7000FF"/></svg>