<svg width="265" height="68" fill="none" xmlns="http://www.w3.org/2000/svg"><path d="M15.122 52.893h8.648c10.245 0 18.611-5.922 18.611-19.269 0-13.347-8.366-19.363-18.611-19.363h-8.648v38.632ZM24.334 66.9H.27V.255h24.157c20.02 0 33.462 12.784 33.462 33.369S44.45 66.899 24.334 66.899ZM110.771 66.899H68.473V.255h42.204v14.006H83.324v12.69h24.815v13.065H83.324v12.783h27.447v14.1ZM149.863 47.16 165.748.254h15.792L157.195 66.9h-15.322L117.435.255h16.355l16.073 46.904ZM176.294 58.063c0-5.264 4.324-9.588 9.588-9.588 5.264 0 9.681 4.324 9.681 9.588 0 5.17-4.417 9.681-9.681 9.681-5.264 0-9.588-4.511-9.588-9.681Z" fill="#000"/><path d="m264.812.255-21.431 33.463L265 66.898h-18.047l-13.16-21.618-13.065 21.619h-17.483L224.77 33.53 203.245.255h17.859l13.159 21.62 13.16-21.62h17.389Z" fill="#7000FF"/></svg>