<svg width="427" height="110" fill="none" xmlns="http://www.w3.org/2000/svg"><path d="M24.21 85.455h13.94c16.515 0 30-9.546 30-31.061s-13.485-31.212-30-31.212H24.21v62.273ZM39.06 108.03H.271V.606h38.94c32.273 0 53.94 20.606 53.94 53.788 0 33.182-21.667 53.637-54.092 53.637ZM178.391 108.031h-68.182V.606h68.031v22.576h-44.091v20.454h40v21.061h-40v20.606h44.242v22.728ZM241.405 76.212 267.012.606h25.454L253.224 108.03h-24.697L189.132.606h26.364l25.909 75.606ZM284.011 93.788c0-8.485 6.97-15.454 15.455-15.454s15.606 6.97 15.606 15.454c0 8.334-7.121 15.606-15.606 15.606s-15.455-7.272-15.455-15.606Z" fill="#000"/><path d="m426.697.606-34.546 53.94L427 108.03h-29.091l-21.212-34.849-21.061 34.849h-28.182l34.697-53.789L327.454.606h28.788l21.212 34.849L398.666.605h28.031Z" fill="#7000FF"/></svg>