<svg width="848" height="216" viewBox="0 0 848 216" fill="none" xmlns="http://www.w3.org/2000/svg">
<path d="M47.532 168.468H75.2089C108 168.468 134.774 149.515 134.774 106.797C134.774 64.078 108 44.8245 75.2089 44.8245H47.532V168.468ZM77.0139 213.292H0V0H77.3148C141.393 0 184.412 40.9137 184.412 106.797C184.412 172.68 141.393 213.292 77.0139 213.292Z" fill="black"/>
<path d="M353.658 213.292H218.282V0H353.357V44.8245H265.814V85.4373H345.235V127.253H265.814V168.167H353.658V213.292Z" fill="black"/>
<path d="M478.773 150.117L529.614 0H580.155L502.238 213.292H453.202L374.985 0H427.33L478.773 150.117Z" fill="black"/>
<path d="M563.366 185.014C563.366 168.167 577.205 154.329 594.052 154.329C610.898 154.329 625.038 168.167 625.038 185.014C625.038 201.56 610.898 216 594.052 216C577.205 216 563.366 201.56 563.366 185.014Z" fill="black"/>
<path d="M846.669 0L778.079 107.097L847.271 213.292H789.51L747.393 144.1L705.577 213.292H649.622L718.513 106.496L649.622 0H706.781L748.898 69.1922L791.015 0H846.669Z" fill="#7000FF"/>
</svg>
