<svg width="265" height="68" viewBox="0 0 265 68" fill="none" xmlns="http://www.w3.org/2000/svg">
<path d="M15.1222 52.8932H23.7698C34.0154 52.8932 42.381 46.9714 42.381 33.624C42.381 20.2766 34.0154 14.2609 23.7698 14.2609H15.1222V52.8932ZM24.3338 66.8986H0.270874V0.255493H24.4278C44.4489 0.255493 57.8903 13.0389 57.8903 33.624C57.8903 54.2091 44.4489 66.8986 24.3338 66.8986Z" fill="black"/>
<path d="M110.771 66.8986H68.473V0.255493H110.677V14.2609H83.3243V26.9503H108.139V40.0157H83.3243V52.7992H110.771V66.8986Z" fill="black"/>
<path d="M149.863 47.1594L165.748 0.255493H181.54L157.195 66.8986H141.873L117.435 0.255493H133.79L149.863 47.1594Z" fill="black"/>
<path d="M176.294 58.063C176.294 52.7992 180.618 48.4754 185.882 48.4754C191.146 48.4754 195.563 52.7992 195.563 58.063C195.563 63.2327 191.146 67.7445 185.882 67.7445C180.618 67.7445 176.294 63.2327 176.294 58.063Z" fill="black"/>
<path d="M264.812 0.255493L243.381 33.718L265 66.8986H246.953L233.793 45.2795L220.728 66.8986H203.245L224.77 33.53L203.245 0.255493H221.104L234.263 21.8745L247.423 0.255493H264.812Z" fill="#7000FF"/>
</svg>
