<svg width="848" height="216" fill="none" xmlns="http://www.w3.org/2000/svg"><path d="M47.532 168.468h27.677c32.791 0 59.565-18.953 59.565-61.671 0-42.719-26.774-61.972-59.565-61.972H47.532v123.643Zm29.482 44.824H0V0h77.315c64.078 0 107.097 40.914 107.097 106.797S141.393 213.292 77.014 213.292ZM353.658 213.292H218.282V0h135.075v44.825h-87.543v40.612h79.421v41.816h-79.421v40.914h87.844v45.125ZM478.773 150.117 529.614 0h50.541l-77.917 213.292h-49.036L374.985 0h52.345l51.443 150.117ZM563.366 185.014c0-16.847 13.839-30.685 30.686-30.685 16.846 0 30.986 13.838 30.986 30.685 0 16.546-14.14 30.986-30.986 30.986-16.847 0-30.686-14.44-30.686-30.986Z" fill="#000"/><path d="m846.669 0-68.59 107.097 69.192 106.195H789.51L747.393 144.1l-41.816 69.192h-55.955l68.891-106.796L649.622 0h57.159l42.117 69.192L791.015 0h55.654Z" fill="#7000FF"/></svg>