<svg width="276" height="31" fill="none" xmlns="http://www.w3.org/2000/svg"><path d="M11.562 1.294c3.072 0 5.756.608 8.052 1.826 2.297 1.217 4.068 2.933 5.313 5.147 1.273 2.186 1.91 4.718 1.91 7.595 0 2.85-.637 5.382-1.91 7.596-1.245 2.214-3.03 3.93-5.354 5.147-2.297 1.217-4.967 1.826-8.01 1.826H.645V1.294h10.916Zm-.456 22.994c2.684 0 4.773-.733 6.267-2.2 1.494-1.466 2.241-3.542 2.241-6.226s-.747-4.773-2.241-6.267C15.879 8.1 13.79 7.354 11.106 7.354H7.744v16.934h3.362ZM37.9 6.98v5.894h9.505v5.479H37.9v6.391h10.75v5.687H30.803V1.294H48.65V6.98H37.9ZM80.61 1.294 70.277 30.43h-8.883L51.058 1.294h7.554l7.223 21.998 7.263-21.998h7.513ZM116.574 1.294V30.43h-7.097V12.957L102.96 30.43h-5.727l-6.559-17.516v17.516h-7.097V1.294h8.384l8.177 20.172 8.094-20.172h8.342ZM135.458 30.721c-2.739 0-5.257-.636-7.554-1.909-2.269-1.273-4.081-3.044-5.437-5.313-1.328-2.296-1.992-4.87-1.992-7.72 0-2.85.664-5.41 1.992-7.678 1.356-2.27 3.168-4.04 5.437-5.313 2.297-1.273 4.815-1.91 7.554-1.91 2.74 0 5.244.637 7.513 1.91a13.84 13.84 0 0 1 5.396 5.313c1.328 2.269 1.992 4.828 1.992 7.678 0 2.85-.664 5.424-1.992 7.72-1.329 2.27-3.127 4.04-5.396 5.313-2.269 1.273-4.773 1.91-7.513 1.91Zm0-6.474c2.325 0 4.178-.775 5.562-2.325 1.411-1.55 2.117-3.597 2.117-6.143 0-2.573-.706-4.62-2.117-6.143-1.384-1.55-3.237-2.324-5.562-2.324-2.352 0-4.233.761-5.645 2.283-1.383 1.522-2.075 3.583-2.075 6.184 0 2.574.692 4.635 2.075 6.185 1.412 1.521 3.293 2.283 5.645 2.283ZM169.167 30.43l-6.06-10.998h-1.702V30.43h-7.098V1.294h11.913c2.296 0 4.247.4 5.852 1.203 1.633.803 2.85 1.91 3.653 3.32.802 1.384 1.203 2.934 1.203 4.65 0 1.936-.553 3.666-1.66 5.188-1.079 1.522-2.684 2.6-4.815 3.237l6.724 11.539h-8.01Zm-7.762-16.02h4.4c1.3 0 2.269-.319 2.905-.955.664-.636.996-1.536.996-2.698 0-1.107-.332-1.978-.996-2.615-.636-.636-1.605-.954-2.905-.954h-4.4v7.222ZM203.589 10.674c0 1.688-.387 3.238-1.162 4.649-.775 1.383-1.965 2.504-3.569 3.362-1.605.858-3.598 1.286-5.977 1.286h-4.4v10.46h-7.097V1.294h11.497c2.324 0 4.289.4 5.894 1.203 1.604.803 2.808 1.91 3.611 3.32.802 1.412 1.203 3.03 1.203 4.857Zm-11.248 3.652c1.356 0 2.366-.318 3.03-.954.664-.636.996-1.536.996-2.698s-.332-2.061-.996-2.698c-.664-.636-1.674-.955-3.03-.955h-3.86v7.305h3.86ZM232.52 1.294V30.43h-7.098V18.436h-11.04V30.43h-7.098V1.294h7.098v11.414h11.04V1.294h7.098ZM244.741 1.294V30.43h-7.097V1.294h7.097Z" fill="#000"/><path d="m267.74 30.43-5.935-8.923-5.23 8.924h-8.052l9.339-14.818-9.546-14.32h8.259l5.853 8.8 5.146-8.8h8.052l-9.255 14.694L276 30.43h-8.26Z" fill="#7000FF"/></svg>