<svg width="170" height="19" fill="none" xmlns="http://www.w3.org/2000/svg"><path d="M7.36.878c1.889 0 3.54.374 4.952 1.123 1.413.75 2.502 1.804 3.268 3.166.783 1.344 1.174 2.901 1.174 4.671 0 1.753-.391 3.31-1.174 4.672-.766 1.361-1.864 2.417-3.293 3.165-1.413.75-3.055 1.124-4.927 1.124H.646V.878H7.36Zm-.28 14.143c1.65 0 2.935-.452 3.854-1.354.919-.902 1.378-2.178 1.378-3.829 0-1.65-.46-2.935-1.378-3.854-.92-.92-2.204-1.379-3.855-1.379H5.011v10.416H7.08ZM23.559 4.375V8h5.846v3.37h-5.846v3.931h6.612V18.8H19.194V.878H30.17v3.497h-6.612ZM49.828.878l-6.357 17.92h-5.463L31.652.879h4.646l4.442 13.53L45.207.878h4.62ZM71.947.878v17.92H67.58V8.052L63.573 18.8h-3.522L56.017 8.026v10.773h-4.365V.878h5.157l5.029 12.407L66.816.878h5.13ZM83.561 18.977c-1.685 0-3.234-.391-4.646-1.174a8.927 8.927 0 0 1-3.344-3.268c-.817-1.412-1.225-2.995-1.225-4.748 0-1.753.408-3.327 1.225-4.722a8.928 8.928 0 0 1 3.344-3.268c1.412-.783 2.961-1.174 4.646-1.174s3.225.391 4.62 1.174a8.508 8.508 0 0 1 3.32 3.268c.816 1.395 1.225 2.97 1.225 4.722 0 1.753-.409 3.336-1.226 4.748a8.74 8.74 0 0 1-3.318 3.268c-1.396.783-2.936 1.174-4.621 1.174Zm0-3.982c1.43 0 2.57-.477 3.42-1.43.869-.953 1.303-2.212 1.303-3.778 0-1.582-.434-2.842-1.302-3.778-.851-.953-1.991-1.43-3.421-1.43-1.447 0-2.604.469-3.472 1.405-.85.936-1.276 2.204-1.276 3.803 0 1.583.425 2.85 1.276 3.804.868.936 2.026 1.404 3.472 1.404ZM104.293 18.799l-3.727-6.765h-1.047v6.765h-4.365V.878h7.327c1.412 0 2.612.247 3.599.74 1.004.494 1.753 1.175 2.246 2.043.494.85.741 1.804.741 2.859 0 1.191-.341 2.255-1.021 3.19-.664.937-1.651 1.6-2.962 1.992l4.136 7.097h-4.927Zm-4.774-9.854h2.706c.8 0 1.396-.196 1.787-.587.409-.392.613-.945.613-1.66 0-.68-.204-1.216-.613-1.608-.391-.391-.987-.587-1.787-.587h-2.706v4.442ZM125.464 6.647a5.848 5.848 0 0 1-.714 2.86c-.477.85-1.209 1.54-2.196 2.067-.987.528-2.212.792-3.676.792h-2.706v6.433h-4.365V.878h7.071c1.43 0 2.638.247 3.625.74.987.494 1.728 1.175 2.221 2.043.494.868.74 1.863.74 2.986Zm-6.918 2.247c.834 0 1.455-.196 1.864-.587.408-.392.613-.945.613-1.66 0-.714-.205-1.268-.613-1.659-.409-.391-1.03-.587-1.864-.587h-2.374v4.493h2.374ZM143.258.878v17.92h-4.365v-7.377h-6.791v7.378h-4.365V.878h4.365v7.02h6.791V.878h4.365ZM150.775.878v17.92h-4.366V.879h4.366Z" fill="#000"/><path d="m164.92 18.799-3.651-5.489-3.216 5.489h-4.952l5.743-9.114-5.871-8.807h5.08l3.599 5.412 3.166-5.412h4.952l-5.692 9.037L170 18.799h-5.08Z" fill="#7000FF"/></svg>