<svg width="203" height="52" fill="none" xmlns="http://www.w3.org/2000/svg"><path d="M11.644 40.468h6.622c7.846 0 14.253-4.534 14.253-14.756 0-10.221-6.407-14.828-14.253-14.828h-6.622v29.584Zm7.054 10.726H.271V.159h18.5c15.331 0 25.625 9.79 25.625 25.553 0 15.764-10.294 25.482-25.698 25.482ZM84.892 51.194H52.5V.159h32.32v10.725H63.873V20.6h19.003v10.006H63.873v9.79h21.019v10.797ZM114.828 36.078 126.993.157h12.093l-18.643 51.036H108.71L89.995.159h12.524l12.309 35.919ZM135.069 44.427c0-4.03 3.311-7.342 7.342-7.342s7.415 3.311 7.415 7.342c0 3.96-3.384 7.415-7.415 7.415-4.031 0-7.342-3.456-7.342-7.415Z" fill="#000"/><path d="m202.856.159-16.412 25.625L203 51.194h-13.82l-10.078-16.556-10.005 16.556h-13.389l16.484-25.554L155.708.16h13.677l10.077 16.555L189.539.16h13.317Z" fill="#7000FF"/></svg>