<svg width="95" height="26" viewBox="0 0 95 26" fill="none" xmlns="http://www.w3.org/2000/svg">
<path d="M5.58519 19.7607H8.67961C12.3458 19.7607 15.3393 17.6417 15.3393 12.8656C15.3393 8.08941 12.3458 5.93678 8.67961 5.93678H5.58519V19.7607ZM8.88142 24.7723H0.270874V0.925171H8.91505C16.0793 0.925171 20.8891 5.49952 20.8891 12.8656C20.8891 20.2316 16.0793 24.7723 8.88142 24.7723Z" fill="white"/>
<path d="M39.8116 24.7723H24.6759V0.925171H39.778V5.93678H29.9902V10.4775H38.8699V15.1528H29.9902V19.7271H39.8116V24.7723Z" fill="white"/>
<path d="M53.8001 17.709L59.4844 0.925171H65.1351L56.4236 24.7723H50.9411L42.196 0.925171H48.0485L53.8001 17.709Z" fill="white"/>
<path d="M63.2581 21.6107C63.2581 19.7271 64.8053 18.1799 66.6888 18.1799C68.5724 18.1799 70.1532 19.7271 70.1532 21.6107C70.1532 23.4606 68.5724 25.0751 66.6888 25.0751C64.8053 25.0751 63.2581 23.4606 63.2581 21.6107Z" fill="white"/>
<path d="M94.9327 0.925171L87.264 12.8992L95 24.7723H88.5421L83.8332 17.0363L79.158 24.7723H72.9019L80.6043 12.8319L72.9019 0.925171H79.2925L84.0014 8.66121L88.7103 0.925171H94.9327Z" fill="#7000FF"/>
</svg>
