<svg width="95" height="26" fill="none" xmlns="http://www.w3.org/2000/svg"><path d="M5.585 19.76H8.68c3.666 0 6.66-2.118 6.66-6.894 0-4.777-2.994-6.93-6.66-6.93H5.585v13.825Zm3.296 5.012H.271V.925h8.644C16.08.925 20.89 5.5 20.89 12.865c0 7.367-4.81 11.907-12.008 11.907ZM39.812 24.772H24.676V.925h15.102v5.012H29.99v4.54h8.88v4.676h-8.88v4.574h9.822v5.045ZM53.8 17.709 59.484.925h5.651l-8.711 23.847H50.94L42.196.925h5.852L53.8 17.71ZM63.258 21.61a3.445 3.445 0 0 1 3.43-3.43c1.884 0 3.465 1.547 3.465 3.43 0 1.85-1.58 3.465-3.464 3.465s-3.43-1.614-3.43-3.464ZM94.933.925 87.264 12.9 95 24.772h-6.458l-4.709-7.736-4.675 7.736h-6.256l7.702-11.94L72.902.925h6.39l4.71 7.736L88.71.925h6.223Z" fill="#fff"/></svg>