<svg width="203" height="52" viewBox="0 0 203 52" fill="none" xmlns="http://www.w3.org/2000/svg">
<path d="M11.644 40.4684H18.2663C26.1124 40.4684 32.5188 35.9336 32.5188 25.7121C32.5188 15.4907 26.1124 10.8839 18.2663 10.8839H11.644V40.4684ZM18.6982 51.1937H0.270874V0.158569H18.7702C34.1024 0.158569 44.3958 9.94811 44.3958 25.7121C44.3958 41.4762 34.1024 51.1937 18.6982 51.1937Z" fill="black"/>
<path d="M84.8918 51.1937H52.4999V0.158569H84.8198V10.8839H63.873V20.6014H82.8763V30.6069H63.873V40.3964H84.8918V51.1937Z" fill="black"/>
<path d="M114.828 36.0775L126.993 0.158569H139.086L120.443 51.1937H108.71L89.9946 0.158569H102.519L114.828 36.0775Z" fill="black"/>
<path d="M135.069 44.4274C135.069 40.3964 138.38 37.0853 142.411 37.0853C146.442 37.0853 149.826 40.3964 149.826 44.4274C149.826 48.3864 146.442 51.8416 142.411 51.8416C138.38 51.8416 135.069 48.3864 135.069 44.4274Z" fill="black"/>
<path d="M202.856 0.158569L186.444 25.7841L203 51.1937H189.18L179.102 34.6379L169.097 51.1937H155.708L172.192 25.6402L155.708 0.158569H169.385L179.462 16.7144L189.539 0.158569H202.856Z" fill="#7000FF"/>
</svg>
