<svg xmlns="http://www.w3.org/2000/svg" viewBox="0 0 500 500"><path d="M62.65 313.62c13.82 41.14 46.24 74.46 85.08 93 44.71 21.33 89 17.6 132.73-4.64 28.33-14.42 50.8-36.87 75.27-56.64 29.92-24.18 71.81-47.79 67.88-92.25-3.47-39.23-39.3-71.17-75.5-81.4-47-13.28-96.67 7-143.41-8.06-34.17-11-68-32.71-100.9-6.11-44.53 36.01-59.06 102.83-41.15 156.1Z" style="fill:#7000ff"/><path d="M62.65 313.62c13.82 41.14 46.24 74.46 85.08 93 44.71 21.33 89 17.6 132.73-4.64 28.33-14.42 50.8-36.87 75.27-56.64 29.92-24.18 71.81-47.79 67.88-92.25-3.47-39.23-39.3-71.17-75.5-81.4-47-13.28-96.67 7-143.41-8.06-34.17-11-68-32.71-100.9-6.11-44.53 36.01-59.06 102.83-41.15 156.1Z" style="fill:#fff;opacity:.7000000000000001"/><path d="M422.19 150.83c-5.16-2.81-7.5-.47-9.37-2.81s5.15-8.44-8.91-14.53c0 0-.94-13.12-20.15-13.59s-14.06 13.1-19.22 16.4-6.56-1.87-11.71 1.41-2.82 9.84-7 10.78-9.85-4.22-15-.94-5.16 6.09-7.5 6.09-7-1.87-9.84 0-6.09 4.22-6.09 4.22h118.54s1.4-4.22-3.75-7.03Z" style="fill:#7000ff"/><g style="opacity:.8"><path d="M422.19 150.83c-5.16-2.81-7.5-.47-9.37-2.81s5.15-8.44-8.91-14.53c0 0-.94-13.12-20.15-13.59s-14.06 13.1-19.22 16.4-6.56-1.87-11.71 1.41-2.82 9.84-7 10.78-9.85-4.22-15-.94-5.16 6.09-7.5 6.09-7-1.87-9.84 0-6.09 4.22-6.09 4.22h118.54s1.4-4.22-3.75-7.03Z" style="fill:#fff"/></g><path d="M300.54 123.77c-2.08-1.13-3-.19-3.77-1.13s2.07-3.39-3.58-5.84c0 0-.38-5.28-8.11-5.47s-5.65 5.28-7.72 6.6-2.64-.76-4.72.56-1.13 4-2.82 4.34-4-1.7-6-.38-2.08 2.45-3 2.45-2.82-.75-4 0-2.44 1.7-2.44 1.7H302s.61-1.7-1.46-2.83Z" style="fill:#7000ff"/><g style="opacity:.8"><path d="M300.54 123.77c-2.08-1.13-3-.19-3.77-1.13s2.07-3.39-3.58-5.84c0 0-.38-5.28-8.11-5.47s-5.65 5.28-7.72 6.6-2.64-.76-4.72.56-1.13 4-2.82 4.34-4-1.7-6-.38-2.08 2.45-3 2.45-2.82-.75-4 0-2.44 1.7-2.44 1.7H302s.61-1.7-1.46-2.83Z" style="fill:#fff"/></g><path d="M143.73 129.15c-1.83-1-2.66-.16-3.32-1s1.82-3-3.15-5.14c0 0-.33-4.64-7.13-4.81s-5 4.64-6.79 5.81-2.32-.67-4.15.49-1 3.48-2.48 3.81-3.48-1.49-5.31-.33-1.82 2.16-2.65 2.16-2.49-.66-3.48 0-2.16 1.49-2.16 1.49h41.94a2.14 2.14 0 0 0-1.32-2.48Z" style="fill:#7000ff"/><g style="opacity:.8"><path d="M143.73 129.15c-1.83-1-2.66-.16-3.32-1s1.82-3-3.15-5.14c0 0-.33-4.64-7.13-4.81s-5 4.64-6.79 5.81-2.32-.67-4.15.49-1 3.48-2.48 3.81-3.48-1.49-5.31-.33-1.82 2.16-2.65 2.16-2.49-.66-3.48 0-2.16 1.49-2.16 1.49h41.94a2.14 2.14 0 0 0-1.32-2.48Z" style="fill:#fff"/></g><path d="M187.32 222.1s13.87 1.38 20.9 10a26.8 26.8 0 0 1 20.78-9.78 27 27 0 1 0-41.67-.19Z" style="fill:#7000ff"/><path d="M187.32 222.1s13.87 1.38 20.9 10a26.8 26.8 0 0 1 20.78-9.78 27 27 0 1 0-41.67-.19Z" style="fill:#fff;opacity:.5"/><path style="fill:#263238" d="m207.76 180.06-.47 69.53h2.34l-1.87-69.53z"/><path d="M208.46 229.45s4.68-8.42 13.11-11c0 0-8.9 2.11-13.34 9.37ZM208.46 205.57s4.68-8.42 13.11-11c0 0-8.9 2.11-13.34 9.37ZM208.46 217.51s4.68-8.42 13.11-11c0 0-8.9 2.11-13.34 9.37ZM207.77 211.66s-4.52-8.43-12.66-11c0 0 8.59 2.11 12.88 9.36ZM207.77 223.37s-4.52-8.43-12.66-11c0 0 8.59 2.11 12.88 9.37Z" style="fill:#263238"/><path d="M252.64 216.83s16.53 1.64 24.91 11.89c0 0 8.85-11.87 24.75-11.63a32.13 32.13 0 1 0-49.66-.23Z" style="fill:#7000ff"/><path d="M252.64 216.83s16.53 1.64 24.91 11.89c0 0 8.85-11.87 24.75-11.63a32.13 32.13 0 1 0-49.66-.23Z" style="fill:#fff;opacity:.5"/><path style="fill:#263238" d="m277.01 166.72-.56 82.87h2.79l-2.23-82.87z"/><path d="M277.84 225.59s5.58-10 15.63-13.11c0 0-10.6 2.51-15.91 11.16ZM277.84 197.13s5.58-10 15.63-13.11c0 0-10.6 2.51-15.91 11.16ZM277.84 211.36s5.58-10 15.63-13.11c0 0-10.6 2.51-15.91 11.16ZM277 204.39s-5.39-10-15.08-13.12c0 0 10.23 2.52 15.35 11.17ZM277 218.34s-5.39-10.05-15.08-13.11c0 0 10.23 2.51 15.35 11.16Z" style="fill:#263238"/><path d="M319.18 226.4s11.7 1.16 17.63 8.41a22.66 22.66 0 0 1 17.52-8.23 22.74 22.74 0 1 0-35.15-.16Z" style="fill:#7000ff"/><path d="M319.18 226.4s11.7 1.16 17.63 8.41a22.66 22.66 0 0 1 17.52-8.23 22.74 22.74 0 1 0-35.15-.16Z" style="fill:#fff;opacity:.5"/><path style="fill:#263238" d="m336.43 190.93-.4 58.66h1.98l-1.58-58.66z"/><path d="M337 232.6s4-7.11 11.06-9.28c0 0-7.51 1.78-11.26 7.9ZM337 212.46s4-7.11 11.06-9.28c0 0-7.51 1.77-11.26 7.9ZM337 222.53s4-7.11 11.06-9.28c0 0-7.51 1.78-11.26 7.9ZM336.43 217.59s-3.81-7.11-10.67-9.28c0 0 7.24 1.78 10.86 7.9ZM336.43 227.47s-3.81-7.11-10.67-9.28c0 0 7.24 1.77 10.86 7.9Z" style="fill:#263238"/><path style="fill:none;stroke:#263238;stroke-linecap:round;stroke-linejoin:round" d="M442.8 249.66H80.1"/><path d="M395.86 222.1s13.87 1.38 20.9 10c0 0 7.43-10 20.77-9.75a27 27 0 1 0-41.67-.19Z" style="fill:#7000ff"/><path d="M395.86 222.1s13.87 1.38 20.9 10c0 0 7.43-10 20.77-9.75a27 27 0 1 0-41.67-.19Z" style="fill:#fff;opacity:.5"/><path style="fill:#263238" d="m416.3 180.06-.47 69.53h2.34l-1.87-69.53z"/><path d="M417 229.45s4.69-8.42 13.11-11c0 0-8.89 2.11-13.34 9.37ZM417 205.57s4.69-8.42 13.11-11c0 0-8.89 2.11-13.34 9.37ZM417 217.51s4.69-8.42 13.11-11c0 0-8.89 2.11-13.34 9.37ZM416.31 211.66s-4.52-8.43-12.65-11c0 0 8.58 2.11 12.87 9.36ZM416.31 223.37s-4.52-8.43-12.65-11c0 0 8.58 2.11 12.87 9.37Z" style="fill:#263238"/><path d="M93.79 222.1s13.87 1.38 20.9 10a26.8 26.8 0 0 1 20.76-9.75 27 27 0 1 0-41.67-.19Z" style="fill:#7000ff"/><path d="M93.79 222.1s13.87 1.38 20.9 10a26.8 26.8 0 0 1 20.76-9.75 27 27 0 1 0-41.67-.19Z" style="fill:#fff;opacity:.5"/><path style="fill:#263238" d="m114.23 180.06-.47 69.53h2.34l-1.87-69.53z"/><path d="M114.93 229.45s4.68-8.42 13.11-11c0 0-8.9 2.11-13.35 9.37ZM114.93 205.57s4.68-8.42 13.11-11c0 0-8.9 2.11-13.35 9.37ZM114.93 217.51s4.68-8.42 13.11-11c0 0-8.9 2.11-13.35 9.37ZM114.23 211.66s-4.51-8.43-12.65-11c0 0 8.59 2.11 12.88 9.36ZM114.23 223.37s-4.51-8.43-12.65-11c0 0 8.59 2.11 12.88 9.37Z" style="fill:#263238"/><ellipse cx="358.53" cy="277.24" rx="28.22" ry="7.67" style="opacity:.30000000000000004"/><path style="fill:none;stroke:#263238;stroke-linecap:round;stroke-linejoin:round;stroke-width:2px" d="M339.86 278.05 358 245.39l16.44 35.28M358 245.39l-4.07 37.67"/><circle cx="358" cy="245.39" r="21.92" transform="rotate(-80.31 357.972 245.4)" style="fill:#fff;stroke:#263238;stroke-linecap:round;stroke-linejoin:round"/><circle cx="358" cy="245.39" r="16.01" transform="rotate(-20.32 358.073 245.444)" style="fill:#263238;stroke:#263238;stroke-linecap:round;stroke-linejoin:round"/><circle cx="358" cy="245.39" r="9.61" transform="rotate(-20.25 357.927 245.36)" style="fill:#7000ff;stroke:#263238;stroke-linecap:round;stroke-linejoin:round"/><circle cx="358" cy="245.39" r="5.17" style="fill:#263238;stroke:#263238;stroke-linecap:round;stroke-linejoin:round"/><path d="M250.45 163.28a1.5 1.5 0 0 1-1.5-1.46c0-.2-.75-20.17-8.17-34.35-1.73-3.31-3.41-6-5-8.69-5.56-9-9.46-26.79-9.72-37a.75.75 0 0 1 1.5 0c.25 9.83 5.45 26.84 10.77 35.49 1.66 2.69 3.37 5.47 5.14 8.87 7.74 14.8 8.48 34.8 8.51 35.65a1.5 1.5 0 0 1-1.45 1.54ZM222.78 279.17a.75.75 0 0 1-.74-.63c-.75-4.7 3.24-27.57 11.48-40.25s9.09-23.17 9.1-23.28a1.5 1.5 0 0 1 3 .19c0 .45-.79 11.22-9.57 24.73-8.57 13.18-13.13 34.53-12.51 38.38a.75.75 0 0 1-.63.85Z" style="fill:#263238"/><path d="m248.11 159.78-1.25 13 1 4.25s-.25 9.75-.5 14.75a44.63 44.63 0 0 1-1.5 9.25l-2.75 5-.75 10.25 3.75.25s4.75-27.25 5.25-33.5.5-23.75.5-23.75Z" style="fill:#7000ff;stroke:#263238;stroke-linecap:round;stroke-linejoin:round"/><ellipse cx="170.54" cy="409.42" rx="45.16" ry="18.53" style="opacity:.30000000000000004"/><path d="M132.36 404.28a57.27 57.27 0 0 1-2.75 10.25c-1.75 4.25-2.5 7.5-.5 8.75s3.75 4 9.25-1.25 5.5-8.5 5.5-11.25a60.53 60.53 0 0 1 .5-6.5s-7.5-3.75-12 0ZM180.61 385s.33.35.89.87a20.93 20.93 0 0 0 5.61 3.88c3.5 1.5 6.75 2.25 6.75 4s-3.5 2-8 2-8-1.25-10.75-1.5-7.5-.25-8.25-.25-2.5-3.5-1.5-7.25 8.25-5.5 10.5-4.25 4.75 2.5 4.75 2.5Z" style="fill:#fff;stroke:#263238;stroke-linecap:round;stroke-linejoin:round"/><path d="M145.86 254.28s-3 15.5-3.5 21 .5 28.25 0 32.25-4 31-4.25 36.25-4 11.75-4 20v30.5s-2.75 3-2.25 5a25.65 25.65 0 0 1 .5 5 7.36 7.36 0 0 1 5.75-.75c3 1 6.5 2.5 6.5 2.5a16.09 16.09 0 0 0 1.75-7.5c0-4.5-.25-8.25.25-9s2.75-23.75 6-30.75 9-48 9.75-50.25l5.25-15.75s.25 37.25.25 42.25-1 12.5-1 17.75-.25 22-.25 22.75-2 4.25-2 5.25 1.25 8.25 1.25 8.25 5.5-3 7.75-3.5a45.7 45.7 0 0 1 7-.5 31.4 31.4 0 0 0-2.25-5.25c-1-1.5 1-11.5.75-15.25s4.5-19.75 6-28.75 1.75-45.25 1.25-50.25-.75-11.25-.75-11.25v-20s-6.75 5.25-20.5 1.75-18.75-4.75-19.25-1.75Z" style="fill:#263238;stroke:#263238;stroke-linecap:round;stroke-linejoin:round"/><path style="fill:none;stroke:#fff;stroke-linecap:round;stroke-linejoin:round" d="m167.61 292.77 2.75-5.5 5.5-3.25M151.89 261.9a24.15 24.15 0 0 1-3.42 9.81l-3 4.69M177.47 263.18l-2.13 6.4s2.13 5.12 2.13 6.39-2.56 4.7-2.56 4.7"/><path d="M166.39 270.43s10.23-.43 16.2-5.54" style="fill:none;stroke:#fff;stroke-linecap:round;stroke-linejoin:round"/><g style="opacity:.29"><path d="M162.33 263.34a39.13 39.13 0 0 0 18.18-2.68l.39-4.31c-3.4.95-8.64 1.5-15.79-.32-.74-.2-1.46-.38-2.15-.55ZM150 260.53a45 45 0 0 0 9.88 2.5l1.06-8.07c-4.07-1-7.18-1.76-9.47-2.12ZM149.46 252.61c-2.3-.15-3.38.35-3.6 1.67l-.7 3.7a16.26 16.26 0 0 0 2.76 1.66ZM183.19 255.57l-.29 4.05c1-.48 1.92-1 2.71-1.43v-3.91a12.11 12.11 0 0 1-2.42 1.29Z" style="fill:#fff;stroke:#263238;stroke-linecap:round;stroke-linejoin:round"/></g><path d="m217.61 184.78 24.75-.25 5-2.5s5.25-.5 6 2 1.25 5-.25 4.75a2.74 2.74 0 0 1-2-1.75 8.23 8.23 0 0 1-3 2.5 5.41 5.41 0 0 1-4.5.25l-27.75 6.75a84.6 84.6 0 0 0 1.75-11.75Z" style="fill:#fff;stroke:#263238;stroke-linecap:round;stroke-linejoin:round"/><path d="M207.11 185.78a14.72 14.72 0 0 1 3.25-1.25c.75 0 7-2.75 9 1.75s1.5 8.75-2.5 11.25-8 .75-8.25-.75-1.5-11-1.5-11Z" style="fill:#7000ff;stroke:#263238;stroke-linecap:round;stroke-linejoin:round"/><path d="M103.76 151.25a98.78 98.78 0 0 0 4.82 18.94c3.62 9.82 17 18.77 24.11 25.49a90.05 90.05 0 0 1 10.5 11.54s4.14 25.14 3.28 31.34-1.73 16-1.38 17.39 17.22 5.86 25.83 4.82 15-4.47 15.84-7.57.69-6.2 1-10 2.75-19.63 2.75-26.18-.69-15-.69-15 23.42-3.79 24.8-5.51 1.21-7.92-.69-9.65-17.22-1.55-18.25-1.55-5.51-2.06-10-2.06-18.6-1.72-20.49-2.41a73.28 73.28 0 0 0-9-2.24c-4.13-.86-15-3.27-15-3.27s-9.3-6-13.09-10-8.44-9.13-14.64-12.06-9.01-5.12-9.7-2.02Z" style="fill:#7000ff;stroke:#263238;stroke-linecap:round;stroke-linejoin:round"/><path d="m110 170.19 10.16-6.2s-6 7.23-7.75 9.47M121.49 163.47s-1.37 8.79-3.44 12.4M152.86 196.78l-10.5-20.5 7.75 23M190.11 190.28l-.25 11.77 3.75-13.52M157.29 241.21q.28.81.57 1.5M143.36 187.69s7.13 32.06 12.34 48.76" style="fill:none;stroke:#263238;stroke-linecap:round;stroke-linejoin:round"/><path style="fill:#263238;stroke:#263238;stroke-linecap:round;stroke-linejoin:round" d="m167.86 193.03 5 7-7 46.75 6.25 10.74 6-12.99-2.75-44.75 3-8.25-6.5-5.75-4 7.25z"/><path d="m162.14 174.67-3.28 1.38-2.58 2.58 6.89 18.43 9-5.29 9.29 3s-5.33-11.89-8.09-15.85-11.23-4.25-11.23-4.25Z" style="fill:#7000ff;stroke:#263238;stroke-linecap:round;stroke-linejoin:round"/><path d="M181.57 144s1.11 2.22 3.6-1.66 2-8.88.28-8-1.94 3.33-1.94 3.33a21.21 21.21 0 0 0-6.66-3c-3-.56-15 0-19.15 4.16s-5 11.1-3.33 14.43 6.94 16.09 6.94 16.09 5-1.94 8.05-3 8.58-10 9.14-15 .29-5 .29-5Z" style="fill:#263238;stroke:#263238;stroke-linecap:round;stroke-linejoin:round"/><path d="M181.57 144a66.87 66.87 0 0 1 2.77 7.77c.56 2.5-.55 3.61.56 5.27l2.77 4.17-2.22 3.33s0 8-.28 9.71a2.94 2.94 0 0 1-3.33 2.77 30.08 30.08 0 0 1-6.1-1.11l-3.61 15.82-10.82-15.26v-7.22l4.72-5s-2.78-5-1.39-6.66 1.94-4.16 3.61-1.94a7.63 7.63 0 0 1 1.66 4.16l1.94-.28.56-4.72s4.72-1.94 4.44-4.44-3-3.88-3.33-5.82 8.05-.55 8.05-.55Z" style="fill:#fff;stroke:#263238;stroke-linecap:round;stroke-linejoin:round"/><path d="M183.49 153.14s-2.24-2.07-4.3-.17" style="fill:none;stroke:#263238;stroke-linecap:round;stroke-linejoin:round"/><path d="M182.46 157.45c0 .76-.23 1.37-.52 1.37s-.52-.61-.52-1.37.24-1.38.52-1.38.52.62.52 1.38Z" style="fill:#263238"/><path style="fill:none;stroke:#263238;stroke-linecap:round;stroke-linejoin:round" d="m227.45 90.78-49.67 83 45.67 96.99"/><path d="M195.18 173.78s-3.58 2.39-5 2.63-10-1.67-10-1.67l2.39-6.46s7.41 1 9.08 1.44 3.53 4.06 3.53 4.06Z" style="fill:#fff;stroke:#263238;stroke-linecap:round;stroke-linejoin:round"/><path d="M258.25 182.25h-.06l-72.74-9.77a.75.75 0 0 1 .21-1.48l72.64 10.5a.38.38 0 0 1 .32.43.38.38 0 0 1-.37.32Z" style="fill:#263238"/><path d="M174.71 165s7.75 3.45 9.81 3.62 1.73 1.38 1 3.1-1.72 7.23-3.27 7.41-5.34-1.38-5.34-1.9 1.37-.86 1.37-.86-3.78-.17-5.16-1.55-4.65-5-4.65-5-27.56-3.28-32.2-3.28-20.67-.86-24.63-1.37-5.17-2.24-6.89-5.86-2.07-10.16-.17-10.85 15.5.86 20.49 2.93 28.93 8.44 33.24 10.33 16.4 3.28 16.4 3.28Z" style="fill:#fff;stroke:#263238;stroke-linecap:round;stroke-linejoin:round"/><path d="M122.09 166a56.5 56.5 0 0 1-2.15-6.48c-.72-2.88.15-7.09.75-9.38-6.08-1.36-14.6-2.17-16.07-1.64-1.9.69-1.55 7.23.17 10.85s2.93 5.34 6.89 5.86c1.76.22 5.93.51 10.41.79Z" style="fill:#7000ff;stroke:#263238;stroke-linecap:round;stroke-linejoin:round"/><path d="M114.09 148.15a17.74 17.74 0 0 0 0 10 29.49 29.49 0 0 0 3.62 8.78l7.75.69.68-1.21s-4.3-4.3-4.65-8.26a8 8 0 0 1 2.42-6.38s-7.06-6.38-9.82-3.62Z" style="fill:#7000ff;stroke:#263238;stroke-linecap:round;stroke-linejoin:round"/></svg>