<svg xmlns="http://www.w3.org/2000/svg" xmlns:xlink="http://www.w3.org/1999/xlink" viewBox="0 0 3710 3710" style="enable-background:new 0 0 3710 3710" xml:space="preserve"><path style="fill:#fff" d="M0 0h3710v3710H0z"/><path style="fill:#f4f7fa" d="M2592.844 617.229c93.927 134.463-16.205 352.46 123.168 453.587 135.668 98.44 302.333-62.916 430.192 21.821 189.672 125.701 155.034 700.887-122.276 1058.262-83.396 107.474-153.08 149.292-183.941 270.84-66.27 260.996 166.636 416.253 122.314 545.338-99.796 290.651-1634.594 534.541-2250.424-338.961-287.617-407.962-330.651-997.063-73.674-1444.487 464.354-808.491 1743.883-868.11 1954.641-566.4z"/><path style="fill:#abc" d="M3028.003 1242.009c36.343 18.453 82.003 1.51 101.985-37.844 19.98-39.353 6.714-86.214-29.629-104.667-1.884-.956-3.804-1.76-5.733-2.528 6.753-21.776 11.844-43.722 15.258-65.676 2.083-.007 4.174-.041 6.298-.231 41.465-3.696 74.374-41.798 73.506-85.106-.868-43.308-35.186-75.419-76.652-71.723-2.167.195-4.296.536-6.412.912-4.332-21.462-10.266-42.427-17.752-62.718 1.907-1.116 3.805-2.27 5.658-3.569 35.476-24.853 46.818-73.908 25.333-109.566-21.484-35.656-67.66-44.413-103.136-19.56-1.817 1.275-3.528 2.65-5.218 4.046a374.678 374.678 0 0 0-46.007-42.945c1.169-1.917 2.313-3.859 3.348-5.897 19.981-39.353 46.09-82.341 9.462-100.223-84.734-41.364-121.095-5.954-141.075 33.4-1.035 2.038-1.927 4.108-2.785 6.183a374.618 374.618 0 0 0-61.819-11.801c.129-2.189.23-4.38.186-6.6-.868-43.306 11.981-66.742-29.641-67.552-90.764-1.764-121.387 37.631-120.518 80.936.044 2.264.234 4.477.458 6.675-20.8 5.929-41.227 13.509-61.11 22.677-.945-1.931-1.926-3.851-3.048-5.716-21.484-35.657-67.66-44.415-103.137-19.559-35.476 24.856-46.818 73.91-25.333 109.566 1.101 1.827 2.306 3.535 3.531 5.221-15.711 15.711-30.423 32.771-44.02 51.074-1.758-1.103-3.54-2.181-5.423-3.136-36.344-18.454-82.004-1.51-101.986 37.844-19.98 39.352-6.714 86.214 29.629 104.667 1.884.956 3.806 1.759 5.733 2.529-6.753 21.775-11.844 43.721-15.258 65.676-2.083.006-4.174.04-6.296.228-41.466 3.698-74.376 41.8-73.508 85.109.868 43.307 35.188 75.417 76.654 71.721 2.165-.192 4.294-.533 6.411-.909 4.332 21.462 10.265 42.427 17.752 62.718-1.907 1.115-3.805 2.269-5.658 3.568-35.475 24.853-46.818 73.908-25.333 109.566 21.484 35.657 92.612 52.222 128.088 27.369 1.818-1.274-21.424-10.458-19.735-11.854a374.759 374.759 0 0 0 46.008 42.945c-1.169 1.916-2.314 3.859-3.348 5.897-19.981 39.353-6.715 86.215 29.629 104.667 36.344 18.453 82.004 1.51 101.984-37.844 1.035-2.038 1.927-4.109 2.785-6.183a374.578 374.578 0 0 0 61.819 11.801c-.129 2.187-.23 4.38-.185 6.6.868 43.306 35.186 75.418 76.651 71.722 41.465-3.697 74.376-41.801 73.507-85.107-.044-2.263-.234-4.476-.459-6.674 20.8-5.929 41.228-13.509 61.11-22.678.944 1.932 1.926 3.852 3.049 5.714 21.484 35.658 67.658 44.418 103.135 19.561 35.476-24.855 46.818-73.908 25.334-109.567-1.102-1.825-2.308-3.533-3.532-5.219 15.71-15.712 30.424-32.772 44.019-51.074 1.76 1.101 3.543 2.177 5.426 3.134zm-453.065 5.748c-131.957-66.998-180.122-237.138-107.576-380.021 72.545-142.885 238.326-204.401 370.284-137.403 131.957 66.999 180.122 237.139 107.576 380.023-72.545 142.883-238.326 204.4-370.284 137.401z"/><path style="fill:#abc" d="M3116.182 1031.064c41.465-3.697 74.374-41.801 73.506-85.108-.868-43.307-35.186-75.421-76.652-71.723-2.167.193-4.296.536-6.412.911-4.331-21.462-10.266-42.426-17.752-62.716 1.907-1.115 3.805-2.27 5.658-3.569 35.476-24.853 79.366-84.907 54.336-118.171-47.502-63.135-96.663-35.807-132.139-10.954-1.817 1.275-3.528 2.648-5.218 4.045-14.012-15.489-29.38-29.842-46.007-42.945 1.169-1.917 2.313-3.858 3.348-5.896 10.875-21.417 11.835-45.031 4.653-65.106-34.266 60.308-68.069 120.87-101.268 181.762 105.272 77.14 138.788 229.16 72.986 358.764-55.762 109.826-166.603 171.495-274.833 163.767-4.828 12.521-9.568 25.109-14.738 37.509-14.03 33.649-29.968 66.607-45.926 99.522a372.38 372.38 0 0 0 30.225 4.44c-.13 2.189-.231 4.381-.187 6.6.868 43.308 27.161 80.103 102.311 76.117 41.571-2.205 48.716-46.195 47.847-89.502-.044-2.262-.234-4.475-.458-6.673 20.799-5.929 41.227-13.511 61.109-22.678.944 1.932 1.926 3.852 3.049 5.714 21.484 35.659 96.016 50.809 131.492 25.954 35.477-24.855 18.46-80.301-3.022-115.96-1.102-1.826-2.308-3.534-3.532-5.22 15.71-15.711 30.424-32.772 44.019-51.073 1.758 1.105 3.541 2.181 5.424 3.135 36.343 18.455 82.003 1.51 101.985-37.844 19.98-39.351 6.714-86.214-29.629-104.667-1.884-.956-3.804-1.759-5.733-2.527 6.753-21.776 11.844-43.723 15.258-65.675 2.085-.01 4.176-.045 6.3-.233z"/><path style="fill:#d8dee8" d="M3067.094 1246.454c36.344 18.453 82.004 1.509 101.985-37.844 19.98-39.353 6.715-86.214-29.629-104.667-1.883-.956-3.805-1.76-5.732-2.528 6.752-21.776 11.844-43.722 15.258-65.676 2.083-.007 4.173-.041 6.298-.231 41.465-3.696 74.375-41.799 73.508-85.106-.868-43.308-35.186-75.421-76.652-71.723-2.168.195-4.296.536-6.413.912-4.332-21.462-10.267-42.427-17.754-62.718 1.908-1.116 3.806-2.269 5.659-3.569 35.475-24.854 46.818-73.908 25.333-109.566-21.485-35.657-67.661-44.414-103.135-19.56-1.819 1.275-3.529 2.65-5.219 4.046-14.012-15.49-29.381-29.845-46.007-42.945 1.169-1.916 2.314-3.859 3.348-5.897 19.98-39.354 6.715-86.214-29.629-104.668-36.345-18.452-82.006-1.508-101.986 37.845-1.035 2.038-1.927 4.108-2.785 6.183a374.578 374.578 0 0 0-61.819-11.801c.13-2.189.231-4.381.187-6.6-.869-43.306-35.187-75.418-76.653-71.722-41.465 3.696-74.375 41.8-73.506 85.106.045 2.264.235 4.477.459 6.675-20.799 5.929-41.226 13.509-61.109 22.677-.945-1.931-1.926-3.851-3.048-5.716-21.485-35.658-67.661-44.414-103.137-19.559-35.477 24.856-46.818 73.908-25.332 109.566 1.099 1.827 2.305 3.535 3.53 5.221-15.71 15.712-30.424 32.772-44.019 51.073-1.759-1.102-3.541-2.18-5.425-3.135-36.344-18.454-82.004-1.51-101.984 37.844-19.98 39.352-6.715 86.214 29.629 104.667 1.883.955 3.805 1.759 5.733 2.528-6.753 21.776-11.845 43.721-15.258 65.676-2.083.005-4.174.04-6.298.227-41.465 3.698-74.375 41.801-73.507 85.108.868 43.309 35.188 75.418 76.653 71.722 2.167-.192 4.296-.533 6.412-.91 4.331 21.461 10.265 42.427 17.753 62.718-1.908 1.116-3.806 2.268-5.66 3.568-35.474 24.853-46.818 73.908-25.333 109.565 21.485 35.658 67.662 44.414 103.136 19.561 1.818-1.274 3.529-2.649 5.219-4.045a374.741 374.741 0 0 0 46.006 42.945c-1.169 1.917-2.314 3.859-3.349 5.897-19.98 39.352-6.715 86.214 29.629 104.667 36.345 18.453 82.005 1.509 101.986-37.844 1.035-2.038 1.927-4.109 2.785-6.183 20.388 5.692 41.046 9.629 61.82 11.801-.13 2.187-.231 4.38-.187 6.6.87 43.306 35.188 75.417 76.653 71.721 41.465-3.696 74.376-41.8 73.506-85.106-.045-2.263-.235-4.476-.458-6.674 20.8-5.929 41.226-13.509 61.11-22.678.945 1.931 1.925 3.852 3.049 5.714 21.485 35.658 67.66 44.416 103.135 19.561 35.477-24.856 46.818-73.909 25.334-109.568-1.1-1.825-2.306-3.533-3.532-5.219 15.711-15.712 30.424-32.773 44.019-51.074 1.757 1.105 3.538 2.182 5.423 3.138zm-453.066 5.748c-131.958-66.997-180.121-237.138-107.577-380.023 72.545-142.883 238.328-204.399 370.284-137.402 131.958 66.997 180.122 237.139 107.577 380.023-72.544 142.884-238.327 204.4-370.284 137.402z"/><linearGradient id="a" gradientUnits="userSpaceOnUse" x1="2644.957" y1="834.625" x2="477.167" y2="3442.368"><stop offset="0" style="stop-color:#444b8c"/><stop offset=".996" style="stop-color:#26264f"/></linearGradient><path style="fill:url(#a)" d="M3000.471 913.223 731.315 806.235c-26.683-1.258-48.367 20.535-48.367 48.679v1975.423c0 28.143 21.683 49.712 48.367 48.178l2269.157-130.48c20.865-1.199 37.743-22.279 37.743-47.083V959.916c-.001-24.805-16.879-45.708-37.744-46.693z"/><path style="opacity:.61;fill:#fff" d="M734.057 2825.447V859.278l5.981.265 2259.524 99.709v1742.767l-5.504.298-2260.001 123.13zm11.536-1951.892v1937.491l2242.432-122.171V972.509L745.593 873.555z"/><g style="opacity:.61"><path style="fill:#fff" d="M907.012 2575.912c-12.233 0-23.947-5.242-32.664-15.106-10.669-12.075-14.704-28.568-11.072-45.249 53.093-243.79 187.837-345.781 263.432-384.877l4.59 12.62c-73.666 38.1-204.993 137.575-256.855 375.718-2.546 11.688.315 23.282 7.847 31.808 9.407 10.646 23.606 14.109 37.059 9.028l190.047-71.707c28.562-10.777 52.079-33.901 64.522-63.439l35.159-83.467 10.308 6.175-35.159 83.466c-13.831 32.837-39.838 58.49-71.35 70.382l-190.047 71.707c-5.235 1.977-10.575 2.941-15.817 2.941zM1915.478 2533.275c-3.737 0-7.495-.556-11.182-1.704l-174.743-54.301c-29.887-9.286-54.6-32.509-67.805-63.716l-35.561-84.042 10.299-6.199 35.561 84.044c11.713 27.679 33.734 48.309 60.416 56.601l174.743 54.301c11.294 3.507 23.477-.411 31.8-10.232 7.494-8.845 10.418-20.48 8.023-31.921-46.519-222.285-167.2-311.401-234.996-344.737l4.398-12.717c34.107 16.771 84.565 48.861 131.253 106.497 52.533 64.852 89.723 148.165 110.539 247.626 3.355 16.031-.795 32.864-11.102 45.031-8.487 10.015-19.963 15.469-31.643 15.469zM1270.578 2492.568c-10.299 0-19.591-5.627-25.019-15.216-5.149-9.095-5.947-20.142-2.186-30.307l33.131-89.903 10.561 5.535-33.135 89.911c-2.128 5.755-1.693 11.97 1.191 17.064 3.387 5.984 9.446 9.461 16.18 9.141l306.758-11.879c6.59-.253 12.501-4.167 15.812-10.469 2.762-5.253 3.189-11.369 1.172-16.775l-33.083-86.09 10.488-5.731 33.109 86.157c3.63 9.729 2.924 20.547-1.911 29.747-5.354 10.187-14.779 16.509-25.212 16.912l-306.758 11.879c-.369.016-.735.024-1.098.024z"/><path style="fill:#fff" d="M1413.03 2382.553c-64.696.003-130.641-12.207-197.47-36.639-9.141-3.342-16.49-10.429-20.692-19.959-33.14-75.142-196.743-466.428-163.006-791.002 29.059-279.575 251.025-447.384 345.108-506.555 14.878-9.357 26.74-16.116 34.07-20.137 7.008-3.845 10.732-5.874 12.996-6.767.349-.18.697-.328 1.129-.387 1.676-.464 2.364-.039 3.579.711l-.045.105c4.107 1.766 12.22 6.746 30.369 18.944 41.089 27.617 120.909 87.156 193.821 175.613 88.866 107.811 140.095 224.385 152.263 346.483 31.073 311.773-122.14 695.943-153.17 769.788-3.866 9.206-10.597 16.407-18.949 20.277-71.224 33.011-144.767 49.525-220.003 49.525zm12.787-1367.055c-29.306 14.954-347.739 186.652-382.506 521.148-33.314 320.5 128.91 708.401 161.767 782.906 2.761 6.258 7.684 10.949 13.865 13.209 142.006 51.917 279.92 47.691 409.912-12.555 5.681-2.633 10.231-7.469 12.815-13.617 30.771-73.23 182.713-454.13 152.029-762.003-32.289-323.976-339.111-512.384-367.648-529.077l-.116.062-.118-.073z"/><path style="fill:#fff" d="M1422.788 2014.15c-73.626 0-144.336-33.687-194.478-92.786-45.577-53.718-70.677-123.782-70.677-197.285s25.101-143.528 70.678-197.174c50.909-59.918 123.077-93.549 197.863-92.445 70.043 1.095 135.729 31.794 184.957 86.439 49.268 54.692 76.401 126.999 76.401 203.603 0 76.605-27.134 148.871-76.405 203.484-49.23 54.569-114.918 85.16-184.962 86.141-1.123.014-2.254.023-3.377.023zm-.389-565.961c-70.475 0-138.076 32.119-185.985 88.507-43.364 51.042-67.245 117.588-67.245 187.383 0 69.798 23.883 136.386 67.25 187.5 47.991 56.564 115.764 88.81 186.367 88.813 1.085 0 2.158-.007 3.244-.023 137.832-1.928 249.966-125.681 249.966-275.867 0-150.191-112.137-274.132-249.974-276.285a230.4 230.4 0 0 0-3.623-.028z"/><path style="fill:#fff" d="M1424.021 1957.115c-59.165 0-116.011-27.145-156.256-74.699-36.506-43.135-56.612-99.351-56.612-158.292 0-58.944 20.106-115.13 56.614-158.208 40.731-48.061 98.55-75.163 158.391-74.432 56.316.712 109.163 25.264 148.807 69.134 39.719 43.952 61.594 102.14 61.594 163.843 0 61.706-21.876 119.86-61.598 163.749-39.645 43.807-92.494 68.273-148.811 68.893-.709.008-1.419.012-2.129.012zm-.311-451.889c-56.037 0-109.798 25.595-147.828 70.468-34.302 40.475-53.193 93.187-53.193 148.429 0 55.243 18.891 107.987 53.195 148.52 38.557 45.557 93.237 71.315 150.16 70.702 109.717-1.208 198.978-99.4 198.978-218.885 0-119.492-89.265-217.833-198.986-219.22-.773-.01-1.553-.014-2.326-.014zM1720.845 1311.357l-599.104-13.866.223-13.755 599.104 13.866z"/></g><path style="opacity:.61;fill:#fff" d="m740.051 2672.677-.452-13.746 2253.969-105.439.452 13.747z"/><path style="opacity:.61;fill:#fff" d="M2102.7 2601.779h11.536v144.682H2102.7z"/><path style="opacity:.61;fill:#fff" d="m2107.486 2681.055-.491-13.746 886.554-44.953.491 13.747z"/><path style="opacity:.61;fill:#fff" d="M2258.625 2594.487h11.536v71.729h-11.536zM2482.912 2583.995h11.536v70.847h-11.536zM2338.966 1045.517l-912.16-34.949.149-5.5 912.16 34.949zM1958.267 2534.42l-.164-5.498 381.987-16.282.164 5.497zM1720.901 2126.932l-.079-5.503 619.311-12.651.078 5.502zM2340.127 1321.671l-619.311-14.33.09-5.503 619.311 14.33z"/><path style="opacity:.61;fill:#fff" d="M2309.071 1043.083h4.614v1472.158h-4.614zM1682.658 2006.731l-.679-.773-396.005-449.786 3.182-3.985 395.325 449.014 425.19-5.957.054 5.503z"/><path style="opacity:.45;fill:#fff" d="m2897.523 1100.119-443.081-16.074v-35.491l443.081 16.943zM2897.523 1156.045l-443.081-14.668v-35.491l443.081 15.538zM2897.523 1211.972l-443.081-13.263v-35.491l443.081 14.133zM2897.523 1531.554l-443.081-5.234v-35.491l443.081 6.103zM2897.523 1587.481l-443.081-3.829v-35.491l443.081 4.698zM2897.523 1643.407l-443.081-2.423v-35.492l443.081 3.294zM2897.523 1310.51l-239.582-5.833v-35.092l239.582 6.304zM2897.523 1366.437l-239.582-5.073v-35.092l239.582 5.543zM2897.523 1422.364l-239.582-4.314v-35.092l239.582 4.784z"/><path style="opacity:.61;fill:#fff" d="M2452.136 2512.003v-780.948l447.694.152v761.749l-447.694 19.047zm4.614-775.443v769.741l438.465-18.656v-750.939l-438.465-.146z"/><path style="opacity:.61;fill:#fff" d="m2454.455 1853.952-.025-5.503 443.08-2.727.025 5.502zM2454.461 1914.015l-.036-5.503 443.079-4.201.036 5.502zM2454.468 1974.076l-.05-5.502 443.079-5.673.05 5.503zM2454.474 2034.138l-.063-5.503 443.08-7.144.063 5.502zM2454.48 2094.201l-.074-5.503 443.079-8.617.074 5.502zM2454.492 2208.864l-.099-5.503 443.079-11.426.1 5.503zM2454.499 2268.924l-.112-5.5 443.079-12.899.113 5.5zM2454.506 2328.987l-.126-5.5 443.079-14.371.126 5.5zM2454.511 2389.05l-.137-5.502 443.079-15.843.138 5.503zM2454.518 2449.109l-.151-5.497 443.08-17.315.151 5.498z"/><path style="opacity:.61;fill:#fff" d="M2592.971 1733.854h4.614v770.66h-4.614z"/><path style="opacity:.45;fill:#fff" d="m2275.257 1770.968-24.16.042v-75.923l24.16.059zM2275.257 2366.513l-24.16.829v-75.922l24.16-.728zM2080.169 1962.184l-166.623 2.007v-47.8l166.623-1.58z"/><path style="opacity:.49;fill:#fff" d="m2440.575 1676.45-960.363 1.954c-5.515.011-8.053-8.181-3.856-12.443l111.351-113.061-1.018-500.17c-.041-20.181 14.154-36.183 31.682-35.741l820.91 20.705c16.237.409 29.554 16.591 29.594 35.959l1.155 567.524c.041 19.447-13.147 35.24-29.455 35.273z"/><path style="fill:#d8dee8" d="m1853.01 1135.495-187.677-3.854-.053-26.317 187.676 4.058zM1853.116 1187.721l-187.676-3.446-.054-26.317 187.677 3.65zM1853.283 1269.976l-187.674-2.803-.054-26.318 187.675 3.008zM1853.39 1322.202l-187.674-2.395-.054-26.317 187.674 2.599zM2396.477 1540.967l-730.316-2.73-.054-26.317 730.318 3.524zM2396.581 1592.014l-730.313-1.143-.054-26.317 730.315 1.937zM1853.557 1404.457l-187.672-1.752-.054-26.317 187.673 1.957zM1853.663 1456.684l-187.671-1.344-.054-26.318 187.672 1.548zM2396.318 1463.221l-472.594-3.332-.71-348.994 4.642.1.699 343.517 467.953 3.405z"/><path style="fill:#d8dee8" d="m1989.377 1363.042-3.3-3.82 97.259-114.769 95.011 40.224 92.631-92.471 92.782 57.472-2.018 4.698-90.104-55.785-92.301 92.164-94.754-40.089z"/><linearGradient id="b" gradientUnits="userSpaceOnUse" x1="2082.841" y1="1076.714" x2="1827.824" y2="1870.098" gradientTransform="translate(-5.747 1.857)"><stop offset="0" style="stop-color:#444b8c"/><stop offset=".996" style="stop-color:#26264f"/></linearGradient><path style="fill:url(#b)" d="M2003.644 1361.313c.021 10.271-7.086 18.523-15.878 18.431-8.799-.092-15.955-8.503-15.976-18.788-.021-10.285 7.1-18.536 15.9-18.43 8.792.105 15.932 8.516 15.954 18.787z"/><linearGradient id="c" gradientUnits="userSpaceOnUse" x1="2135.589" y1="1099.322" x2="1881.923" y2="1888.505" gradientTransform="translate(-5.747 1.857)"><stop offset="0" style="stop-color:#444b8c"/><stop offset=".996" style="stop-color:#26264f"/></linearGradient><path style="fill:url(#c)" d="M2099.748 1247.813c.021 10.229-7.029 18.414-15.751 18.281-8.728-.133-15.825-8.544-15.846-18.788s7.043-18.428 15.771-18.281c8.721.147 15.805 8.558 15.826 18.788z"/><linearGradient id="d" gradientUnits="userSpaceOnUse" x1="2231.032" y1="1137.68" x2="1978.351" y2="1923.798" gradientTransform="translate(-5.747 1.857)"><stop offset="0" style="stop-color:#444b8c"/><stop offset=".996" style="stop-color:#26264f"/></linearGradient><path style="fill:url(#d)" d="M2194.506 1287.943c.021 10.189-6.973 18.353-15.625 18.235-8.659-.118-15.7-8.484-15.72-18.686-.021-10.202 6.986-18.367 15.645-18.235 8.652.131 15.679 8.497 15.7 18.686z"/><linearGradient id="e" gradientUnits="userSpaceOnUse" x1="2286.595" y1="1160.922" x2="2035.168" y2="1943.141" gradientTransform="translate(-5.747 1.857)"><stop offset="0" style="stop-color:#444b8c"/><stop offset=".996" style="stop-color:#26264f"/></linearGradient><path style="fill:url(#e)" d="M2286.848 1195.684c.021 10.149-6.918 18.254-15.503 18.103-8.592-.151-15.577-8.511-15.598-18.674-.021-10.162 6.932-18.268 15.523-18.104 8.584.164 15.557 8.526 15.578 18.675z"/><linearGradient id="f" gradientUnits="userSpaceOnUse" x1="2383.675" y1="1199.847" x2="2133.168" y2="1979.2" gradientTransform="translate(-5.747 1.857)"><stop offset="0" style="stop-color:#444b8c"/><stop offset=".996" style="stop-color:#26264f"/></linearGradient><path style="fill:url(#f)" d="M2378.171 1252.274c.021 10.11-6.864 18.199-15.383 18.069-8.525-.13-15.458-8.441-15.479-18.564-.021-10.123 6.879-18.213 15.404-18.069 8.52.143 15.438 8.455 15.458 18.564z"/><path style="fill:#a2a7ae" d="M2193.915 2790.793a5.418 5.418 0 0 1-5.418-5.417v-820.125a5.418 5.418 0 0 1 10.836 0v820.125a5.418 5.418 0 0 1-5.418 5.417zM2634.531 2773.932a5.418 5.418 0 0 1-5.418-5.417v-803.264a5.418 5.418 0 0 1 10.836 0v803.264a5.418 5.418 0 0 1-5.418 5.417z"/><path style="fill:#fafbfc" d="M2590.039 2886.923a5.423 5.423 0 0 1-5.201-3.907l-264.589-908.893a5.417 5.417 0 0 1 3.688-6.714 5.403 5.403 0 0 1 6.717 3.688l264.589 908.893a5.417 5.417 0 0 1-3.688 6.714 5.397 5.397 0 0 1-1.516.219zM2999.368 2842.249a5.421 5.421 0 0 1-5.168-3.799l-271.1-864.219a5.42 5.42 0 0 1 10.34-3.242l271.1 864.219a5.42 5.42 0 0 1-5.172 7.041z"/><path style="fill:#d8dee8" d="m2743.821 1973.347-422.026 7.36-135.224-7.36v-16.192l314.457-5.186 242.793 5.186z"/><linearGradient id="g" gradientUnits="userSpaceOnUse" x1="465.761" y1="1968.407" x2="63.863" y2="1969.765" gradientTransform="translate(2222)"><stop offset=".494" style="stop-color:#ebeff2"/><stop offset="1" style="stop-color:#fff"/></linearGradient><path style="fill:url(#g)" d="m2743.821 1973.347-422.026 7.36v-16.193l422.026-7.359z"/><path style="fill:#fafbfc" d="M2382.582 2174.295a5.415 5.415 0 0 1-5.406-5.17 5.417 5.417 0 0 1 5.167-5.66l397.578-18.006c2.967-.142 5.52 2.178 5.656 5.167a5.417 5.417 0 0 1-5.167 5.66l-397.578 18.006c-.083.003-.167.003-.25.003zM2435.181 2354.976a5.418 5.418 0 0 1-.289-10.827l404.315-21.93c2.947-.236 5.542 2.131 5.704 5.116a5.418 5.418 0 0 1-5.116 5.704l-404.315 21.93c-.1.007-.2.007-.299.007zM2487.477 2534.623a5.417 5.417 0 0 1-.329-10.823l407.241-25.219c2.941-.135 5.555 2.083 5.741 5.072a5.417 5.417 0 0 1-5.072 5.741l-407.241 25.219c-.114.006-.227.01-.34.01zM2539.476 2713.24a5.417 5.417 0 0 1-.387-10.82l409.733-29.708c2.973-.24 5.579 2.026 5.795 5.011s-2.028 5.579-5.011 5.795l-409.733 29.708a4.802 4.802 0 0 1-.397.014z"/><linearGradient id="h" gradientUnits="userSpaceOnUse" x1="-750.201" y1="2200.943" x2="-789.437" y2="2071.57" gradientTransform="scale(-1 1) rotate(6.76 10.82 -12721.08)"><stop offset="0" style="stop-color:#444b8c"/><stop offset=".996" style="stop-color:#26264f"/></linearGradient><path style="fill:url(#h)" d="M2531.786 1940.776c4.845 7.729 4.09 11.347 3.257 12.991-2.443 4.823-9.905 1.29-27.997 5.374-2.122.48-6.164 1.462-11.407.792-4.492-.575-9.904-2.368-9.805-3.565.036-.436.797-.688 1.085-.782 4.97-1.615 35.772-14.708 35.772-14.708l9.095-.102z"/><linearGradient id="i" gradientUnits="userSpaceOnUse" x1="-784.025" y1="2175.752" x2="-784.025" y2="1967.902" gradientTransform="scale(-1 1) rotate(6.76 10.82 -12721.08)"><stop offset="0" style="stop-color:#ffc444"/><stop offset=".996" style="stop-color:#f36f56"/></linearGradient><path style="fill:url(#i)" d="m2532.357 1922.614-.938 18.508s-7.244 6.347-10.001-.151c-1.984-4.673-3.302-17.691-3.302-17.691l14.241-.666z"/><linearGradient id="j" gradientUnits="userSpaceOnUse" x1="-710.284" y1="2152.221" x2="-710.284" y2="1944.367" gradientTransform="scale(-1 1) rotate(6.76 10.82 -12721.08)"><stop offset="0" style="stop-color:#ffc444"/><stop offset=".996" style="stop-color:#f36f56"/></linearGradient><path style="fill:url(#j)" d="m2440.939 1917.589 9.871 20.165 10.973-2.944-4.616-19.144z"/><linearGradient id="k" gradientUnits="userSpaceOnUse" x1="-695.832" y1="2160.079" x2="-735.068" y2="2030.703" gradientTransform="scale(-1 1) rotate(6.76 10.82 -12721.08)"><stop offset="0" style="stop-color:#444b8c"/><stop offset=".996" style="stop-color:#26264f"/></linearGradient><path style="fill:url(#k)" d="M2455.492 1948.939c4.732-6.974 9.615-6.896 10.128-11.403.403-3.541-2.16-7.564-5.526-8.842-4.731-1.795-9.805 2.312-10.951 3.239-7.787 6.304-4.624 14.56-12.116 19.065-1.508.907-3.938 1.957-6.327 4.714-1.014 1.172-3.527 4.073-2.687 5.802.972 2 5.93 1.409 10.646.847 5.658-.674 8.487-1.009 11.033-2.995 3.531-2.751 2.148-5.045 5.8-10.427z"/><linearGradient id="l" gradientUnits="userSpaceOnUse" x1="-801.997" y1="1727.252" x2="-821.086" y2="2156.738" gradientTransform="scale(-1 1) rotate(6.76 10.82 -12721.08)"><stop offset=".004" style="stop-color:#e38ddd"/><stop offset="1" style="stop-color:#9571f6"/></linearGradient><path style="fill:url(#l)" d="M2546.537 1480.791c2.363 42.573.078 79.365-3.74 109.562-4.107 32.484-7.584 38.327-7.861 60.578-.601 48.418 15.45 54.011 22.794 108.073 8.11 59.695-3.883 108.669-8.644 127.366a344.64 344.64 0 0 1-12.408 38.923c-5.099 5.248-13.657 4.104-22.668 3.037-7.773-54.111-16.084-104.951-23.858-159.061l-51.927-242.804c36.105-15.227 72.208-30.449 108.312-45.674z"/><linearGradient id="m" gradientUnits="userSpaceOnUse" x1="-801.997" y1="1727.252" x2="-821.086" y2="2156.738" gradientTransform="scale(-1 1) rotate(6.76 10.82 -12721.08)"><stop offset="0" style="stop-color:#aa80f9"/><stop offset=".996" style="stop-color:#6165d7"/></linearGradient><path style="opacity:.3;fill:url(#m)" d="M2514.01 1928.329c-7.773-54.111-16.084-104.951-23.858-159.061l-51.927-242.804c36.104-15.225 72.207-30.447 108.311-45.673.156 2.819.24 5.543.357 8.314-48.318 49.531-55.539 86.194-53.005 110.583 3.073 29.581 20.494 42.926 20.889 86.152.283 30.907-8.503 37.084-6.202 64.804 2.965 35.694 19.948 54.495 29.119 74.502 8.864 19.338 13.771 47.362 3.169 88.679a345.304 345.304 0 0 1-4.186 11.467c-5.098 5.247-13.656 4.106-22.667 3.037z"/><linearGradient id="n" gradientUnits="userSpaceOnUse" x1="-513.795" y1="1886.43" x2="-863.75" y2="1870.523" gradientTransform="scale(-1 1) rotate(6.76 10.82 -12721.08)"><stop offset=".004" style="stop-color:#e38ddd"/><stop offset="1" style="stop-color:#9571f6"/></linearGradient><path style="fill:url(#n)" d="M2484.224 1503.459c-23.467 48.331-35.614 85.848-41.985 108.92-3.886 14.076-7.255 28.681-6.768 47.428.597 22.967 6.699 41.374 11.636 53.074 7.015 14.933 13.688 32.474 18.623 52.506 16.004 64.964 5.15 121.338-4.286 154.022-6.393 2.988-12.786 5.979-19.179 8.968-18.401-40.553-41.614-98.322-60.813-170.343-10.486-39.335-18.564-70.197-21.913-109.972-3.533-41.952-3.067-108.812 24.69-190.95 33.332 15.449 66.663 30.899 99.995 46.347z"/><linearGradient id="o" gradientUnits="userSpaceOnUse" x1="-1031.742" y1="1978.125" x2="-783.593" y2="1447.892" gradientTransform="scale(-1 1) rotate(6.76 10.82 -12721.08)"><stop offset="0" style="stop-color:#ff9085"/><stop offset="1" style="stop-color:#fb6fbb"/></linearGradient><path style="fill:url(#o)" d="M2438.875 1141.537c-41.345 10.681-72.655 20.825-85.091 43.974-13.135 24.451 12.253 39.932 22.982 90.3 16.428 77.112-25.969 109.941-6.571 187.349 6.536 26.082 17.222 45.788 24.417 57.426 14.47 9.932 37.263 23.231 67.336 31.033 43.763 11.352 64.025.964 121.517-.508 94.038-2.411 110.301 23.573 151.202 3.376 41.337-20.413 68.49-68.563 57.812-87.291-6.396-11.215-22.916-2.513-48.661-14.799-33.18-15.834-29.952-41.469-57.423-60.951-39.458-27.984-72.341 6.305-106.127-18.073-34.176-24.661-43.488-90.746-33.201-131.4 6.72-26.554 4.557-54.645 8.936-81.683.365-2.246.504-5.793-1.195-9.661-6.492-14.792-34.596-15.406-55.824-15.672-32.372-.406-56.709 5.701-60.109 6.58z"/><linearGradient id="p" gradientUnits="userSpaceOnUse" x1="3461.125" y1="1743.878" x2="3654.95" y2="2142.448" gradientTransform="rotate(-16.773 1067.446 5364.872)"><stop offset="0" style="stop-color:#ff9085"/><stop offset="1" style="stop-color:#fb6fbb"/></linearGradient><path style="opacity:.3;fill:url(#p)" d="M2727.308 1525.337c-13.673-7.561-8.685-32.623-28.954-44.027-18.813-10.585-31.398 6.341-58.318.469-34.527-7.532-35.453-40.097-68.579-47.768-23.82-5.516-29.593 9.875-63.008 13.289-33.358 3.41-78.3-6.749-108.972-39.868-13.032-14.073-20.948-29.582-25.762-44.128-6.542 29.602-13.931 58.309-3.519 99.856 6.536 26.082 17.222 45.788 24.417 57.426 14.47 9.932 37.263 23.231 67.336 31.032 43.762 11.352 64.025.965 121.517-.508 94.038-2.411 110.301 23.573 151.202 3.376 26.419-13.046 46.984-37.403 55.642-58.186-34.76 29.974-53.078 34.524-63.002 29.037z"/><linearGradient id="q" gradientUnits="userSpaceOnUse" x1="-758.293" y1="1290.252" x2="-803.058" y2="1362.665" gradientTransform="scale(-1 1) rotate(6.76 10.82 -12721.08)"><stop offset="0" style="stop-color:#ffc444"/><stop offset=".996" style="stop-color:#f36f56"/></linearGradient><path style="fill:url(#q)" d="M2408.632 1070.958s-9.76 22.656-9.227 37.941c.533 15.285 17.623 12.754 17.623 12.754l.151 9.658a20.886 20.886 0 0 1-12.081 19.268l-6.578 3.057s45.038 5.807 67.788-13.27l-7.02-.104a20.887 20.887 0 0 1-20.223-17.055l-.76-4.076c.001 0 3.744-48.094-29.673-48.173z"/><linearGradient id="r" gradientUnits="userSpaceOnUse" x1="-591.573" y1="1402.365" x2="-681.803" y2="1548.326" gradientTransform="scale(-1 1) rotate(6.76 10.82 -12721.08)"><stop offset="0" style="stop-color:#444b8c"/><stop offset=".996" style="stop-color:#26264f"/></linearGradient><path style="fill:url(#r)" d="m2363.504 1318.264-67.337-116.154a3.769 3.769 0 0 0-4.117-1.779l-94.213 22.017c-2.515.587-3.707 3.475-2.337 5.665l78.139 124.945a3.767 3.767 0 0 0 4.473 1.545l82.804-29.904 2.588-6.335z"/><linearGradient id="s" gradientUnits="userSpaceOnUse" x1="-556.718" y1="1382.343" x2="-634.658" y2="1528.678" gradientTransform="scale(-1 1) rotate(5.969 -4 -15013.756)"><stop offset="0" style="stop-color:#ffc444"/><stop offset=".996" style="stop-color:#f36f56"/></linearGradient><path style="fill:url(#s)" d="m2346.939 1305.08-54.523-94.05a3.053 3.053 0 0 0-3.333-1.441l-76.283 17.827c-2.038.475-3.002 2.814-1.893 4.587l63.268 101.167a3.049 3.049 0 0 0 3.622 1.25l67.046-24.212 2.096-5.128z"/><linearGradient id="t" gradientUnits="userSpaceOnUse" x1="-600.788" y1="1393.002" x2="-579.314" y2="1348.463" gradientTransform="scale(-1 1) rotate(6.76 10.82 -12721.08)"><stop offset="0" style="stop-color:#aa80f9"/><stop offset=".996" style="stop-color:#6165d7"/></linearGradient><path style="fill:url(#t)" d="m2276.325 1212.11-4.329-7.543a2.757 2.757 0 0 0-2.995-1.317l-39.24 8.825a2.756 2.756 0 0 0-1.772 4.084l4.814 8.202a2.758 2.758 0 0 0 3.033 1.283l38.754-9.484a2.756 2.756 0 0 0 1.735-4.05z"/><path style="fill:#fff" d="M2224.93 1244.453c.062-.007.119-.02.181-.034l69.079-16.302a1.592 1.592 0 0 0 1.185-1.911c-.206-.858-1.089-1.372-1.914-1.181l-69.08 16.303a1.592 1.592 0 0 0-1.185 1.911 1.593 1.593 0 0 0 1.734 1.214zM2229.261 1251.147c.065-.008.132-.022.196-.036l68.656-16.947a1.588 1.588 0 0 0 1.164-1.927 1.584 1.584 0 0 0-1.925-1.161l-68.656 16.946a1.592 1.592 0 0 0 .565 3.125zM2265.477 1258.599c.08-.009.16-.025.238-.047l37.327-10.299a1.589 1.589 0 0 0 1.111-1.958 1.595 1.595 0 0 0-1.955-1.108l-37.328 10.299a1.59 1.59 0 0 0 .607 3.113z"/><linearGradient id="u" gradientUnits="userSpaceOnUse" x1="-572.484" y1="1460.048" x2="-594.134" y2="1495.071" gradientTransform="scale(-1 1) rotate(6.76 10.82 -12721.08)"><stop offset="0" style="stop-color:#ffc444"/><stop offset=".996" style="stop-color:#f36f56"/></linearGradient><path style="fill:url(#u)" d="M2254.516 1322.379s-16.664-8.955-19.258-16.225c-2.594-7.27-3.606-21.353-3.606-21.353l11.135 18.824s4.25-1.714 5.457-8.427c1.207-6.713 5.021-1.078 4.248 3.979-.774 5.057 2.024 23.202 2.024 23.202z"/><linearGradient id="v" gradientUnits="userSpaceOnUse" x1="-920.372" y1="2030.236" x2="-672.226" y2="1500.011" gradientTransform="scale(-1 1) rotate(6.76 10.82 -12721.08)"><stop offset="0" style="stop-color:#ff9085"/><stop offset="1" style="stop-color:#fb6fbb"/></linearGradient><path style="fill:url(#v)" d="M2360.457 1177.378c-7.694 5.864-19.166 15.946-28.635 31.268-26.941 43.59-10.304 85.29-34.489 103.183-6.916 5.118-19.486 9.999-43.708 4.179l-8.456 5.698s-5.121 56.765 62.637 51.784c67.758-4.977 92.634-92.461 92.634-92.461l-39.983-103.651z"/><linearGradient id="w" gradientUnits="userSpaceOnUse" x1="-1006.901" y1="1593.57" x2="-825.925" y2="1206.87" gradientTransform="scale(-1 1) rotate(6.76 10.82 -12721.08)"><stop offset="0" style="stop-color:#444b8c"/><stop offset=".996" style="stop-color:#26264f"/></linearGradient><path style="fill:url(#w)" d="M2417.335 1091.961c2.271-.379 3.92-3.437 5.558-2.704 1.718.766 1.886 5.01.704 8.097-.97 2.53-2.767 4.064-3.778 4.794 1.969 2.297 4.533 5.91 5.882 10.806 2.985 10.827-2.129 20.158-4.131 25.536-9.026 24.244 11.083 59.725 31.341 76.804 16.464 13.884 23.056 7.206 33.16 18.823 19.669 22.608-2.531 51.092 9.294 82.736 17.982 48.117 96.995 56.325 100.267 56.626 1.289.119 2.155.188 3.494.289 35.359 2.652 88.952 6.67 123.83-25.063 26.095-23.74 35.785-62.101 30.951-94.78-1.271-8.596-6.608-41.184-35.558-65.743-4.595-3.897-31.799-26.921-65.774-24.411-17.995 1.328-21.095 7.965-35.172 5.188-19.271-3.803-32.287-19.958-40.361-29.979-14.852-18.434-9.82-23.05-20.136-31.867-20.215-17.272-40.876-.68-62.178-15.637-20.998-14.742-10.99-37.934-31.123-50.533-20.77-12.993-57.758-4.789-64.291 13.276-5.614 15.521 11.057 38.902 18.021 37.742z"/><path style="opacity:.75;fill:#f4f7fa" d="M1268.905 808.669c0-183.265-156.027-331.831-348.496-331.831S571.913 625.404 571.913 808.669c0 111.219 57.468 209.654 145.671 269.862 37.42 25.543 60.113 67.642 60.113 112.949v25.393c0 55.175 44.728 99.902 99.902 99.902h85.619c55.174 0 99.902-44.728 99.902-99.902v-25.393c0-45.307 22.694-87.406 60.113-112.949 88.203-60.207 145.672-158.643 145.672-269.862z"/><ellipse style="fill:#abc" cx="920.409" cy="1464.727" rx="77.306" ry="40.928"/><linearGradient id="x" gradientUnits="userSpaceOnUse" x1="821.586" y1="1379.473" x2="908.885" y2="1427.717"><stop offset="0" style="stop-color:#fff"/><stop offset="1" style="stop-color:#d8dee8"/></linearGradient><path style="fill:url(#x)" d="M817.698 1391.613v41.796c0 14.141 8.047 27.097 20.811 33.185 17.72 8.45 47.181 17.724 89.997 16.627 34.735-.89 57.385-6.563 71.786-12.522 13.911-5.758 22.828-19.514 22.828-34.57v-23.125l-205.422-21.391z"/><path style="fill:#abc" d="M817.698 1428.223c3.131 3.043 6.757 5.626 10.829 7.568 19.879 9.481 150.091 30.663 181.501 18.861 4.079-1.532 7.749-3.583 10.963-6.056a37.891 37.891 0 0 0 2.129-12.467v-23.126l-205.422-21.39v36.61z"/><linearGradient id="y" gradientUnits="userSpaceOnUse" x1="836.166" y1="1353.091" x2="923.465" y2="1401.335"><stop offset="0" style="stop-color:#fff"/><stop offset="1" style="stop-color:#d8dee8"/></linearGradient><path style="fill:url(#y)" d="M826.818 1363.176c-11.569-1.205-21.638 7.87-21.638 19.502v1.185c0 15.864 9.028 30.4 23.348 37.228 19.879 9.481 150.091 30.663 181.501 18.861 15.811-5.941 25.611-19.516 25.611-36.407v-.953c0-10.042-7.588-18.462-17.576-19.502l-191.246-19.914z"/><path style="fill:#bfc8d6" d="m1018.062 1383.09-191.244-19.914c-7.545-.786-14.431 2.815-18.324 8.631 3.842 9.053 10.837 16.625 20.033 21.01 19.879 9.48 155.637 33.425 181.501 21.238 10.068-4.745 17.963-12.754 22.194-22.489-3.152-4.622-8.224-7.857-14.16-8.476z"/><linearGradient id="z" gradientUnits="userSpaceOnUse" x1="863.952" y1="1302.811" x2="951.251" y2="1351.055"><stop offset="0" style="stop-color:#fff"/><stop offset="1" style="stop-color:#d8dee8"/></linearGradient><path style="fill:url(#z)" d="M819.336 1295.46c-7.818 0-14.156 6.338-14.156 14.156v32.735c0 15.864 9.028 30.4 23.348 37.229 19.879 9.481 155.637 33.425 181.501 21.237 15.279-7.2 25.611-21.892 25.611-38.783v-52.418c0-7.818-6.338-14.156-14.155-14.156H819.336z"/><ellipse style="fill:#bfc8d6" cx="920.409" cy="1305.651" rx="112.379" ry="26.569"/><linearGradient id="A" gradientUnits="userSpaceOnUse" x1="871.104" y1="739.582" x2="1321.355" y2="1454.415"><stop offset="0" style="stop-color:#fcb148"/><stop offset=".052" style="stop-color:#fdba46"/><stop offset=".142" style="stop-color:#ffc244"/><stop offset=".318" style="stop-color:#ffc444"/><stop offset=".485" style="stop-color:#fdb946"/><stop offset=".775" style="stop-color:#f99c4d"/><stop offset=".866" style="stop-color:#f8924f"/><stop offset="1" style="stop-color:#f8924f"/></linearGradient><path style="fill:url(#A)" d="M1268.905 808.669c0-183.265-156.027-331.831-348.496-331.831S571.913 625.404 571.913 808.669c0 111.219 57.468 209.654 145.671 269.862 37.42 25.543 60.113 67.642 60.113 112.949v25.393c0 55.175 44.728 99.902 99.902 99.902h85.619c55.174 0 99.902-44.728 99.902-99.902v-25.393c0-45.307 22.694-87.406 60.113-112.949 88.203-60.207 145.672-158.643 145.672-269.862z"/><path style="opacity:.5;fill:#f4f7fa" d="M1002.639 1284.7c0 10.737-36.815 19.441-82.23 19.441-45.414 0-82.231-8.704-82.231-19.441 0-10.737 36.816-19.442 82.231-19.442 45.415.001 82.23 8.705 82.23 19.442z"/><linearGradient id="B" gradientUnits="userSpaceOnUse" x1="788.848" y1="1289.995" x2="880.657" y2="1021.79"><stop offset=".494" style="stop-color:#ebeff2"/><stop offset="1" style="stop-color:#fff"/></linearGradient><path style="fill:url(#B)" d="M898.981 1296.581a4.755 4.755 0 0 1-4.708-4.147l-60.494-470.447a4.752 4.752 0 0 1 4.108-5.318c2.608-.351 4.984 1.504 5.319 4.106l60.494 470.447a4.751 4.751 0 0 1-4.719 5.359z"/><linearGradient id="C" gradientUnits="userSpaceOnUse" x1="876.62" y1="1320.039" x2="968.429" y2="1051.834"><stop offset=".494" style="stop-color:#ebeff2"/><stop offset="1" style="stop-color:#fff"/></linearGradient><path style="fill:url(#C)" d="M936.555 1296.581a4.752 4.752 0 0 1-4.719-5.358l60.495-470.447c.335-2.603 2.713-4.459 5.319-4.106a4.752 4.752 0 0 1 4.108 5.318l-60.495 470.447a4.754 4.754 0 0 1-4.708 4.146z"/><linearGradient id="D" gradientUnits="userSpaceOnUse" x1="756.879" y1="1279.05" x2="848.687" y2="1010.845"><stop offset=".494" style="stop-color:#ebeff2"/><stop offset="1" style="stop-color:#fff"/></linearGradient><path style="fill:url(#D)" d="M985.822 821.607a4.748 4.748 0 0 1-3.973-2.137l-16.695-25.328c-.172-.26-.436-.411-.678-.381-.414.009-.589.304-.646.399l-11.023 18.463c-1.827 3.058-5.029 4.938-8.567 5.026-3.516.114-6.838-1.631-8.82-4.601l-15.136-22.693c-.165-.246-.385-.373-.654-.376-.322.06-.472.114-.633.346L905.7 809.544a10.275 10.275 0 0 1-8.422 4.446h-.021a10.304 10.304 0 0 1-8.441-4.425l-19.169-27.461c-.173-.248-.416-.334-.676-.36-.274.012-.488.151-.639.411l-17.497 30.203a4.753 4.753 0 0 1-8.223-4.765l17.496-30.204c1.779-3.07 4.943-4.991 8.463-5.139 3.492-.178 6.837 1.504 8.869 4.416l19.168 27.461c.166.237.384.36.648.36h.001c.258-.002.469-.118.629-.348l13.296-19.219c1.946-2.81 5.149-4.482 8.53-4.443a10.306 10.306 0 0 1 8.481 4.608l15.134 22.69c.17.256.426.469.677.374.412-.009.586-.302.643-.397l11.023-18.463c1.834-3.07 5.047-4.95 8.596-5.028a10.302 10.302 0 0 1 8.823 4.653l16.696 25.329a4.751 4.751 0 0 1-3.963 7.364z"/><linearGradient id="E" gradientUnits="userSpaceOnUse" x1="886.904" y1="578.453" x2="797.158" y2="1318.081"><stop offset="0" style="stop-color:#fcb148"/><stop offset=".052" style="stop-color:#fdba46"/><stop offset=".142" style="stop-color:#ffc244"/><stop offset=".318" style="stop-color:#ffc444"/><stop offset=".485" style="stop-color:#fdb946"/><stop offset=".775" style="stop-color:#f99c4d"/><stop offset=".866" style="stop-color:#f8924f"/><stop offset="1" style="stop-color:#f8924f"/></linearGradient><path style="opacity:.3;fill:url(#E)" d="M926.734 1070.407c7.466-127.899 223.079-157.831 222.155-272.052-.569-70.348-86.248-122.592-104.544-133.056-134.813-77.105-300.746 11.934-335.015-51.084-8.532-15.69-4.532-32.77-2.254-42.496 3.443-14.701 11.239-28.393 22.805-40.917-95.114 59.251-157.968 161.562-157.968 277.867 0 111.219 57.468 209.655 145.671 269.862 37.42 25.543 60.113 67.643 60.113 112.949v25.394c0 55.175 44.728 99.902 99.902 99.902h85.619c55.174 0 99.902-44.728 99.902-99.902v-20.303c-11.784 9.031-25.318 15.329-40.159 15.208-51.494-.424-99.942-77.726-96.227-141.372z"/><ellipse style="opacity:.44;fill:#f4f7fa" cx="925.983" cy="821.607" rx="299.887" ry="289.209"/><defs><path id="F" d="M661.168 3046.238c-68.83-36.282-95.31-151.396-90.086-231.648 6.099-93.697 52.967-102.272 52.041-175.511-1.726-136.361-164.899-162.556-177.544-299.931-10.337-112.305 94.791-137.414 77.685-261.26-12.344-89.366-73.016-119.246-58.126-200.572 1.273-6.953 16.076-81.733 75.068-106.456 59.542-24.952 129.276 15.685 165.745 50.988 67.412 65.257 31.219 122.025 82.744 228.709 70.151 145.246 178.763 125.999 208.31 243.624 24.399 97.131-44.034 132.659-14.841 239.818 27.109 99.508 95.969 105.031 107.792 173.723 27.2 158.026-288.393 412.521-428.788 338.516z"/></defs><linearGradient id="G" gradientUnits="userSpaceOnUse" x1="824.713" y1="2725.157" x2="662.36" y2="2193.816"><stop offset=".004" style="stop-color:#f36f56"/><stop offset="1" style="stop-color:#ffc444"/></linearGradient><use xlink:href="#F" style="overflow:visible;fill:url(#G)"/><clipPath id="H"><use xlink:href="#F" style="overflow:visible"/></clipPath><g style="clip-path:url(#H)"><path style="opacity:.7;fill:#fff" d="M761.505 3108.885a2.043 2.043 0 0 1-1.254-3.657c54.135-42.084 97.088-93.641 127.666-153.242 28.951-56.433 58.89-114.788 47.293-180.694-8.755-49.754-35.822-73.71-70.09-104.039-33.546-29.691-75.294-66.645-110.84-140.683-20.298-42.28-45.561-94.901-40.17-162.944 3.144-39.677 15.347-63.39 26.114-84.311 11.158-21.684 19.972-38.812 14.205-66.321-9.452-45.1-37.942-71.356-70.934-101.763-20.47-18.864-41.635-38.37-61.499-64.839-55.927-74.531-71.323-182.376-45.757-320.543a2.045 2.045 0 0 1 2.379-1.638 2.044 2.044 0 0 1 1.636 2.381c-25.348 136.999-10.205 243.77 45.011 317.348 19.637 26.172 40.664 45.549 60.999 64.288 33.507 30.879 62.444 57.548 72.163 103.928 6.064 28.927-3.499 47.511-14.572 69.026-10.59 20.58-22.594 43.908-25.674 82.767-5.304 66.943 19.695 119.013 39.779 160.851 35.189 73.298 76.596 109.946 109.866 139.393 34.864 30.856 62.402 55.231 71.404 106.39 11.835 67.26-18.422 126.236-47.682 183.267-30.852 60.134-74.185 112.151-128.794 154.606-.37.286-.812.429-1.249.429z"/><path style="opacity:.7;fill:#fff" d="M715.826 2397.81c-.397 0-.799-.115-1.152-.358-215.894-147.545-236.655-299.45-236.839-300.966a2.043 2.043 0 0 1 1.78-2.273 2.027 2.027 0 0 1 2.276 1.78c.184 1.499 20.86 151.682 235.089 298.089a2.042 2.042 0 0 1-1.154 3.728zM789.319 2585.194a2.041 2.041 0 0 1-1.485-3.444C900 2462.797 917.979 2344.179 913.308 2265.62c-5.062-85.182-37.088-142.996-37.411-143.57a2.044 2.044 0 0 1 .778-2.783 2.04 2.04 0 0 1 2.781.777c.328.581 32.76 59.074 37.919 145.144 4.758 79.41-13.338 199.278-126.571 319.364-.4.426-.943.642-1.485.642zM922.651 2893.231c-.106 0-.213-.007-.321-.023-154.737-24.284-242.914-93.702-289.637-147.66-50.694-58.544-64.933-112.157-65.07-112.691a2.045 2.045 0 0 1 1.467-2.489 2.044 2.044 0 0 1 2.487 1.469c.137.527 14.207 53.371 64.352 111.208 46.277 53.377 133.639 122.056 287.035 146.124a2.044 2.044 0 0 1-.313 4.062zM616.719 2032.808a2.043 2.043 0 0 1-1.667-3.222c71.635-101.365 69.534-197.032 55.158-259.439-15.6-67.719-48.61-112.039-48.943-112.478a2.041 2.041 0 0 1 .402-2.86c.9-.682 2.18-.503 2.86.402.336.446 33.802 45.333 49.623 113.853 14.606 63.258 16.789 160.219-55.765 262.88a2.036 2.036 0 0 1-1.668.864z"/></g><defs><path id="I" d="M765.265 3004.952c-37.82-42.643-26.255-128.394-1.955-182.062 28.37-62.659 62.714-56.438 80.986-106.886 34.021-93.927-71.08-154.009-44.283-251.451 21.906-79.658 100.458-69.731 120.703-159.05 14.608-64.451-19.272-100.598 11.932-152.506 2.667-4.438 32.121-51.882 78.945-53.601 47.26-1.735 84.575 44.127 100.462 77.744 29.367 62.139-10.1 91.712-2.319 178.151 10.594 117.682 90.021 132.527 79.911 220.792-8.348 72.886-64.435 79.576-72.086 160.574-7.105 75.215 38.676 96.779 29.047 146.922-22.149 115.358-304.202 208.351-381.343 121.373z"/></defs><linearGradient id="J" gradientUnits="userSpaceOnUse" x1="840.007" y1="2374.343" x2="1030.823" y2="2802.233"><stop offset="0" style="stop-color:#ff9085"/><stop offset="1" style="stop-color:#fb6fbb"/></linearGradient><use xlink:href="#I" style="overflow:visible;fill:url(#J)"/><clipPath id="K"><use xlink:href="#I" style="overflow:visible"/></clipPath><g style="clip-path:url(#K)"><path style="opacity:.7;fill:#fff" d="M818.404 3074.446a2.043 2.043 0 0 1-.604-3.994c47.896-14.849 90.583-39.069 126.875-71.981 34.351-31.15 69.87-63.36 78.901-111.361 6.808-36.181-5.523-59.516-21.137-89.062-15.354-29.056-34.464-65.22-39.727-125.264-3.006-34.293-6.747-76.969 14.578-122.356 12.444-26.489 26.976-39.636 39.797-51.233 13.167-11.911 23.567-21.319 26.687-41.477 5.135-33.183-7.581-58.466-22.305-87.741-9.175-18.239-18.661-37.1-25.458-60.425-19.148-65.683-1.841-143.736 51.437-231.994a2.05 2.05 0 0 1 2.805-.692 2.045 2.045 0 0 1 .694 2.806c-52.664 87.235-69.828 164.197-51.015 228.739 6.693 22.964 16.095 41.656 25.186 59.729 15.04 29.904 28.029 55.728 22.692 90.207-3.34 21.586-14.759 31.916-27.982 43.878-12.536 11.34-26.743 24.193-38.839 49.939-20.858 44.391-17.171 86.458-14.207 120.262 5.19 59.223 23.296 93.486 39.271 123.714 15.983 30.251 28.61 54.144 21.539 91.727-9.285 49.348-45.321 82.028-80.17 113.63-36.737 33.318-79.941 57.831-128.411 72.859-.203.059-.408.09-.607.09z"/><path style="opacity:.7;fill:#fff" d="M970.665 2575.181a2.043 2.043 0 0 1-1.675-.871c-110.055-157.085-85.016-266.821-84.75-267.912a2.049 2.049 0 0 1 2.467-1.503 2.043 2.043 0 0 1 1.501 2.469c-.26 1.074-24.77 109.169 84.128 264.603a2.042 2.042 0 0 1-1.671 3.214zM972.671 2722.611a2.042 2.042 0 0 1-.898-3.877c107.406-52.492 150.279-129.005 167.333-183.946 18.498-59.594 11.489-107.413 11.414-107.889a2.044 2.044 0 0 1 1.709-2.33 2.026 2.026 0 0 1 2.33 1.709c.074.483 7.227 49.078-11.494 109.533-17.27 55.771-60.695 133.416-169.499 186.59a2.01 2.01 0 0 1-.895.21zM984.545 2968.205c-.341 0-.687-.084-1.006-.267-99.953-56.673-142.549-127.145-160.682-176.284-19.681-53.34-15.59-93.898-15.546-94.3.122-1.121 1.14-1.959 2.251-1.81a2.044 2.044 0 0 1 1.812 2.249c-.042.395-4.022 40.177 15.396 92.662 17.92 48.433 60.013 117.926 158.786 173.93a2.04 2.04 0 0 1 .768 2.783 2.04 2.04 0 0 1-1.779 1.037zM996.952 2299.37a2.034 2.034 0 0 1-1.692-.898 2.041 2.041 0 0 1 .545-2.836c143.726-97.366 100.508-251.213 100.054-252.753a2.043 2.043 0 0 1 3.92-1.155c.463 1.57 44.565 158.213-101.684 257.291a2.04 2.04 0 0 1-1.143.351z"/></g><linearGradient id="L" gradientUnits="userSpaceOnUse" x1="721.16" y1="3106.132" x2="2738.267" y2="3106.132"><stop offset="0" style="stop-color:#311944"/><stop offset="1" style="stop-color:#893976"/></linearGradient><path style="fill:url(#L)" d="M721.16 3082.661v-85.682l850.773 12.933 1166.334 34.281v85.683l-880.426 85.408z"/><linearGradient id="M" gradientUnits="userSpaceOnUse" x1="1571.933" y1="3106.132" x2="2738.267" y2="3106.132"><stop offset="0" style="stop-color:#fff"/><stop offset=".996" style="stop-color:#ebeff2"/></linearGradient><path style="opacity:.19;fill:url(#M)" d="m1857.841 2996.979-285.908 12.933 1166.334 34.281v85.683l-880.426 85.408z"/><linearGradient id="N" gradientUnits="userSpaceOnUse" x1="721.16" y1="3026.916" x2="2738.267" y2="3026.916"><stop offset="0" style="stop-color:#ff9085"/><stop offset="1" style="stop-color:#fb6fbb"/></linearGradient><path style="fill:url(#N)" d="m721.16 2996.979 850.773-72.75 1166.334 119.964-880.426 85.409z"/><path style="fill:#fff" d="M1894.622 3155.153a5.188 5.188 0 0 1-.495-10.351l818.518-79.569c2.835-.314 5.385 1.81 5.665 4.66a5.188 5.188 0 0 1-4.662 5.667l-818.518 79.569a5.108 5.108 0 0 1-.508.024zM1894.098 3192.52a5.187 5.187 0 0 1-.505-10.347l819.041-81.204c2.852-.257 5.391 1.803 5.673 4.65a5.19 5.19 0 0 1-4.65 5.677l-819.041 81.197c-.173.02-.345.027-.518.027z"/><linearGradient id="O" gradientUnits="userSpaceOnUse" x1="721.16" y1="3061.373" x2="2738.266" y2="3061.373"><stop offset="0" style="stop-color:#ff9085"/><stop offset="1" style="stop-color:#fb6fbb"/></linearGradient><path style="fill:url(#O)" d="M2472.437 3069.981c-134.955-45.97-247.908-55.691-336.158-52.738-136.704 4.574-177.688 38.322-360.064 39.775-237.452 1.891-316.12-54.139-496.135-62.802-79.704-3.835-180.36 1.612-299.497 33.031l877.258 102.355 614.596-59.621z"/><path style="opacity:.67;fill:#fff" d="M1926.457 3100.351c-.258 0-.518-.013-.782-.044l-793.29-89.238a6.916 6.916 0 0 1 1.547-13.745l793.29 89.238a6.917 6.917 0 0 1-.765 13.789zM1616.673 3018.603c-.248 0-.498-.014-.75-.041l-287.154-30.933a6.914 6.914 0 0 1-6.134-7.615c.41-3.799 3.833-6.535 7.617-6.136l287.154 30.934a6.917 6.917 0 0 1-.733 13.791z"/><linearGradient id="P" gradientUnits="userSpaceOnUse" x1="2330.456" y1="2942.475" x2="2342.487" y2="3095.595"><stop offset="0" style="stop-color:#311944"/><stop offset="1" style="stop-color:#a03976"/></linearGradient><path style="fill:url(#P)" d="M2353.92 3018.84s-48.43 22.01-49.22 25.524c-.791 3.513 31.145-1.178 44.183-.672 13.037.508 23.762-3.345 22.582-8.868-1.18-5.522-5.744-19.411-5.744-19.411l-11.801 3.427z"/><linearGradient id="Q" gradientUnits="userSpaceOnUse" x1="2361.515" y1="3027.722" x2="2359.328" y2="2869.136"><stop offset="0" style="stop-color:#ffc444"/><stop offset=".996" style="stop-color:#f36f56"/></linearGradient><path style="fill:url(#Q)" d="m2352.148 3000.977 2.946 21.804s7.667 2.729 12.817-.497l2.197-23.915-17.96 2.608z"/><linearGradient id="R" gradientUnits="userSpaceOnUse" x1="2557.813" y1="2924.613" x2="2569.843" y2="3077.731"><stop offset="0" style="stop-color:#311944"/><stop offset="1" style="stop-color:#a03976"/></linearGradient><path style="fill:url(#R)" d="m2580.219 3001.5 5.633 9.042a10.792 10.792 0 0 1 1.29 8.456c-1.97 7.52-5.904 22.175-7.62 25.997-2.336 5.205-33.677 8.297-33.677 8.297s-2.794-3.933 3.712-8.683c6.507-4.75 10.689-5.497 12.986-12.507 2.296-7.009 3.828-26.837 3.828-26.837l13.848-3.765z"/><linearGradient id="S" gradientUnits="userSpaceOnUse" x1="2569.877" y1="3024.849" x2="2567.69" y2="2866.26"><stop offset="0" style="stop-color:#ffc444"/><stop offset=".996" style="stop-color:#f36f56"/></linearGradient><path style="fill:url(#S)" d="M2556.773 2978.519c2.057 1.641 12.123 32.192 12.123 32.192s3.258 4.166 9.448-1.982c6.189-6.149 2.801-2.758 2.801-2.758l-1.16-30.048-23.212 2.596z"/><linearGradient id="T" gradientUnits="userSpaceOnUse" x1="2323.668" y1="2770.814" x2="2440.924" y2="2770.814"><stop offset="0" style="stop-color:#444b8c"/><stop offset=".996" style="stop-color:#3e4177"/></linearGradient><path style="fill:url(#T)" d="M2325.502 2562.906a2379.48 2379.48 0 0 0 24.436 446.009 208.934 208.934 0 0 0 21.033-.389 540.644 540.644 0 0 0 17.945-57.389c6.163-24.393 9.88-46.274 12.529-67.197 9.326-73.671-1.603-80.098 5.966-134.695 6.702-48.353 16.235-50.241 27.426-118.893 12.142-74.489 3.103-85.664-1.293-89.701-18.711-17.185-62.664-5.485-108.042 22.255z"/><linearGradient id="U" gradientUnits="userSpaceOnUse" x1="2323.668" y1="2770.819" x2="2440.923" y2="2770.819"><stop offset="0" style="stop-color:#444b8c"/><stop offset=".996" style="stop-color:#3e4177"/></linearGradient><path style="opacity:.3;fill:url(#U)" d="M2433.544 2540.653c-17.847-16.393-58.662-6.469-101.769 18.549 49.592 53.58 54.998 88.338 49.053 110.89-6.719 25.489-27.147 32.83-27.069 60.701.096 34.251 31.007 43.324 30.351 79.568-.435 23.966-14.018 23.718-17.226 53.319-3.795 35.023 13.951 47.092 8.203 73.005-2.473 11.149-9.531 25.716-29.632 40.722a2378.45 2378.45 0 0 0 4.484 31.511 208.14 208.14 0 0 0 21.032-.392 540.824 540.824 0 0 0 17.946-57.388c6.163-24.394 9.88-46.274 12.529-67.198 9.326-73.67-1.603-80.098 5.966-134.695 6.702-48.353 16.235-50.242 27.425-118.893 12.141-74.489 3.103-85.664-1.293-89.699z"/><linearGradient id="V" gradientUnits="userSpaceOnUse" x1="2356.22" y1="2759.256" x2="2592.269" y2="2759.256"><stop offset="0" style="stop-color:#444b8c"/><stop offset=".996" style="stop-color:#3e4177"/></linearGradient><path style="fill:url(#V)" d="M2356.22 2561.814c42.7 62.479 88.757 140.238 129.946 233.311a1460.876 1460.876 0 0 1 70.276 195.231c2.243 1.038 7.534 3.11 14.294 2.216 9.222-1.219 14.748-7.105 16.193-8.748 6.746-42.191 6.002-77.924 3.713-103.713-1.466-16.511-4.061-44.009-14.585-77.954-11.788-38.023-19.893-40.16-35.272-80.388-15.963-41.754-12.096-52.175-27.384-104.428-6.279-21.465-16.792-53.409-34.138-91.62l-123.043 36.093z"/><path style="fill:#fff" d="M2159.078 2641.107c8.213 12.771 36.475 11.277 55.779 4.376 45.134-16.138 74.018-73.539 76.56-119.215.545-9.808.2-19.396 2.187-19.687 5-.736 17.84 58.564 27.918 108.838 8.102 2.966 20.386 6.115 34.423 3.815 22.975-3.763 25.71-18.037 51.405-27.344 14.992-5.43 29.681-5.442 59.06-5.468 33.166-.029 34.079 4.062 40.467 1.094 11.821-5.49 25.746-27.417-44.573-299.806-4.622-17.904-12.413-46.529-34.184-54.861-17.832-6.825-40.756 5.875-85.877 31.552-22.547 12.831-47.743 27.353-77.306 53.173-20.137 17.588-34.156 29.831-45.706 46.825-46.575 68.527 7.252 125.638-34.999 213.274-14.526 30.133-33.754 50.062-25.154 63.434z"/><linearGradient id="W" gradientUnits="userSpaceOnUse" x1="2358.066" y1="2579.945" x2="2443.375" y2="2342.063"><stop offset=".004" style="stop-color:#f36f56"/><stop offset="1" style="stop-color:#ffc444"/></linearGradient><path style="opacity:.3;fill:url(#W)" d="M2455.474 2550.33c-13.195-6.868-9.859-21.289-21.327-29.53-17.096-12.285-37.948 10.107-60.701 6.562-49.656-7.737-54.683-130.64-86.95-131.245-15.185-.286-29.828 26.69-34.452 47.576-8.09 36.549 22.888 52.854 18.046 98.434-.868 8.175-1.781 6.864-22.968 67.263a4715.417 4715.417 0 0 0-7.738 22.237c30.877-24.337 49.988-68.621 52.033-105.36.545-9.808.2-19.396 2.187-19.687 5-.736 17.84 58.564 27.918 108.838 8.102 2.966 20.386 6.115 34.423 3.815 22.975-3.763 25.71-18.037 51.405-27.344 14.992-5.43 29.681-5.442 59.06-5.468 33.166-.029 34.079 4.062 40.467 1.094 4.838-2.247 10.019-7.275 9.643-31.069-9.751-6.066-18.122-7.815-24.955-7.758-14.01.121-24.249 7.805-36.091 1.642z"/><linearGradient id="X" gradientUnits="userSpaceOnUse" x1="2316.049" y1="2339.927" x2="2316.049" y2="2245.183"><stop offset="0" style="stop-color:#ffc444"/><stop offset=".996" style="stop-color:#f36f56"/></linearGradient><path style="fill:url(#X)" d="M2284.305 2252.051s12.126 13.768 25.158 20.903c11.778 6.448 37.742-4.413 43.749-5.689 6.007-1.276-1.201 14.9-12.535 26.049-11.333 11.148-48.794 36.646-58.898 37.072-10.103.427 1.627-8.421 7.832-18.725 6.204-10.303-2.539-31.604-10.371-38.168-7.831-6.564 5.065-21.442 5.065-21.442z"/><path style="fill:#d8dee8" d="m2642.333 2303.181-256.011 194.581c-7.255 5.514-17.608 4.103-23.122-3.152-5.514-7.255-4.104-17.607 3.152-23.122l256.011-194.581c7.256-5.514 17.607-4.103 23.122 3.152 5.515 7.255 4.103 17.607-3.152 23.122zM2693.724 2222.669l-55.937 42.514-24.415-32.122 55.937-42.515a2.214 2.214 0 0 1 3.103.423l21.735 28.597c.74.974.551 2.363-.423 3.103z"/><path style="fill:#26264f" d="m1651.178 3000.573-23.872 18.144a6.107 6.107 0 0 1-8.558-1.167 6.107 6.107 0 0 1 1.167-8.559l23.872-18.144 7.391 9.726z"/><path style="fill:#d8dee8" d="M1633.697 3006.188a13.034 13.034 0 0 0 16.008 3.868l115.139-55.138-46.642-61.367-83.947 96.177a13.037 13.037 0 0 0-.558 16.46z"/><path style="fill:#fff" d="M1636.988 2996.961c1.025 1.349 5.369-.118 10.399-3.512l97.427-78.441-12.775-16.808-88.884 89.682c-4.616 3.937-7.192 7.73-6.167 9.079z"/><linearGradient id="Y" gradientUnits="userSpaceOnUse" x1="1536.494" y1="2803.58" x2="1609.309" y2="3074.753" gradientTransform="rotate(-37.238 1303.6 1882.599)"><stop offset="0" style="stop-color:#ffc444"/><stop offset=".996" style="stop-color:#f36f56"/></linearGradient><path style="fill:url(#Y)" d="m2652.645 2278.362-890.204 678.385c-16.946 12.88-63.588-48.488-46.642-61.368l890.204-678.385c10.109-7.683 24.532-5.716 32.216 4.392l18.819 24.761c7.682 10.109 5.715 24.532-4.393 32.215z"/><path style="fill:#fff" d="m2431.593 2390.291-699.625 533.534-10.992-14.462 699.624-533.535z"/><linearGradient id="Z" gradientUnits="userSpaceOnUse" x1="1891.542" y1="2975.758" x2="1901.786" y2="2975.758" gradientTransform="rotate(-37.238 1303.6 1882.599)"><stop offset="0" style="stop-color:#aa80f9"/><stop offset=".996" style="stop-color:#6165d7"/></linearGradient><path style="fill:url(#Z)" d="m2464.649 2421.633-8.155 6.197-46.828-61.611 8.154-6.198z"/><path transform="rotate(-37.234 2623.917 2251.764)" style="fill:#fff" d="M2618.94 2213.176h10.242v77.387h-10.242z"/><linearGradient id="aa" gradientUnits="userSpaceOnUse" x1="1536.267" y1="2802.731" x2="1609.259" y2="3074.565" gradientTransform="rotate(-37.238 1303.6 1882.599)"><stop offset=".004" style="stop-color:#f36f56"/><stop offset="1" style="stop-color:#ffc444"/></linearGradient><path style="opacity:.3;fill:url(#aa)" d="m2606.002 2216.994-426.204 325.721c-21.984 79.729-53.261 109.841-80.992 120.977-19.259 7.733-48.341 10.961-79.518 37.546-30.108 25.674-23.569 40.216-50.073 57.966-39.292 26.314-71.081 6.014-95.448 33.628-13.103 14.85-5.059 22.021-18.91 49.412-5.136 10.16-26.531 52.465-72.001 67.44-26.448 8.71-51.416 5.002-70.192-1.082 4.318 21.968 36.351 58.346 49.776 48.143l890.204-678.384c10.108-7.683 12.075-22.105 4.391-32.215l-18.819-24.761c-7.682-10.107-22.105-12.074-32.214-4.391z"/><linearGradient id="ab" gradientUnits="userSpaceOnUse" x1="2134.526" y1="2654.001" x2="2177.238" y2="2654.001"><stop offset="0" style="stop-color:#ffc444"/><stop offset=".996" style="stop-color:#f36f56"/></linearGradient><path style="fill:url(#ab)" d="M2177.238 2640.647s-17.423 8.323-29.754 10.065c-12.331 1.743-15.011 11.592-11.588 15.212 3.422 3.619 23.045-.344 29.608-4.035 6.562-3.692 11.734-21.242 11.734-21.242z"/><linearGradient id="ac" gradientUnits="userSpaceOnUse" x1="2464.456" y1="2425.172" x2="2516.55" y2="2425.172"><stop offset="0" style="stop-color:#ffc444"/><stop offset=".996" style="stop-color:#f36f56"/></linearGradient><path style="fill:url(#ac)" d="M2516.55 2421.135s-13.669-2.05-20.352 4.512c-6.682 6.562-23.99 16.025-31.742 12.729l25.85-19.647 26.244-7.437v9.843z"/><path style="fill:#fff" d="M2511.254 2425.647c9.962-.34 50.61-2.854 80.934-34.999 30.71-32.552 42.502-86.657 19.687-123.591-18.216-29.49-51.762-37.131-86.126-44.958-44.823-10.21-80.023-2.455-94.088 1.355-23.931 6.482-60.91 16.5-64.877 38.635-4.384 24.465 32.16 60.38 67.744 62.134 35.914 1.772 55.127-32.025 87.607-21.76 2.204.697 17.796 5.859 25.123 19.688 11.564 21.829-1.535 57.569-35.686 86.208l-.318 17.288z"/><linearGradient id="ad" gradientUnits="userSpaceOnUse" x1="8560.322" y1="5668.076" x2="8657.148" y2="5706.114" gradientTransform="rotate(-28.49 1064.488 -2455.28)"><stop offset="0" style="stop-color:#893976"/><stop offset="1" style="stop-color:#311944"/></linearGradient><path style="fill:url(#ad)" d="M2256.443 2262.822c-6.598-3.104-11.036-13.845-7.776-21.979 2.419-6.037 8.22-8.499 12.449-10.294 1.957-.831 15.803-6.513 24.684.585 2.822 2.256 5.024 6.279 5.719 10.079.357 1.956.376 4.649.041 10.014-.298 4.76-.21 4.552-.334 5.958-.297 3.378-1.218 9.319-4.511 17.554a42.895 42.895 0 0 0-5.481-5.07c-.882-.681-4.373-3.319-8.341-4.918-8.058-3.246-11.292.498-16.45-1.929z"/><linearGradient id="ae" gradientUnits="userSpaceOnUse" x1="2249.079" y1="2312.622" x2="2293.375" y2="2226.492"><stop offset="0" style="stop-color:#ffc444"/><stop offset=".996" style="stop-color:#f36f56"/></linearGradient><path style="fill:url(#ae)" d="M2291.743 2265.56s-.613 13.165-13.018 18.945c-11.107 5.175-25.849-18.015-21.793-26.871 1.352-2.954 5.542-6.167 9.836-7.163 2.535-.588 3.78-.081 7.904-1.122 3.803-.96 4.543-1.845 6.012-1.549 1.837.37 4.179 2.46 5.93 10.642.911-3.193 2.932-5.333 5.122-5.465.349-.021 1.36.077 2.19.609 3.003 1.926 2.416 6.808-2.183 11.974z"/><linearGradient id="af" gradientUnits="userSpaceOnUse" x1="2284.809" y1="2275.475" x2="2314.779" y2="2298.529"><stop offset="0" style="stop-color:#893976"/><stop offset="1" style="stop-color:#311944"/></linearGradient><path style="fill:url(#af)" d="M2285.285 2251.174s1.106 10.797 0 14.274c-1.106 3.476-5.68 8.249-12.796 8.944-7.116.695-11.799 0-11.799 0s5.315 12.39 7.527 12.863c2.212.474 15.766-.172 18.233-2.456 2.468-2.285 5.5-12.269 4.774-16.679-.726-4.411-4.774-14.393-4.774-14.393l-1.165-2.553z"/><path style="fill:#d8dee8" d="M1178.72 2919.939c12.149 6.168 27.412.504 34.091-12.65 6.679-13.155 2.245-28.82-9.905-34.988a23.425 23.425 0 0 0-1.915-.845 154.184 154.184 0 0 0 5.1-21.954 24.08 24.08 0 0 0 2.105-.077c13.861-1.235 24.862-13.972 24.572-28.449-.29-14.477-11.762-25.211-25.623-23.975-.724.065-1.436.179-2.144.305a141.386 141.386 0 0 0-5.934-20.965 26.888 26.888 0 0 0 1.892-1.193c11.858-8.308 15.65-24.706 8.468-36.625-7.182-11.92-22.617-14.847-34.476-6.539a27.66 27.66 0 0 0-1.745 1.352 125.206 125.206 0 0 0-15.379-14.356c.391-.641.773-1.29 1.119-1.971 6.679-13.155 15.407-27.525 3.162-33.502-28.324-13.828-40.479-1.991-47.158 11.164a29.388 29.388 0 0 0-.931 2.067 125.236 125.236 0 0 0-20.665-3.945c.043-.731.077-1.465.062-2.206-.291-14.476 4.005-22.311-9.908-22.581-30.34-.59-40.576 12.579-40.286 27.055.016.757.078 1.496.154 2.231a141.284 141.284 0 0 0-20.428 7.581 24.874 24.874 0 0 0-1.019-1.911c-7.181-11.919-22.617-14.846-34.476-6.538-11.859 8.309-15.65 24.706-8.468 36.625.368.611.771 1.182 1.18 1.746a154.01 154.01 0 0 0-14.714 17.073 23.245 23.245 0 0 0-1.813-1.049c-12.149-6.168-27.412-.504-34.091 12.65s-2.245 28.819 9.904 34.988c.629.32 1.272.588 1.917.845a154.188 154.188 0 0 0-5.101 21.954 24.85 24.85 0 0 0-2.104.077c-13.862 1.236-24.863 13.972-24.573 28.45.29 14.477 11.763 25.211 25.624 23.975a24.553 24.553 0 0 0 2.143-.304 141.42 141.42 0 0 0 5.934 20.965 27.5 27.5 0 0 0-1.892 1.193c-11.858 8.308-15.649 24.706-8.468 36.625 7.181 11.92 30.958 17.457 42.817 9.149.608-.426-7.162-3.495-6.597-3.962a125.201 125.201 0 0 0 15.379 14.356c-.39.641-.773 1.29-1.119 1.971-6.679 13.155-2.245 28.819 9.905 34.988 12.149 6.168 27.412.504 34.092-12.65.346-.682.644-1.374.931-2.067a125.197 125.197 0 0 0 20.665 3.945 27.862 27.862 0 0 0-.063 2.206c.29 14.476 11.763 25.21 25.623 23.975 13.86-1.236 24.862-13.973 24.572-28.449a26.739 26.739 0 0 0-.154-2.231 141.24 141.24 0 0 0 20.428-7.581c.316.646.644 1.288 1.019 1.911 7.182 11.919 22.617 14.847 34.476 6.538 11.859-8.309 15.651-24.706 8.469-36.626a24.774 24.774 0 0 0-1.18-1.745 154.01 154.01 0 0 0 14.714-17.073c.587.367 1.183.727 1.812 1.047zm-151.449 1.922c-44.111-22.396-60.211-79.271-35.96-127.033 24.25-47.763 79.667-68.327 123.778-45.931 44.11 22.396 60.21 79.27 35.961 127.033-24.252 47.763-79.669 68.327-123.779 45.931z"/><path style="fill:#d8dee8" d="M1208.197 2849.425c13.861-1.236 24.862-13.973 24.572-28.45-.29-14.477-11.762-25.211-25.623-23.975-.724.064-1.436.179-2.144.304a141.265 141.265 0 0 0-5.934-20.965 26.527 26.527 0 0 0 1.892-1.193c11.858-8.308 26.53-28.383 18.163-39.502-15.88-21.105-32.313-11.97-44.171-3.662-.608.426-1.18.885-1.744 1.352a125.193 125.193 0 0 0-15.379-14.355c.391-.641.773-1.29 1.119-1.971 3.635-7.159 3.956-15.053 1.555-21.764-11.454 20.16-22.754 40.405-33.851 60.759 35.19 25.786 46.393 76.603 24.397 119.927-18.639 36.712-55.692 57.327-91.87 54.744-1.614 4.186-3.198 8.394-4.927 12.539-4.69 11.249-10.018 22.265-15.352 33.268 3.355.632 6.725 1.13 10.104 1.484a27.876 27.876 0 0 0-.063 2.206c.29 14.477 9.079 26.777 34.201 25.444 13.896-.737 16.284-15.442 15.994-29.919a27.15 27.15 0 0 0-.153-2.23 141.228 141.228 0 0 0 20.427-7.581c.316.646.644 1.287 1.02 1.91 7.182 11.92 32.096 16.984 43.955 8.676 11.859-8.309 6.171-26.843-1.011-38.763a24.774 24.774 0 0 0-1.18-1.745 154.09 154.09 0 0 0 14.714-17.072 22.92 22.92 0 0 0 1.813 1.048c12.149 6.169 27.412.505 34.092-12.65 6.679-13.154 2.245-28.82-9.904-34.988a23.106 23.106 0 0 0-1.916-.845 154.202 154.202 0 0 0 5.1-21.953 25.326 25.326 0 0 0 2.104-.078z"/><path style="fill:#fff" d="M1191.787 2921.425c12.149 6.168 27.412.504 34.092-12.651 6.679-13.155 2.245-28.819-9.905-34.988a22.96 22.96 0 0 0-1.916-.845 154.188 154.188 0 0 0 5.101-21.954 24.436 24.436 0 0 0 2.104-.076c13.861-1.236 24.862-13.973 24.572-28.45-.291-14.477-11.762-25.211-25.623-23.976-.725.065-1.436.179-2.144.306a141.278 141.278 0 0 0-5.934-20.966 27.26 27.26 0 0 0 1.892-1.193c11.858-8.308 15.65-24.706 8.468-36.626-7.182-11.919-22.617-14.846-34.476-6.538-.608.426-1.18.886-1.744 1.352a125.278 125.278 0 0 0-15.379-14.356c.391-.64.774-1.29 1.12-1.971 6.679-13.155 2.244-28.82-9.905-34.988-12.149-6.169-27.412-.505-34.091 12.65a29.366 29.366 0 0 0-.931 2.066 125.245 125.245 0 0 0-20.664-3.945 28.35 28.35 0 0 0 .062-2.206c-.29-14.477-11.762-25.211-25.624-23.975-13.861 1.235-24.862 13.973-24.571 28.449.015.757.078 1.496.153 2.231a141.284 141.284 0 0 0-20.428 7.581 25.252 25.252 0 0 0-1.019-1.911c-7.181-11.92-22.617-14.847-34.476-6.538-11.859 8.309-15.649 24.707-8.469 36.626.368.61.771 1.182 1.181 1.745a154.123 154.123 0 0 0-14.715 17.073 23.245 23.245 0 0 0-1.813-1.049c-12.149-6.168-27.412-.505-34.091 12.65-6.679 13.155-2.245 28.82 9.904 34.988.629.32 1.272.588 1.916.845a154.048 154.048 0 0 0-5.1 21.954 24.87 24.87 0 0 0-2.105.076c-13.861 1.237-24.862 13.974-24.572 28.45.29 14.477 11.762 25.211 25.623 23.975a24.885 24.885 0 0 0 2.143-.304 141.302 141.302 0 0 0 5.935 20.965c-.638.373-1.272.758-1.892 1.193-11.858 8.308-15.649 24.706-8.468 36.625 7.182 11.92 22.617 14.847 34.476 6.539.608-.426 1.18-.886 1.744-1.353a125.201 125.201 0 0 0 15.379 14.356c-.391.641-.774 1.29-1.119 1.971-6.68 13.155-2.245 28.819 9.904 34.988 12.149 6.168 27.412.504 34.091-12.651a28.54 28.54 0 0 0 .931-2.067 125.236 125.236 0 0 0 20.665 3.945 27.863 27.863 0 0 0-.062 2.206c.291 14.476 11.762 25.211 25.623 23.975 13.861-1.236 24.862-13.973 24.572-28.449a27.175 27.175 0 0 0-.153-2.231 141.24 141.24 0 0 0 20.428-7.581c.316.645.644 1.287 1.019 1.91 7.182 11.92 22.617 14.847 34.476 6.539 11.859-8.309 15.651-24.706 8.469-36.626a24.523 24.523 0 0 0-1.18-1.744 154.024 154.024 0 0 0 14.714-17.073c.587.372 1.183.732 1.812 1.052zm-151.449 1.921c-44.111-22.396-60.21-79.27-35.96-127.033 24.25-47.763 79.667-68.326 123.778-45.93 44.11 22.396 60.21 79.27 35.961 127.033-24.252 47.763-79.668 68.326-123.779 45.93z"/><path style="fill:#d8dee8" d="M1770.345 2763.138c26.169 13.286 59.046 1.087 73.431-27.249 14.386-28.335 4.835-62.076-21.334-75.363-1.355-.689-2.739-1.267-4.126-1.821 4.862-15.678 8.527-31.48 10.986-47.288 1.499-.004 3.005-.03 4.534-.166 29.855-2.662 53.551-30.096 52.927-61.279-.625-31.183-25.335-54.304-55.191-51.643-1.561.14-3.094.386-4.618.657a304.415 304.415 0 0 0-12.782-45.158c1.373-.804 2.739-1.634 4.074-2.569 25.543-17.895 33.71-53.216 18.241-78.889-15.47-25.674-48.718-31.979-74.26-14.084-1.309.917-2.54 1.908-3.757 2.913a269.725 269.725 0 0 0-33.126-30.922c.841-1.38 1.665-2.778 2.411-4.246 14.387-28.335 33.186-59.287 6.812-72.162-61.01-29.783-87.19-4.288-101.578 24.048-.745 1.468-1.387 2.958-2.005 4.451a269.962 269.962 0 0 0-44.512-8.497c.094-1.575.167-3.153.135-4.752-.626-31.181 8.627-48.056-21.342-48.638-65.351-1.271-87.401 27.095-86.776 58.276.033 1.63.17 3.223.33 4.806a304.35 304.35 0 0 0-44 16.328c-.681-1.391-1.387-2.774-2.195-4.116-15.469-25.674-48.716-31.979-74.261-14.083-25.544 17.896-33.709 53.216-18.24 78.889.792 1.316 1.661 2.545 2.542 3.759-11.312 11.313-21.905 23.597-31.693 36.775-1.266-.795-2.55-1.571-3.906-2.259-26.169-13.286-59.045-1.087-73.431 27.248-14.387 28.335-4.835 62.077 21.333 75.362 1.355.689 2.74 1.267 4.128 1.821-4.861 15.679-8.528 31.48-10.986 47.288-1.5.004-3.005.029-4.532.164-29.858 2.663-53.553 30.097-52.928 61.28.626 31.183 25.336 54.303 55.192 51.642 1.559-.139 3.093-.385 4.616-.656a304.428 304.428 0 0 0 12.782 45.159c-1.373.803-2.739 1.634-4.074 2.569-25.543 17.895-33.709 53.216-18.24 78.89 15.469 25.674 66.683 37.602 92.225 19.707 1.309-.918-15.426-7.53-14.208-8.536a269.788 269.788 0 0 0 33.125 30.922c-.84 1.38-1.665 2.778-2.41 4.246-14.387 28.335-4.835 62.076 21.333 75.363 26.169 13.286 59.045 1.087 73.432-27.248.745-1.468 1.387-2.958 2.005-4.452a269.703 269.703 0 0 0 44.511 8.497c-.093 1.576-.166 3.154-.135 4.752.625 31.182 25.336 54.303 55.191 51.642 29.856-2.662 53.552-30.097 52.927-61.279-.033-1.629-.169-3.223-.331-4.806a304.262 304.262 0 0 0 44-16.328c.681 1.391 1.387 2.773 2.195 4.115 15.469 25.674 48.716 31.98 74.26 14.084 25.544-17.897 33.71-53.216 18.241-78.891-.793-1.314-1.661-2.544-2.542-3.758 11.312-11.313 21.905-23.597 31.694-36.774 1.267.795 2.551 1.571 3.906 2.259zm-326.217 4.139c-95.013-48.24-129.692-170.745-77.458-273.625 52.234-102.88 171.601-147.173 266.613-98.933 95.012 48.24 129.691 170.745 77.459 273.625-52.235 102.88-171.602 147.173-266.614 98.933z"/><path style="fill:#d8dee8" d="M1833.836 2611.253c29.855-2.662 53.551-30.097 52.927-61.28-.625-31.183-25.335-54.304-55.191-51.642-1.561.139-3.094.386-4.618.656a304.226 304.226 0 0 0-12.782-45.158c1.373-.802 2.739-1.634 4.074-2.57 25.543-17.894 57.145-61.135 39.124-85.086-34.203-45.458-69.6-25.782-95.143-7.886-1.309.917-2.54 1.907-3.756 2.912a269.884 269.884 0 0 0-33.127-30.922c.841-1.38 1.665-2.777 2.411-4.245 7.83-15.422 8.521-32.424 3.349-46.879-24.672 43.423-49.011 87.03-72.914 130.873 75.798 55.543 99.929 165 52.55 258.318-40.149 79.078-119.958 123.481-197.886 117.917-3.476 9.015-6.889 18.079-10.612 27.008-10.101 24.229-21.577 47.959-33.068 71.657a268.01 268.01 0 0 0 21.763 3.197c-.093 1.576-.166 3.155-.135 4.753.625 31.182 19.557 57.676 73.667 54.805 29.932-1.587 35.075-33.26 34.451-64.443-.033-1.629-.169-3.223-.331-4.805a304.423 304.423 0 0 0 44-16.328c.681 1.391 1.387 2.773 2.196 4.114 15.47 25.675 69.134 36.583 94.678 18.687 25.544-17.897 13.292-57.819-2.177-83.493-.793-1.315-1.661-2.545-2.542-3.759 11.312-11.312 21.905-23.597 31.694-36.773 1.266.795 2.55 1.571 3.906 2.257 26.169 13.288 59.046 1.087 73.432-27.248 14.385-28.334 4.834-62.077-21.334-75.363-1.355-.688-2.74-1.267-4.127-1.82 4.862-15.678 8.527-31.481 10.986-47.287 1.5-.006 3.006-.031 4.535-.167z"/><linearGradient id="ag" gradientUnits="userSpaceOnUse" x1="1432.253" y1="2400.49" x2="1862.047" y2="2987.102"><stop offset=".004" style="stop-color:#e38ddd"/><stop offset="1" style="stop-color:#9571f6"/></linearGradient><path style="fill:url(#ag)" d="M1798.491 2766.339c26.169 13.286 59.045 1.087 73.432-27.249 14.386-28.335 4.834-62.076-21.334-75.362-1.355-.688-2.739-1.267-4.127-1.82 4.861-15.679 8.527-31.48 10.986-47.289 1.5-.004 3.005-.029 4.534-.165 29.856-2.662 53.552-30.096 52.927-61.279-.626-31.183-25.336-54.304-55.192-51.643-1.561.14-3.093.386-4.617.657a304.502 304.502 0 0 0-12.782-45.158c1.373-.804 2.739-1.634 4.075-2.57 25.543-17.895 33.71-53.215 18.241-78.889-15.469-25.674-48.717-31.979-74.26-14.084-1.309.917-2.541 1.908-3.757 2.913a269.717 269.717 0 0 0-33.126-30.921c.841-1.38 1.665-2.778 2.412-4.246 14.386-28.335 4.834-62.076-21.334-75.363-26.169-13.287-59.045-1.087-73.431 27.249-.745 1.468-1.388 2.958-2.006 4.452a269.751 269.751 0 0 0-44.51-8.497c.093-1.575.165-3.153.133-4.752-.626-31.181-25.335-54.302-55.191-51.641-29.856 2.661-53.552 30.097-52.927 61.278.033 1.63.17 3.223.33 4.805a304.354 304.354 0 0 0-44 16.329c-.68-1.391-1.386-2.773-2.195-4.116-15.469-25.673-48.716-31.979-74.26-14.082-25.544 17.897-33.709 53.216-18.24 78.889.793 1.315 1.661 2.545 2.542 3.759-11.311 11.313-21.906 23.597-31.695 36.775-1.265-.795-2.549-1.571-3.905-2.259-26.169-13.286-59.045-1.087-73.431 27.249-14.387 28.335-4.835 62.076 21.333 75.363 1.356.689 2.74 1.267 4.128 1.82-4.862 15.679-8.528 31.48-10.986 47.288-1.499.005-3.005.03-4.533.165-29.856 2.663-53.553 30.097-52.927 61.281.625 31.182 25.335 54.302 55.191 51.641 1.56-.139 3.093-.384 4.616-.656a304.515 304.515 0 0 0 12.782 45.159c-1.373.803-2.74 1.633-4.074 2.569-25.544 17.894-33.71 53.215-18.241 78.889 15.469 25.674 48.717 31.979 74.259 14.084 1.309-.918 2.541-1.908 3.758-2.913a269.86 269.86 0 0 0 33.125 30.922c-.84 1.38-1.665 2.778-2.41 4.246-14.387 28.335-4.835 62.076 21.333 75.363 26.169 13.286 59.045 1.087 73.432-27.249.745-1.467 1.387-2.958 2.005-4.452a269.754 269.754 0 0 0 44.512 8.497c-.093 1.576-.166 3.154-.135 4.752.626 31.181 25.336 54.303 55.192 51.642 29.856-2.662 53.552-30.098 52.926-61.279-.032-1.63-.168-3.223-.33-4.806a304.306 304.306 0 0 0 44-16.328c.68 1.39 1.388 2.773 2.195 4.114 15.469 25.674 48.717 31.98 74.26 14.084 25.544-17.896 33.711-53.215 18.242-78.891-.793-1.314-1.661-2.544-2.543-3.758 11.311-11.312 21.905-23.596 31.694-36.774 1.264.793 2.548 1.568 3.904 2.257zm-326.217 4.139c-95.012-48.24-129.692-170.745-77.458-273.625 52.235-102.879 171.6-147.173 266.613-98.932 95.012 48.24 129.691 170.745 77.458 273.625-52.235 102.879-171.6 147.172-266.613 98.932z"/></svg>