<svg xmlns="http://www.w3.org/2000/svg" viewBox="0 0 500 500"><path style="fill:#ebebeb" d="M416.78 398.49h33.12v.25h-33.12zM322.53 401.21h8.69v.25h-8.69zM396.59 389.21h19.19v.25h-19.19zM52.46 390.89h43.19v.25H52.46zM104.56 390.89h6.33v.25h-6.33zM131.47 395.11h93.68v.25h-93.68zM237 337.8H43.92a5.71 5.71 0 0 1-5.71-5.71V60.66A5.71 5.71 0 0 1 43.92 55H237a5.71 5.71 0 0 1 5.71 5.71v271.38a5.71 5.71 0 0 1-5.71 5.71ZM43.92 55.2a5.47 5.47 0 0 0-5.46 5.46v271.43a5.47 5.47 0 0 0 5.46 5.46H237a5.47 5.47 0 0 0 5.46-5.46V60.66A5.47 5.47 0 0 0 237 55.2ZM453.31 337.8h-193.1a5.72 5.72 0 0 1-5.71-5.71V60.66a5.72 5.72 0 0 1 5.71-5.66h193.1a5.71 5.71 0 0 1 5.69 5.66v271.43a5.71 5.71 0 0 1-5.69 5.71ZM260.21 55.2a5.47 5.47 0 0 0-5.46 5.46v271.43a5.47 5.47 0 0 0 5.46 5.46h193.1a5.47 5.47 0 0 0 5.46-5.46V60.66a5.47 5.47 0 0 0-5.46-5.46ZM0 382.4h500v.25H0z"/><path style="fill:#ebebeb" d="M291.96 94.67h124.79v132.89H291.96z"/><path style="fill:#f5f5f5" d="M299.46 102.17h109.79v117.89H299.46z"/><path style="fill:#fafafa" d="M342.55 220.06h33l30.98-117.89h-33l-30.98 117.89zM358.2 102.17l-30.98 117.89h8l30.98-117.89h-8z"/><path style="fill:#f5f5f5" d="M418.32 100.92H290.38l-2.7-6.3h133.34l-2.7 6.3z"/><path style="fill:#f0f0f0" d="M418.32 104.57H290.38l-2.7-6.3h133.34l-2.7 6.3z"/><path style="fill:#e6e6e6" d="M418.32 108.22H290.38l-2.7-6.3h133.34l-2.7 6.3z"/><path style="fill:#e0e0e0" d="M418.32 111.87H290.38l-2.7-6.3h133.34l-2.7 6.3zM283.03 86.73h142.65v8.4H283.03zM284.49 171.29a1.45 1.45 0 0 1-1.45-1.45v-49a1.45 1.45 0 0 1 1.45-1.45 1.45 1.45 0 0 1 1.45 1.45v49a1.45 1.45 0 0 1-1.45 1.45Z"/><path style="fill:#e0e0e0" d="M283.96 93.45h1.05v29.1h-1.05zM88.72 92.1h1.8v140.37h-1.8zM200.77 92.1h1.8v140.37h-1.8z"/><path style="fill:#f5f5f5" d="M209.63 100.92H81.67l-2.7-6.3h133.35l-2.69 6.3zM209.63 109.57H81.67l-2.7-6.3h133.35l-2.69 6.3zM209.63 118.22H81.67l-2.7-6.3h133.35l-2.69 6.3zM209.63 126.87H81.67l-2.7-6.3h133.35l-2.69 6.3zM209.63 135.52H81.67l-2.7-6.3h133.35l-2.69 6.3zM209.63 144.17H81.67l-2.7-6.3h133.35l-2.69 6.3zM209.63 152.82H81.67l-2.7-6.3h133.35l-2.69 6.3zM209.63 161.47H81.67l-2.7-6.3h133.35l-2.69 6.3zM209.63 170.12H81.67l-2.7-6.3h133.35l-2.69 6.3zM209.63 178.77H81.67l-2.7-6.3h133.35l-2.69 6.3zM209.63 187.42H81.67l-2.7-6.3h133.35l-2.69 6.3zM209.63 196.06H81.67l-2.7-6.3h133.35l-2.69 6.3zM209.63 204.72H81.67l-2.7-6.31h133.35l-2.69 6.31zM209.63 213.36H81.67l-2.7-6.3h133.35l-2.69 6.3zM209.63 222.01H81.67l-2.7-6.3h133.35l-2.69 6.3zM209.63 230.66H81.67l-2.7-6.3h133.35l-2.69 6.3z"/><path style="fill:#e0e0e0" d="M78.97 230.66h133.35v3.6H78.97zM74.32 86.73h142.65v8.4H74.32zM75.79 171.29a1.45 1.45 0 0 1-1.45-1.45v-49a1.45 1.45 0 0 1 1.45-1.45 1.45 1.45 0 0 1 1.45 1.45v49a1.45 1.45 0 0 1-1.45 1.45Z"/><path style="fill:#e0e0e0" d="M75.26 93.45h1.05v29.1h-1.05z"/><path d="M89.32 322.38c-.12.13.55 1.07-2.19.66-6.75-1-18.5-3.75-21.77-10.69-4.67-9.91 9.81-6.29 9.31-11.36s-17-4.19-18.73-11.62 9.43-3.89 9.58-7.51-12.73-1.38-15.29-9.4 7.18-2.11 6.06-5.45-12-18.41-6.09-20.16 15.92 13.72 19.8 15.91 7.28-10.44 11.88-5.1-2.7 24 3.16 27.61c4.37 2.7 3.14-4.73 8.9-3.34 7.79 1.88 5.16 29.51-4.62 40.45Z" style="fill:#ebebeb"/><path d="M68.49 281.9a23.39 23.39 0 0 1 5.83 1.19 45.59 45.59 0 0 0-4.15-5.33.5.5 0 0 1 .71-.7 58.8 58.8 0 0 1 8.31 12.06c2.13-12.79-3.23-24-3.29-24.08a.38.38 0 0 1 .68-.33c.06.12 5.77 12.05 3.18 25.47.69 1.31 1.39 2.72 2.07 4.23a94.8 94.8 0 0 1 5.71 16.72 34.44 34.44 0 0 0 4-15.27.37.37 0 0 1 .38-.36.38.38 0 0 1 .37.39 34.57 34.57 0 0 1-4.47 16.29 116.42 116.42 0 0 1 2.53 34.45.5.5 0 0 1-.53.47h-.06a.49.49 0 0 1-.4-.53c1.23-18-1.45-32.41-5.17-43.35a13.74 13.74 0 0 0-8-4.55.39.39 0 0 1-.31-.43.37.37 0 0 1 .42-.32 14.19 14.19 0 0 1 7.28 3.62 83.6 83.6 0 0 0-8.52-17.33 20.77 20.77 0 0 0-6.63-1.56.38.38 0 0 1-.35-.4.37.37 0 0 1 .41-.35Z" style="fill:#f5f5f5"/><path d="M98 326.21c5.61.1 15.19-5.11 19-10.17s-6.92-2-5.82-6 14.34-1.05 16.78-6.84-7.1-4.45-6.72-7.41 10.27-2.35 13.44-8.5-5.52-2.7-4.16-5.25 12.27-13.27 7.71-15.5-14.79 8.93-18.21 10.18-4.23-6.47-8.69-2.78-1.12 19.81-6.36 21.94c-3.91 1.59-2.25-5.8-6.75-3.93-7.96 3.27-2.53 34.21-.22 34.26Z" style="fill:#e0e0e0"/><g style="opacity:.30000000000000004"><path d="M98 326.21c5.61.1 15.19-5.11 19-10.17s-6.92-2-5.82-6 14.34-1.05 16.78-6.84-7.1-4.45-6.72-7.41 10.27-2.35 13.44-8.5-5.52-2.7-4.16-5.25 12.27-13.27 7.71-15.5-14.79 8.93-18.21 10.18-4.23-6.47-8.69-2.78-1.12 19.81-6.36 21.94c-3.91 1.59-2.25-5.8-6.75-3.93-7.96 3.27-2.53 34.21-.22 34.26Z" style="fill:#e0e0e0"/></g><path d="M99.82 319.48a.38.38 0 0 1-.2-.17 29.47 29.47 0 0 1-2.52-15 .38.38 0 1 1 .75.06 30 30 0 0 0 2.27 14.28 115.29 115.29 0 0 1 8.54-18.06c-1-12 5.18-21.9 5.24-22a.37.37 0 1 1 .63.4 39 39 0 0 0-5.19 20.44 104.79 104.79 0 0 1 14.34-19.17.5.5 0 1 1 .7.71 97.48 97.48 0 0 0-10.95 13.84 29.62 29.62 0 0 1 10.57-1.9.38.38 0 0 1 .36.39.37.37 0 0 1-.37.36 28.81 28.81 0 0 0-11.31 2.21 120 120 0 0 0-6.1 10.49 12.67 12.67 0 0 1 10.46-1.84.38.38 0 0 1 .27.46.37.37 0 0 1-.46.26 12.1 12.1 0 0 0-11.06 2.68A101.71 101.71 0 0 0 95 349a.5.5 0 0 1-.5.48.5.5 0 0 1-.5-.48 98.68 98.68 0 0 1 5.82-29.52Z" style="fill:#f5f5f5"/><path d="M82.19 381c-5.35-10.06-8.87-24.6-8.87-31a17.8 17.8 0 0 1 6.54-13.61h27.41a17.8 17.8 0 0 1 6.54 13.61c0 6.38-3.52 20.92-8.87 31Z" style="fill:#f0f0f0"/><ellipse cx="245.18" cy="412.39" rx="193.89" ry="11.32" style="fill:#f5f5f5"/><path d="M292.65 119.64h-24a3.5 3.5 0 0 0-3.34 2.73l-.16.75a8.5 8.5 0 0 1-8.14 6.65h-22.8a6.85 6.85 0 0 1-7-6.65v-.75a2.8 2.8 0 0 0-2.86-2.73h-24a16.12 16.12 0 0 0-15.75 14.48l-19.26 220.54a13.06 13.06 0 0 0 13.21 14.49h92.27a16.13 16.13 0 0 0 15.75-14.49l19.3-220.54a13.06 13.06 0 0 0-13.22-14.48Z" style="fill:#7000ff"/><path d="M292.65 119.64h-24a3.5 3.5 0 0 0-3.34 2.73l-.16.75a8.5 8.5 0 0 1-8.14 6.65h-22.8a6.85 6.85 0 0 1-7-6.65v-.75a2.8 2.8 0 0 0-2.86-2.73h-24a16.12 16.12 0 0 0-15.75 14.48l-19.26 220.54a13.06 13.06 0 0 0 13.21 14.49h92.27a16.13 16.13 0 0 0 15.75-14.49l19.3-220.54a13.06 13.06 0 0 0-13.22-14.48Z" style="fill:#fff;opacity:.7000000000000001"/><path d="M283.3 221.08h-49a2.91 2.91 0 0 1-2.94-3.22l3.69-42.19a3.58 3.58 0 0 1 3.5-3.22h49a2.9 2.9 0 0 1 2.94 3.22l-3.69 42.19a3.59 3.59 0 0 1-3.5 3.22ZM267 353h-82a7.21 7.21 0 0 1-7.3-8 8.91 8.91 0 0 1 8.7-8h82a7.21 7.21 0 0 1 7.3 8 8.9 8.9 0 0 1-8.7 8ZM273.53 160.85H198.3a4 4 0 0 1-4.09-4.49l.61-7a5 5 0 0 1 4.88-4.48h75.23a4.05 4.05 0 0 1 4.1 4.48l-.62 7a5 5 0 0 1-4.88 4.49ZM288.83 149.12a1.39 1.39 0 0 1-1.36 1.25 1.13 1.13 0 0 1-1.14-1.25 1.38 1.38 0 0 1 1.36-1.24 1.12 1.12 0 0 1 1.14 1.24ZM288.5 152.86a1.38 1.38 0 0 1-1.35 1.25 1.13 1.13 0 0 1-1.14-1.25 1.38 1.38 0 0 1 1.35-1.25 1.13 1.13 0 0 1 1.14 1.25ZM288.18 156.59a1.39 1.39 0 0 1-1.36 1.25 1.13 1.13 0 0 1-1.14-1.25 1.39 1.39 0 0 1 1.36-1.25 1.13 1.13 0 0 1 1.14 1.25ZM277.21 290.68h-91.53a2.9 2.9 0 0 1-2.94-3.22l4.26-48.15a3.58 3.58 0 0 1 3.5-3.22H282a2.9 2.9 0 0 1 2.93 3.22l-4.21 48.15a3.58 3.58 0 0 1-3.51 3.22ZM210.86 300.74h-28.5a.7.7 0 0 1-.71-.78.87.87 0 0 1 .85-.79H211a.7.7 0 0 1 .71.79.87.87 0 0 1-.85.78ZM246.48 300.74h-30.59a.7.7 0 0 1-.72-.78.87.87 0 0 1 .85-.79h30.6a.7.7 0 0 1 .71.79.87.87 0 0 1-.85.78ZM201 307.69h-19.24a.71.71 0 0 1-.72-.79.88.88 0 0 1 .85-.79h19.28a.72.72 0 0 1 .72.79.88.88 0 0 1-.89.79ZM237.64 307.69h-31.58a.71.71 0 0 1-.72-.79.88.88 0 0 1 .86-.79h31.57a.71.71 0 0 1 .72.79.87.87 0 0 1-.85.79ZM232.54 314.63h-51.39a.7.7 0 0 1-.72-.78.88.88 0 0 1 .86-.79h51.39a.72.72 0 0 1 .72.79.88.88 0 0 1-.86.78ZM241 314.63h-3.39a.7.7 0 0 1-.72-.78.87.87 0 0 1 .85-.79h3.4a.7.7 0 0 1 .71.79.87.87 0 0 1-.85.78ZM204.53 321.58h-24a.72.72 0 0 1-.72-.79.88.88 0 0 1 .86-.79h24a.71.71 0 0 1 .72.79.88.88 0 0 1-.86.79ZM239.44 321.58h-29.88a.72.72 0 0 1-.72-.79.88.88 0 0 1 .86-.79h29.87a.71.71 0 0 1 .72.79.88.88 0 0 1-.85.79ZM209.48 328.52h-29.55a.7.7 0 0 1-.71-.79.87.87 0 0 1 .85-.78h29.54a.7.7 0 0 1 .72.78.87.87 0 0 1-.85.79ZM238.3 328.52h-23.8a.7.7 0 0 1-.71-.79.87.87 0 0 1 .85-.78h23.8a.7.7 0 0 1 .72.78.88.88 0 0 1-.86.79Z" style="fill:#fff"/><path d="M282.14 217.08a1 1 0 0 1-1.42.09l-40.93-39.06a1 1 0 0 1 0-1.41 1 1 0 0 1 1.42-.09l40.93 39.06a1 1 0 0 1 0 1.41ZM236.17 217.07a1 1 0 0 1 .21-1.42l20.88-17.07a1 1 0 0 1 1.4.09 1 1 0 0 1-.21 1.41l-20.88 17.08a1 1 0 0 1-1.4-.09ZM263.15 195a1 1 0 0 1 .21-1.41l20.92-17.1a1 1 0 0 1 1.4.09 1 1 0 0 1-.21 1.41l-20.92 17.1a1 1 0 0 1-1.4-.09Z" style="fill:#7000ff"/><g style="opacity:.7000000000000001"><path d="M282.14 217.08a1 1 0 0 1-1.42.09l-40.93-39.06a1 1 0 0 1 0-1.41 1 1 0 0 1 1.42-.09l40.93 39.06a1 1 0 0 1 0 1.41Z" style="fill:#fff"/></g><g style="opacity:.7000000000000001"><path d="M236.17 217.07a1 1 0 0 1 .21-1.42l20.88-17.07a1 1 0 0 1 1.4.09 1 1 0 0 1-.21 1.41l-20.88 17.08a1 1 0 0 1-1.4-.09Z" style="fill:#fff"/></g><g style="opacity:.7000000000000001"><path d="M263.15 195a1 1 0 0 1 .21-1.41l20.92-17.1a1 1 0 0 1 1.4.09 1 1 0 0 1-.21 1.41l-20.92 17.1a1 1 0 0 1-1.4-.09Z" style="fill:#fff"/></g><path d="M165.74 114.84h-13a4.76 4.76 0 0 0-4.74 4.76v13a4.76 4.76 0 0 0 4.76 4.76h13a4.76 4.76 0 0 0 4.76-4.76v-13a4.76 4.76 0 0 0-4.78-4.76Zm-6.47 4.6c1.95 0 3 1.59 3 3.54s-1.05 3.54-3 3.54-3-1.58-3-3.54 1.04-3.54 3-3.54Zm7.81 13.27h-15.63a.48.48 0 0 1-.34-.14l1-2.73a4.46 4.46 0 0 1 4.19-2.94h5.91a4.47 4.47 0 0 1 4.2 2.94l1 2.73a.46.46 0 0 1-.33.14Z" style="fill:#7000ff"/><path d="M165.74 114.84h-13a4.76 4.76 0 0 0-4.74 4.76v13a4.76 4.76 0 0 0 4.76 4.76h13a4.76 4.76 0 0 0 4.76-4.76v-13a4.76 4.76 0 0 0-4.78-4.76Zm-6.47 4.6c1.95 0 3 1.59 3 3.54s-1.05 3.54-3 3.54-3-1.58-3-3.54 1.04-3.54 3-3.54Zm7.81 13.27h-15.63a.48.48 0 0 1-.34-.14l1-2.73a4.46 4.46 0 0 1 4.19-2.94h5.91a4.47 4.47 0 0 1 4.2 2.94l1 2.73a.46.46 0 0 1-.33.14Z" style="fill:#fff;opacity:.7000000000000001"/><path d="M119.66 168.12h-9.84a6.4 6.4 0 0 0-6.41 6.4v9.84a6.41 6.41 0 0 0 6.41 6.41h9.84a6.4 6.4 0 0 0 6.4-6.41v-9.84a6.39 6.39 0 0 0-6.4-6.4Zm-4.92 16.69s-4-4.39-4-6.63a4 4 0 0 1 8.09 0c-.05 2.24-4.09 6.63-4.09 6.63Z" style="fill:#7000ff"/><path d="M114.74 176.34a1.85 1.85 0 1 0 1.84 1.84 1.84 1.84 0 0 0-1.84-1.84Z" style="fill:#7000ff"/><g style="opacity:.7000000000000001"><path d="M119.66 168.12h-9.84a6.4 6.4 0 0 0-6.41 6.4v9.84a6.41 6.41 0 0 0 6.41 6.41h9.84a6.4 6.4 0 0 0 6.4-6.41v-9.84a6.39 6.39 0 0 0-6.4-6.4Zm-4.92 16.69s-4-4.39-4-6.63a4 4 0 0 1 8.09 0c-.05 2.24-4.09 6.63-4.09 6.63Z" style="fill:#fff"/><path d="M114.74 176.34a1.85 1.85 0 1 0 1.84 1.84 1.84 1.84 0 0 0-1.84-1.84Z" style="fill:#fff"/></g><path style="fill:#7000ff" d="m335.7 140.23 6.59-4.26-6.59-4.27v8.53z"/><path d="M344.19 124.34h-12.56a5.35 5.35 0 0 0-5.35 5.35v12.56a5.36 5.36 0 0 0 5.35 5.35h12.56a5.35 5.35 0 0 0 5.35-5.35v-12.56a5.34 5.34 0 0 0-5.35-5.35Zm-6.28 20a8.37 8.37 0 1 1 8.37-8.36 8.36 8.36 0 0 1-8.37 8.35Z" style="fill:#7000ff"/><g style="opacity:.7000000000000001"><path style="fill:#fff" d="m335.7 140.23 6.59-4.26-6.59-4.27v8.53z"/><path d="M344.19 124.34h-12.56a5.35 5.35 0 0 0-5.35 5.35v12.56a5.36 5.36 0 0 0 5.35 5.35h12.56a5.35 5.35 0 0 0 5.35-5.35v-12.56a5.34 5.34 0 0 0-5.35-5.35Zm-6.28 20a8.37 8.37 0 1 1 8.37-8.36 8.36 8.36 0 0 1-8.37 8.35Z" style="fill:#fff"/></g><path d="M356.52 172.51v-.77l1.51-.84a9.92 9.92 0 0 0-.56-2.09h-1.72a8.52 8.52 0 0 0-.78-1.34l.89-1.47a10.61 10.61 0 0 0-1.53-1.54l-1.48.89a8.84 8.84 0 0 0-1.33-.77v-1.73a10.89 10.89 0 0 0-2.09-.56l-.84 1.51h-1.54l-.84-1.51a11.29 11.29 0 0 0-2.09.56v1.73a8.37 8.37 0 0 0-1.33.77l-1.48-.89a10.19 10.19 0 0 0-1.54 1.54l.89 1.47a9.32 9.32 0 0 0-.77 1.34h-1.72a10.58 10.58 0 0 0-.57 2.09l1.51.84v1.54l-1.51.84a10.4 10.4 0 0 0 .57 2.09h1.72a9.32 9.32 0 0 0 .77 1.34l-.89 1.48a10.61 10.61 0 0 0 1.54 1.53l1.48-.89a7.67 7.67 0 0 0 1.33.77v1.73a10.56 10.56 0 0 0 2.09.56l.84-1.51h1.54l.84 1.51a10.2 10.2 0 0 0 2.09-.56v-1.73a8.06 8.06 0 0 0 1.33-.77l1.48.89a11.06 11.06 0 0 0 1.53-1.53l-.89-1.48a8.52 8.52 0 0 0 .78-1.34h1.72a9.76 9.76 0 0 0 .56-2.09l-1.51-.84c-.02-.28 0-.51 0-.77Zm-8.72 5.92a5.92 5.92 0 1 1 5.92-5.92 5.92 5.92 0 0 1-5.92 5.92Z" style="fill:#7000ff"/><path d="M356.52 172.51v-.77l1.51-.84a9.92 9.92 0 0 0-.56-2.09h-1.72a8.52 8.52 0 0 0-.78-1.34l.89-1.47a10.61 10.61 0 0 0-1.53-1.54l-1.48.89a8.84 8.84 0 0 0-1.33-.77v-1.73a10.89 10.89 0 0 0-2.09-.56l-.84 1.51h-1.54l-.84-1.51a11.29 11.29 0 0 0-2.09.56v1.73a8.37 8.37 0 0 0-1.33.77l-1.48-.89a10.19 10.19 0 0 0-1.54 1.54l.89 1.47a9.32 9.32 0 0 0-.77 1.34h-1.72a10.58 10.58 0 0 0-.57 2.09l1.51.84v1.54l-1.51.84a10.4 10.4 0 0 0 .57 2.09h1.72a9.32 9.32 0 0 0 .77 1.34l-.89 1.48a10.61 10.61 0 0 0 1.54 1.53l1.48-.89a7.67 7.67 0 0 0 1.33.77v1.73a10.56 10.56 0 0 0 2.09.56l.84-1.51h1.54l.84 1.51a10.2 10.2 0 0 0 2.09-.56v-1.73a8.06 8.06 0 0 0 1.33-.77l1.48.89a11.06 11.06 0 0 0 1.53-1.53l-.89-1.48a8.52 8.52 0 0 0 .78-1.34h1.72a9.76 9.76 0 0 0 .56-2.09l-1.51-.84c-.02-.28 0-.51 0-.77Zm-8.72 5.92a5.92 5.92 0 1 1 5.92-5.92 5.92 5.92 0 0 1-5.92 5.92Z" style="fill:#fff;opacity:.7000000000000001"/><path d="M333.73 202.24c0-.39 0-.77-.05-1.15l2.26-1.25a15.62 15.62 0 0 0-.84-3.14l-2.58.05a12.85 12.85 0 0 0-1.16-2l1.33-2.21a15.49 15.49 0 0 0-2.29-2.29l-2.21 1.32a13.65 13.65 0 0 0-2-1.15v-2.58a15.35 15.35 0 0 0-3.13-.84l-1.25 2.26h-2.3l-1.22-2.26a15.7 15.7 0 0 0-3.13.84v2.58a13.54 13.54 0 0 0-2 1.15l-2.16-1.32a15.56 15.56 0 0 0-2.3 2.29l1.33 2.21a12.8 12.8 0 0 0-1.15 2l-2.58-.05a15 15 0 0 0-.84 3.14l2.26 1.25a11.05 11.05 0 0 0 0 2.3l-2.26 1.26a15.05 15.05 0 0 0 .84 3.13l2.58-.05a12.36 12.36 0 0 0 1.15 2l-1.33 2.21a15.56 15.56 0 0 0 2.3 2.29l2.21-1.32a12.7 12.7 0 0 0 2 1.15v2.58a15.05 15.05 0 0 0 3.13.84l1.26-2.26a11.05 11.05 0 0 0 2.3 0l1.25 2.26a14.73 14.73 0 0 0 3.13-.84v-2.58a12.8 12.8 0 0 0 2-1.15l2.21 1.32a15.49 15.49 0 0 0 2.29-2.29l-1.33-2.21a12.41 12.41 0 0 0 1.16-2l2.58.05a15.7 15.7 0 0 0 .84-3.13l-2.26-1.26c-.06-.39-.04-.76-.04-1.15Zm-13 5.14a5.14 5.14 0 1 1 5.14-5.14 5.14 5.14 0 0 1-5.17 5.14Z" style="fill:#7000ff"/><path d="M333.73 202.24c0-.39 0-.77-.05-1.15l2.26-1.25a15.62 15.62 0 0 0-.84-3.14l-2.58.05a12.85 12.85 0 0 0-1.16-2l1.33-2.21a15.49 15.49 0 0 0-2.29-2.29l-2.21 1.32a13.65 13.65 0 0 0-2-1.15v-2.58a15.35 15.35 0 0 0-3.13-.84l-1.25 2.26h-2.3l-1.22-2.26a15.7 15.7 0 0 0-3.13.84v2.58a13.54 13.54 0 0 0-2 1.15l-2.16-1.32a15.56 15.56 0 0 0-2.3 2.29l1.33 2.21a12.8 12.8 0 0 0-1.15 2l-2.58-.05a15 15 0 0 0-.84 3.14l2.26 1.25a11.05 11.05 0 0 0 0 2.3l-2.26 1.26a15.05 15.05 0 0 0 .84 3.13l2.58-.05a12.36 12.36 0 0 0 1.15 2l-1.33 2.21a15.56 15.56 0 0 0 2.3 2.29l2.21-1.32a12.7 12.7 0 0 0 2 1.15v2.58a15.05 15.05 0 0 0 3.13.84l1.26-2.26a11.05 11.05 0 0 0 2.3 0l1.25 2.26a14.73 14.73 0 0 0 3.13-.84v-2.58a12.8 12.8 0 0 0 2-1.15l2.21 1.32a15.49 15.49 0 0 0 2.29-2.29l-1.33-2.21a12.41 12.41 0 0 0 1.16-2l2.58.05a15.7 15.7 0 0 0 .84-3.13l-2.26-1.26c-.06-.39-.04-.76-.04-1.15Zm-13 5.14a5.14 5.14 0 1 1 5.14-5.14 5.14 5.14 0 0 1-5.17 5.14Z" style="fill:#fff;opacity:.7000000000000001"/><path d="M297 144.26v5.24l-5 2.63a1.22 1.22 0 0 0 0 2.15l5 2.63v5.24a2.11 2.11 0 0 0 2.11 2.11H317a2.12 2.12 0 0 0 2.12-2.11v-17.89a2.12 2.12 0 0 0-2.12-2.12h-17.92a2.11 2.11 0 0 0-2.08 2.12Z" style="fill:#7000ff"/><g style="opacity:.9"><path d="M303.12 149.72h10.17a1.25 1.25 0 0 0 0-2.5h-10.17a1.25 1.25 0 0 0 0 2.5ZM313.29 152h-10.17a1.25 1.25 0 0 0 0 2.5h10.17a1.25 1.25 0 0 0 0-2.5ZM313.29 156.69h-10.17a1.25 1.25 0 0 0 0 2.5h10.17a1.25 1.25 0 0 0 0-2.5Z" style="fill:#fff"/></g><path d="M195.9 136h4.27l2.2 4.17a1.7 1.7 0 0 0 3 0l2.2-4.17h4.27a3.08 3.08 0 0 0 3.08-3.09V117a3.08 3.08 0 0 0-3.08-3.08H195.9a3.07 3.07 0 0 0-3.08 3.08v16a3.08 3.08 0 0 0 3.08 3Z" style="fill:#7000ff"/><path style="fill:#fff;opacity:.9" d="m203.88 118.69-4.92 2.88v8.42h3.66v-5.65h2.53v5.65h3.66v-8.42l-4.93-2.88z"/><path d="M243.8 364.79H240l-2.45-4.66a1.42 1.42 0 0 0-2.5 0l-2.45 4.66h-3.9a3.51 3.51 0 0 0-3.51 3.51v15.1a3.51 3.51 0 0 0 3.51 3.51h15.1a3.51 3.51 0 0 0 3.51-3.51v-15.1a3.51 3.51 0 0 0-3.51-3.51Z" style="fill:#7000ff"/><path d="M238.39 370.56a5.46 5.46 0 1 0-.77 8.36 1.26 1.26 0 0 0 .33.66l3.4 3.39a1.22 1.22 0 0 0 1.73-1.73l-3.39-3.39a1.23 1.23 0 0 0-.67-.34 5.48 5.48 0 0 0-.63-6.95Zm-1.16 6.57a3.83 3.83 0 1 1 0-5.42 3.83 3.83 0 0 1 0 5.42Z" style="fill:#fff;opacity:.9"/><path d="M405.29 264.23s-8.15 20.2-16.13 22.38-20 .41-20 .41l-3.72 1-3.65-.54h-.13l-4.11-.1a.78.78 0 0 1-.7-1.23l1.47-2a1 1 0 0 1 .49-.35l3.92-1.26a1.08 1.08 0 0 1 .47 0l6 .95s16.65-2.73 18.35-4.27 6.71-17.69 6.71-17.69Z" style="fill:#eec1bb"/><path d="m369.57 283.36-.39.06-6-.95a1.08 1.08 0 0 0-.47 0l-3.92 1.26a1 1 0 0 0-.49.35l-1.47 2a.78.78 0 0 0 .7 1.23l4.11.1h.13l2.45.36a15.7 15.7 0 0 0 5.35-4.41Z" style="opacity:.1"/><path d="M410.21 244.22c-5.92-1.94-14.25 2.51-17.44 21.15l12.29 3.63s13.61-22 5.15-24.78Z" style="fill:#7000ff"/><path d="M375.77 219.86c0 .62.33 1.11.73 1.11s.75-.53.72-1.13-.33-1.1-.73-1.09-.72.5-.72 1.11Z" style="fill:#263238"/><path d="m378.19 220.47-2.91 4.81s1 1.14 3.19.3Z" style="fill:#d4827d"/><path d="M378.74 216a.31.31 0 0 1-.29.1 2.51 2.51 0 0 0-2.19.69.33.33 0 0 1-.45 0 .34.34 0 0 1 0-.46 3.11 3.11 0 0 1 2.76-.89.32.32 0 0 1 .28.36.38.38 0 0 1-.11.2Z" style="fill:#263238"/><path d="M399.3 215.5c.45 8.13.82 11.57-2.77 16.19-5.73 4.95-15.49 5.74-18.37-2.09-2.59-7-2.89-19.13 4.63-23.32a11.11 11.11 0 0 1 15.12 4.31 11.29 11.29 0 0 1 1.39 4.91Z" style="fill:#eec1bb"/><path style="fill:#eec1bb" d="m387.97 233.29 2.06 12.05 10.04-2.32-3.51-12.3-8.59 2.57z"/><path d="M380.74 216.1c.51-5.28-1.31.82-3.75-6.15s9.09-12.63 10.93-11.33.79 3.29 6.89 4.42a6.93 6.93 0 0 1 5.84 7.05s3.51 1.62 2.26 9.16a30.9 30.9 0 0 1-6 13.25s-2.31-2.38-6-.19a11.85 11.85 0 0 1-3.57-3.64c-1.64-2.46-2.15-4.8-4.4-5-4.7-.43-2.37-5.83-2.2-7.57Z" style="fill:#263238"/><path d="M400 211s5-3.06 2.78-6.27-1.15 3.54-2.78 6.27Z" style="fill:#263238"/><path d="M382.17 219.17a6.28 6.28 0 0 0-1.59 4.53c.14 2.2 2.3 2.59 4 1.39s3.31-3.54 2.33-5.47a2.83 2.83 0 0 0-4.74-.45Z" style="fill:#ffc3bd"/><path d="m388.16 234.43.82 4.78a9 9 0 0 1 2.26-6.53 4.05 4.05 0 0 0-3.08 1.75Z" style="opacity:.1"/><path style="fill:#7000ff" d="M314.7 265.51h2.87v16.93h-2.87z"/><path style="fill:#fff;opacity:.7000000000000001" d="M314.7 265.51h2.87v16.93h-2.87z"/><path d="M297.85 231.89h-7.15a4.85 4.85 0 0 0-4.85 4.85v33.13a4.85 4.85 0 0 0 4.85 4.85h7.15Z" style="fill:#7000ff"/><rect x="288.35" y="231.89" width="58.08" height="42.82" rx="4.85" style="fill:#7000ff"/><rect x="288.35" y="231.89" width="58.08" height="42.82" rx="4.85" style="fill:#fff;opacity:.5"/><rect x="290.35" y="233.89" width="54.08" height="38.82" rx="2.85" style="fill:#263238"/><path d="M305.69 289.54a10.45 10.45 0 0 1 20.89 0Z" style="fill:#7000ff"/><path style="fill:#7000ff" d="M330.34 285.98h-20.89v3.39h41.78v-1.39l-20.89-2z"/><path style="fill:#fff;opacity:.8" d="M330.34 285.98h-20.89v3.39h41.78v-1.39l-20.89-2z"/><path style="fill:#7000ff" d="M330.34 289.37h-20.89v-3.39l20.89 2v1.39z"/><path style="fill:#fff;opacity:.6000000000000001" d="M330.34 289.37h-20.89v-3.39l20.89 2v1.39z"/><path d="M376.4 406.08h-43.09a6.54 6.54 0 0 1-6.55-6.54v-99.08a6.54 6.54 0 0 1 6.55-6.54h43.09a1.75 1.75 0 0 1 1.75 1.75 1.75 1.75 0 0 1-1.75 1.75h-43.09a3 3 0 0 0-3.05 3v99.08a3 3 0 0 0 3.05 3h43.09a1.75 1.75 0 0 1 1.75 1.75 1.75 1.75 0 0 1-1.75 1.83Z" style="fill:#263238"/><g style="opacity:.5"><path d="M376.4 406.08h-43.09a6.54 6.54 0 0 1-6.55-6.54v-99.08a6.54 6.54 0 0 1 6.55-6.54h43.09a1.75 1.75 0 0 1 1.75 1.75 1.75 1.75 0 0 1-1.75 1.75h-43.09a3 3 0 0 0-3.05 3v99.08a3 3 0 0 0 3.05 3h43.09a1.75 1.75 0 0 1 1.75 1.75 1.75 1.75 0 0 1-1.75 1.83Z" style="fill:#fff"/></g><path style="fill:#7000ff" d="M271.95 289.37h61.19v5.13h-61.19z"/><path style="fill:#fff;opacity:.2" d="M271.95 289.37h61.19v5.13h-61.19z"/><path style="fill:#7000ff" d="M330.34 289.37h52.19v5.13h-52.19z"/><path style="fill:#fff;opacity:.5" d="M330.34 289.37h52.19v5.13h-52.19z"/><path style="fill:#eec1bb" d="m364.23 369.73 2.89 29.22h-6.92l-6.93-28.46 10.96-.76z"/><path d="m359.55 397 8.83.15a.71.71 0 0 1 .68.57l1.48 7.21a1.19 1.19 0 0 1-.91 1.4h-.25c-3.19-.11-6-.33-10-.4-4.67-.08-3.5.5-9 .49-3.31 0-3.85-3.79-2.45-3.95 6.45-.7 7.15-2.63 9.67-4.89a2.86 2.86 0 0 1 1.95-.58Z" style="fill:#263238"/><path style="opacity:.1" d="m366.37 391.32-2.14-21.59-10.96.76 5.07 20.83h8.03z"/><path d="m411.61 302.36-28.38 1S345 316.73 344 327c-1.1 10.58 11.74 59.19 11.74 59.19h11.41s-3.15-35.67-4.35-46.59 39.79-7.31 46.91-16.62c6.51-8.54 1.9-20.62 1.9-20.62Z" style="fill:#263238"/><path d="m411.61 302.36-28.38 1S345 316.73 344 327c-1.1 10.58 11.74 59.19 11.74 59.19h11.41s-3.15-35.67-4.35-46.59 39.79-7.31 46.91-16.62c6.51-8.54 1.9-20.62 1.9-20.62Z" style="opacity:.2"/><path style="fill:#7000ff" d="m369.05 384.59.25 4.03h-14.1l-1.38-4.03h15.23z"/><path style="fill:#eec1bb" d="m337.82 371.12.76 27.83h-6.8l-4.03-27.83h10.07z"/><path d="m330.84 397 8.83.15a.71.71 0 0 1 .68.57l1.48 7.21a1.19 1.19 0 0 1-.91 1.4h-.25c-3.19-.11-6-.33-10-.4-4.68-.08-3.5.5-9 .49-3.31 0-3.85-3.79-2.45-3.95 6.45-.7 7.15-2.63 9.67-4.89a2.84 2.84 0 0 1 1.95-.58Z" style="fill:#263238"/><path d="m338.37 391.3-.55-20.18h-10.07l2.93 20.2c2.19.01 5.2-.01 7.69-.02Z" style="opacity:.1"/><path d="M399.27 304.71s2.36 21.58-19.59 22.59-39.09 3.52-39.59 11.33 0 47.6 0 47.6h-11.93s-4.64-25.16-6.45-40.76c-1.76-15.15-5-26.14 10.57-31.27 16.53-5.46 45.91-10.5 45.91-10.5l21.16-1.34Z" style="fill:#263238"/><path style="fill:#7000ff" d="m341.85 384.59-.75 4.03H328l-1.38-4.03h15.23zM404 242.8s0-4.86-9.83-4.3c-10.44.6-8.47 5.26-8.47 5.26Z"/><path d="M404 242.8s0-4.86-9.83-4.3c-10.44.6-8.47 5.26-8.47 5.26Z" style="opacity:.30000000000000004"/><path d="M413.16 264.6c-.66 9.61-.43 38.52-.43 38.52s-21 1.38-37.48.84l-1.91-55.61a4.89 4.89 0 0 1 3.14-4.53c4.66-1.81 15.6-3.86 32.71-1.61 5.9.79 4.75 11.03 3.97 22.39Z" style="fill:#7000ff"/><path d="M376.71 264.23s-8.16 20.2-16.13 22.38-20 .41-20 .41l-3.72 1-3.64-.54h-.13l-4.12-.1a.78.78 0 0 1-.7-1.23l1.48-2a1 1 0 0 1 .49-.35l3.91-1.26a1.12 1.12 0 0 1 .48 0l6 .95s16.65-2.73 18.34-4.27 6.72-17.69 6.72-17.69Z" style="fill:#eec1bb"/><path d="M376.5 254.83s-1.27 1.51-2.81 3.69l.55 16.1c6.13-2.71 8.56-18.49 8.56-18.49l-4-2.82Z" style="opacity:.1"/><path d="M381.63 244.22c-5.92-1.94-14.26 2.51-17.45 21.15l12.3 3.59s13.61-21.96 5.15-24.74Z" style="fill:#7000ff"/><path style="fill:#263238" d="M380.21 337.77h9.25v27.11h-9.25z"/><path style="fill:#fff;opacity:.6000000000000001" d="M380.21 337.77h9.25v27.11h-9.25z"/><path style="fill:#263238" d="M390.89 389.44V355h-12.12v34.44l-27.59 3.83v3.83l33.65-2.87 33.65 2.87v-3.83l-27.59-3.83z"/><circle cx="350.78" cy="402.84" r="3.65" style="fill:#7000ff"/><circle cx="418.48" cy="402.84" r="3.65" style="fill:#7000ff"/><circle cx="384.83" cy="402.84" r="3.65" style="fill:#7000ff"/><path style="opacity:.30000000000000004" d="M380.21 337.77h9.25v6.7h-9.25z"/><path d="M421.4 276.32h-30.14a9.52 9.52 0 0 0-9.47 8.63l-2.54 27.23a12.55 12.55 0 0 1-11.85 11.36L338.31 325a6.65 6.65 0 0 0-6.31 6.64v.61a5.51 5.51 0 0 0 5.51 5.51h88.59l4.77-51a9.52 9.52 0 0 0-9.47-10.44Z" style="fill:#7000ff"/><path d="M421.4 276.32h-30.14a9.52 9.52 0 0 0-9.47 8.63l-2.54 27.23a12.55 12.55 0 0 1-11.85 11.36L338.31 325a6.65 6.65 0 0 0-6.31 6.64v.61a5.51 5.51 0 0 0 5.51 5.51h88.59l4.77-51a9.52 9.52 0 0 0-9.47-10.44Z" style="fill:#fff;opacity:.30000000000000004"/><path d="M352.22 307h4.15v21.71a2 2 0 0 1-2 2h-.15a2 2 0 0 1-2-2V307Z" style="fill:#263238"/><path d="M352.22 307h4.15v21.71a2 2 0 0 1-2 2h-.15a2 2 0 0 1-2-2V307Z" style="fill:#fff;opacity:.2"/><path d="M372.23 300.77H363v7.65h9.25a3.83 3.83 0 1 0 0-7.65Z" style="fill:#7000ff"/><path d="M372.23 300.77H363v7.65h9.25a3.83 3.83 0 1 0 0-7.65Z" style="fill:#fff;opacity:.5"/><rect x="332.52" y="300.77" width="39.71" height="7.66" rx="3.69" style="fill:#7000ff"/><rect x="332.52" y="300.77" width="39.71" height="7.66" rx="3.69" style="fill:#fff;opacity:.30000000000000004"/><path d="M428.18 337.77h-44.31l4.94-52.77a9.52 9.52 0 0 1 9.47-8.63h30.14a9.52 9.52 0 0 1 9.47 10.4l-4.31 46.14a5.43 5.43 0 0 1-5.4 4.86Z" style="fill:#7000ff"/><path d="M428.18 337.77h-44.31l4.94-52.77a9.52 9.52 0 0 1 9.47-8.63h30.14a9.52 9.52 0 0 1 9.47 10.4l-4.31 46.14a5.43 5.43 0 0 1-5.4 4.86Z" style="fill:#fff;opacity:.5"/><path d="M324.67 406.08h-43.09a6.54 6.54 0 0 1-6.55-6.54v-99.08a6.54 6.54 0 0 1 6.55-6.54h43.09a1.75 1.75 0 0 1 1.75 1.75 1.75 1.75 0 0 1-1.75 1.75h-43.09a3 3 0 0 0-3.05 3v99.08a3 3 0 0 0 3.05 3h43.09a1.75 1.75 0 0 1 1.75 1.75 1.75 1.75 0 0 1-1.75 1.83Z" style="fill:#263238"/><g style="opacity:.5"><path d="M324.67 406.08h-43.09a6.54 6.54 0 0 1-6.55-6.54v-99.08a6.54 6.54 0 0 1 6.55-6.54h43.09a1.75 1.75 0 0 1 1.75 1.75 1.75 1.75 0 0 1-1.75 1.75h-43.09a3 3 0 0 0-3.05 3v99.08a3 3 0 0 0 3.05 3h43.09a1.75 1.75 0 0 1 1.75 1.75 1.75 1.75 0 0 1-1.75 1.83Z" style="fill:#fff"/></g><path d="m296.19 241.79-3-2a.54.54 0 0 1 0-.91l3-2a.5.5 0 0 1 .69.14.5.5 0 0 1-.14.68l-2.49 1.65 2.49 1.65a.5.5 0 0 1 .14.68.51.51 0 0 1-.69.11ZM302.83 241.65a.49.49 0 0 1 .17-.65l2.49-1.65-2.49-1.68a.49.49 0 0 1-.13-.68.49.49 0 0 1 .68-.14l3 2a.54.54 0 0 1 0 .91l-3 2a.5.5 0 0 1-.72-.11ZM298.72 243a.49.49 0 0 1-.32-.62l2.07-6.54a.48.48 0 0 1 .61-.32.48.48 0 0 1 .32.61l-2.06 6.55a.49.49 0 0 1-.62.32ZM315.7 248h-22.27a.51.51 0 0 1-.51-.52.51.51 0 0 1 .51-.52h22.27a.52.52 0 0 1 .52.52.52.52 0 0 1-.52.52ZM341.28 248H319a.52.52 0 0 1-.52-.52.52.52 0 0 1 .52-.48h22.26a.52.52 0 0 1 .52.52.52.52 0 0 1-.5.48ZM306.16 252.58h-12.73a.51.51 0 0 1-.51-.52.51.51 0 0 1 .51-.51h12.73a.52.52 0 0 1 .52.51.52.52 0 0 1-.52.52ZM330.32 252.58h-20.85a.51.51 0 0 1-.51-.52.51.51 0 0 1 .51-.51h20.85a.51.51 0 0 1 .51.51.51.51 0 0 1-.51.52ZM327.35 257.17h-33.92a.52.52 0 0 1-.51-.52.51.51 0 0 1 .51-.52h33.92a.52.52 0 0 1 .52.52.52.52 0 0 1-.52.52ZM337.75 257.17h-7.08a.52.52 0 0 1-.52-.52.52.52 0 0 1 .52-.52h7.08a.52.52 0 0 1 .52.52.52.52 0 0 1-.52.52ZM309.27 261.75h-15.84a.51.51 0 0 1-.51-.52.51.51 0 0 1 .51-.52h15.84a.52.52 0 0 1 .52.52.52.52 0 0 1-.52.52ZM332.3 261.75h-19.71a.52.52 0 0 1-.52-.52.52.52 0 0 1 .52-.52h19.71a.52.52 0 0 1 .52.52.52.52 0 0 1-.52.52ZM315.7 266.33h-22.27a.51.51 0 0 1-.51-.52.51.51 0 0 1 .51-.51h22.27a.51.51 0 0 1 .52.51.52.52 0 0 1-.52.52ZM334.73 266.33H319a.52.52 0 0 1-.52-.52.51.51 0 0 1 .52-.51h15.71a.51.51 0 0 1 .51.51.51.51 0 0 1-.49.52Z" style="fill:#fff"/><path d="M141.47 176.82c.41 4.71-.61 13.24-4.16 16 5.79 2.09 11.93 5.69 15.85 10.44 3.89-5.66-.53-8.89-.53-8.89-5-1.78-4.47-5.57-3.18-9.06Z" style="fill:#b97964"/><path d="M160.4 172.76c-.06.59.22 1.1.61 1.14s.74-.42.8-1-.22-1.1-.61-1.14-.73.41-.8 1Z" style="fill:#263238"/><path d="m161.05 171.77 1.45-.28s-.83 1.07-1.45.28Z" style="fill:#263238"/><path d="M160.6 173.39a16.36 16.36 0 0 0 1.77 4 2.59 2.59 0 0 1-2.16.2Z" style="fill:#a24e3f"/><path d="M162.08 169.65a.41.41 0 0 0 .24-.13.36.36 0 0 0 0-.49 3.48 3.48 0 0 0-3.09-.83.37.37 0 0 0-.11.49.33.33 0 0 0 .3.16 2.83 2.83 0 0 1 2.44.69.36.36 0 0 0 .22.11Z" style="fill:#263238"/><path d="M141 169c-.23 7.31-.48 10.42 2.78 14.5 4.91 6.13 13.8 4.79 16.18-2.33 2.14-6.41 2.16-17.33-4.57-20.87s-14.18 1.37-14.39 8.7Z" style="fill:#b97964"/><path d="M141.32 182.81c-7.19-1.23-5.13-5.76-5.13-5.76-7.08-1.43-1.61-4.89-1.61-4.89-5.89-2.54 0-4.82 0-4.82C128.9 162.63 137 161 137 161c-2-7.35 5-4.33 5-4.33 3.8-6.32 7.08-.29 7.08-.29 6.66-9 8.28-1.41 8.28-1.41 6.81-1.79 4.2 5.37 4.2 5.37 5.6 1.5 1.2 4.34 1.2 4.34 2.16 2.73-5.65 3.2-5.65 3.2s3.72 6 0 7.65l-9.46 7.25s-4.37-1.78-6.33.03Z" style="fill:#263238"/><path d="M148.39 176.91s5-12 1.09-22.24l3.3-1.13s4.31 14.89-4.39 23.37Z" style="fill:#7000ff"/><path d="M153.38 175.59c.82 1.72 1.14 2.47 2.32 3a2.14 2.14 0 0 0 3.14-2.38c-.31-1.72-1.63-4.25-3.46-4.3a2.39 2.39 0 0 0-2 3.68ZM148.21 200.57s6.77 5 9.52 7l19.59-9.24a5.41 5.41 0 0 1 3.3-5.12l1.4-.58 2.95-1.32a3.42 3.42 0 0 1 3.41.36 3.43 3.43 0 0 1 1.27 3.74 8.47 8.47 0 0 1-6 5.82l-2.86.75S164 214.7 158 215s-14.79-5.59-14.79-5.59Z" style="fill:#b97964"/><path d="M131.93 192.14c5.17 0 10.95 3.22 20 9.12a24.85 24.85 0 0 1-7 11.08s-5-1.34-11.64-7.59c-8-7.57-4.53-12.6-1.36-12.61Z" style="fill:#263238"/><path d="M230.13 207.12h-49a2.91 2.91 0 0 1-2.94-3.22l3.69-42.18a3.58 3.58 0 0 1 3.5-3.22h49a2.9 2.9 0 0 1 2.93 3.22l-3.69 42.18a3.58 3.58 0 0 1-3.49 3.22Z" style="fill:#7000ff"/><path d="M230.13 207.12h-49a2.91 2.91 0 0 1-2.94-3.22l3.69-42.18a3.58 3.58 0 0 1 3.5-3.22h49a2.9 2.9 0 0 1 2.93 3.22l-3.69 42.18a3.58 3.58 0 0 1-3.49 3.22Z" style="fill:#fff;opacity:.4"/><path d="M230.31 205.12a1.35 1.35 0 0 0 1.32-1.22l3.69-42.18a1.1 1.1 0 0 0-1.11-1.22h-49a1.36 1.36 0 0 0-1.33 1.22l-3.68 42.18a1.1 1.1 0 0 0 1.11 1.22Z" style="fill:#fff;opacity:.7000000000000001"/><path d="m196.26 180.32-16 23.16v.42a1.1 1.1 0 0 0 1.11 1.22h27.76Z" style="fill:#7000ff"/><path d="m196.26 180.32-16 23.16v.42a1.1 1.1 0 0 0 1.11 1.22h27.76Z" style="fill:#fff;opacity:.30000000000000004"/><path d="m231.77 202.29-13.41-25.47-19.86 28.3h31.81a1.35 1.35 0 0 0 1.32-1.22ZM213.18 172.32a5 5 0 0 1-4.89 4.5 4.06 4.06 0 0 1-4.11-4.5 5 5 0 0 1 4.89-4.51 4.06 4.06 0 0 1 4.11 4.51Z" style="fill:#7000ff"/><path d="M213.18 172.32a5 5 0 0 1-4.89 4.5 4.06 4.06 0 0 1-4.11-4.5 5 5 0 0 1 4.89-4.51 4.06 4.06 0 0 1 4.11 4.51Z" style="fill:#fff;opacity:.4"/><path style="fill:#b97964" d="m90.9 377.37-4.98 14.76 7.63 3.12 5.97-13.62-8.62-4.26z"/><path d="M96.29 394.88a.25.25 0 0 1-.12-.23.21.21 0 0 1 .17-.18c.16 0 3.76-.84 5.1 0a1.14 1.14 0 0 1 .51.69.82.82 0 0 1-.26.91c-.51.36-1.7.21-2.79-.13a16.45 16.45 0 0 1-2.61-1.06Zm.76-.07c1.57.7 3.79 1.37 4.37.93.08-.06.18-.16.1-.47a.57.57 0 0 0-.32-.42 1.46 1.46 0 0 0-.38-.17 10 10 0 0 0-3.77.13Z" style="fill:#7000ff"/><path d="M96.18 394.83a.22.22 0 0 1 0-.22c0-.1 1-2.4 2.41-3a1.65 1.65 0 0 1 1.27 0c.55.23.64.58.59.82-.12 1.05-2.82 2.3-4 2.44a.1.1 0 0 1-.09 0 .19.19 0 0 1-.18-.04Zm3.39-2.83a1.16 1.16 0 0 0-.8 0 5.1 5.1 0 0 0-2 2.33c1.29-.31 3.13-1.37 3.26-2 0-.06 0-.22-.34-.36h-.12Z" style="fill:#7000ff"/><path d="m95.77 393.37-9.58-3a.81.81 0 0 0-.94.37L81.11 398a1.34 1.34 0 0 0 .49 1.84 1.23 1.23 0 0 0 .26.12c3.47 1 6.6 1.76 10.9 3.1 5.08 1.56 3.6 1.77 9.54 3.7 3.58 1.16 5.5-2.73 4-3.4-6.71-3-6.78-5.36-8.7-8.69a3.22 3.22 0 0 0-1.83-1.3Z" style="fill:#263238"/><path style="fill:#263238;opacity:.2" d="m88.51 384.45 8 4.04 3.01-6.86-8.62-4.26-2.39 7.08z"/><path d="M124.72 240.85s-10.75 8.21-8.45 33.93c.22 2.38 1 4.87 1 7.59 0 1.81-.5 3.08-1.09 7.15-.86 5.92-2.44 28-4.11 30.87s-2.35 2.36-7 10.28c-5 8.52-11.5 23.46-16.53 48.78a28.2 28.2 0 0 0 11.24 4.71s27.47-43.32 33.31-59.45c5.23-14.43 11.46-60.48 11.46-60.48l.5-20Z" style="fill:#7000ff"/><path d="M136.48 274.78h-7.78s-2.56 24.48 5.9 44.9c.88-3.28 1.77-7.21 2.64-11.46l3.37-21.56c-.48-3.64-.85-6.42-.91-6.6-.17-.57-3.22-5.28-3.22-5.28Z" style="opacity:.1"/><path style="fill:#b97964" d="m135.2 383.31.05 15.69 8.85-.59 1.36-15.1H135.2z"/><path d="M145.12 398.14a.21.21 0 0 1-.18-.17.21.21 0 0 1 .1-.23c.14-.08 3.27-2 4.82-1.66a1.17 1.17 0 0 1 .71.48.84.84 0 0 1 .05.95 4 4 0 0 1-2.68.79 15.65 15.65 0 0 1-2.82-.16Zm.7-.31c1.71.15 4 .05 4.43-.56.06-.08.11-.21-.06-.48a.6.6 0 0 0-.44-.29 1.39 1.39 0 0 0-.41 0 9.7 9.7 0 0 0-3.52 1.33Z" style="fill:#7000ff"/><path d="M145 398.14a.24.24 0 0 1-.11-.2c0-.11.17-2.6 1.3-3.6a1.61 1.61 0 0 1 1.2-.42c.6 0 .8.34.83.59.23 1-1.9 3.09-3 3.62a.14.14 0 0 1-.09 0 .19.19 0 0 1-.13.01Zm2.26-3.8a1.12 1.12 0 0 0-.74.3 5.08 5.08 0 0 0-1.12 2.86c1.11-.71 2.5-2.32 2.42-2.94 0-.06-.05-.22-.44-.24h-.12Z" style="fill:#7000ff"/><path d="m144.14 396.89-10 .36a.81.81 0 0 0-.76.66l-1.52 8.22a1.34 1.34 0 0 0 1.06 1.57 1.43 1.43 0 0 0 .29 0c3.61-.2 6.81-.51 11.31-.66 5.31-.19 4 .49 10.23.36 3.77-.09 4.3-4.39 2.7-4.54-7.33-.66-8.17-2.84-11.08-5.35a3.22 3.22 0 0 0-2.23-.62Z" style="fill:#263238"/><path style="fill:#263238;opacity:.2" d="m135.23 391.43 9.52-.2.71-7.92H135.2l.03 8.12z"/><path d="M130.71 238s-10.73 14.21-2.78 42l9 40.59s-8.54 18.46-4 67.16a41 41 0 0 0 13.24-.3s10-51.43 11.51-68.8c1.67-19.14.67-76.83.67-76.83Z" style="fill:#7000ff"/><path d="M137.19 191.94s-1.66-7.1 9-4 9.76 9.17 9.76 9.17Z" style="fill:#263238"/><path d="M137.19 191.94s-1.66-7.1 9-4 9.76 9.17 9.76 9.17Z" style="opacity:.4"/><path d="M163.63 209.7c0 2.49-1 6.09-2 10.12-.46 1.91-.88 3.9-1.16 5.92-1.51 11-2 22.59-2 22.59a43.86 43.86 0 0 1-34.34-6.81s4.19-3.55 3.33-28.14c-.39-11.08-4.39-24.25 13.92-22.18 15.46 1.75 20.66 6.55 21.91 14.06v.29l.09.7a29.3 29.3 0 0 1 .25 3.45Z" style="fill:#263238"/><path d="M163.63 209.7c0 2.49-1 6.09-2 10.12-4.18-5-8.37-14.45-8.37-14.45l3.45-5.08 6.08 2.83a18 18 0 0 1 .5 2.14v.29l.09.7a29.3 29.3 0 0 1 .25 3.45Z" style="opacity:.4"/><path d="M170 205.36s6 5.92 8.37 8.3l20.74-6.22a5.42 5.42 0 0 1 4-4.56l1.46-.38 3.12-.86a3.45 3.45 0 0 1 3.32.87 3.42 3.42 0 0 1 .7 3.88 8.5 8.5 0 0 1-6.8 4.87l-2.94.31s-18.51 10.11-24.47 9.55-13.79-7.73-13.79-7.73Z" style="fill:#b97964"/><path d="M155.1 194.59c5.12.75 10.35 4.82 18.47 12a24.87 24.87 0 0 1-8.59 9.92s-4.73-2.07-10.37-9.24c-6.82-8.68-2.61-13.14.49-12.68Z" style="fill:#263238"/></svg>