<svg xmlns="http://www.w3.org/2000/svg" viewBox="0 0 500 500"><ellipse cx="250" cy="344.13" rx="228.54" ry="131.95" style="fill:#f0f0f0;opacity:.7000000000000001"/><ellipse cx="371.78" cy="393.06" rx="55.8" ry="32.21" style="fill:#e0e0e0"/><path d="m442.94 396.16 13.13-7.58a1.28 1.28 0 0 0 0-2.43l-43.24-25a4.62 4.62 0 0 0-4.22 0l-13.12 7.57a1.29 1.29 0 0 0 0 2.44l43.24 25a4.66 4.66 0 0 0 4.21 0ZM154.28 411l-118.4-68.39c-4.5-2.6-4.5-6.85 0-9.44L215.64 229.4a7.46 7.46 0 0 1 6.73 0L348 301.92a.59.59 0 0 1 0 1.11L161 411a7.46 7.46 0 0 1-6.72 0Z" style="fill:#e0e0e0"/><path d="M50.14 337.83a9.79 9.79 0 0 0 4.56 7.58l99.35 57.37a10.13 10.13 0 0 0 9.13 0l175-101a8.57 8.57 0 0 0 0-15.15l-99.35-57.37a10.06 10.06 0 0 0-9.13 0l-175 100.99a9.79 9.79 0 0 0-4.56 7.58Z" style="fill:#37474f"/><path d="m54.7 335.52 99.35 57.37a10.06 10.06 0 0 0 9.13 0l175-101c2.52-1.46 2.52-3.82 0-5.27l-99.35-57.37a10.06 10.06 0 0 0-9.13 0l-175 101c-2.52 1.46-2.52 3.82 0 5.27Z" style="fill:#455a64"/><path d="M158.62 394v9.88a9.24 9.24 0 0 1-4.56-1.09L54.7 345.41a8.55 8.55 0 0 1-.46-14.86c-2.05 1.46-1.89 3.61.46 5l99.36 57.38a9.35 9.35 0 0 0 4.56 1.07Z" style="fill:#263238"/><path d="M45.86 330.42c-2.37-1.37-2.24-3.67-2.24-6.58V186.61a10.11 10.11 0 0 1 4.57-7.91l174.94-101a9.77 9.77 0 0 1 8.85-.16c2.36 1.36 2.23 3.67 2.23 6.58v137.22a10.1 10.1 0 0 1-4.56 7.91l-174.95 101a9.78 9.78 0 0 1-8.84.17Z" style="fill:#37474f"/><path d="M234.21 84.11c0-2.9-2-4.08-4.56-2.63L54.7 182.49a9.22 9.22 0 0 0-3.22 3.41L45 182.11a9.32 9.32 0 0 1 3.23-3.41l174.94-101a9.78 9.78 0 0 1 8.84-.17c2.33 1.37 2.2 3.68 2.2 6.58Z" style="fill:#455a64"/><path d="M54.16 330.53a9.78 9.78 0 0 1-8.3-.12c-2.36-1.36-2.23-3.66-2.23-6.57V186.6a9.26 9.26 0 0 1 1.37-4.49l6.52 3.78a9.24 9.24 0 0 0-1.34 4.49v137.24c-.04 2.7 1.72 3.91 3.98 2.91Z" style="fill:#263238"/><path d="m57.16 187.75 168.67-97.36c1.51-.87 2.74-.16 2.74 1.58v119.8a6.06 6.06 0 0 1-2.74 4.74L57.16 313.86c-1.52.88-2.74.17-2.74-1.58V192.49a6 6 0 0 1 2.74-4.74Z" style="fill:#fafafa"/><path d="m67.33 330.52 162.39-93.75a5 5 0 0 1 4.56 0l2.71 1.48a1.39 1.39 0 0 1 0 2.64L74.57 334.63a5.08 5.08 0 0 1-4.56 0l-2.68-1.47a1.39 1.39 0 0 1 0-2.64ZM80.07 338.1l162.38-93.76a4.65 4.65 0 0 1 4.17-.23l42.27 24.41c1 .6.87 1.68-.39 2.41l-162.2 93.62a4.71 4.71 0 0 1-4.18.24L79.68 340.5c-1.05-.6-.87-1.68.39-2.4Z" style="fill:#263238"/><path d="m220.78 283.72 5.08-2.94c.22-.12.24-.31 0-.42l-4.86-2.81a.84.84 0 0 0-.74 0l-5.08 2.94c-.22.13-.24.32-.05.43l4.87 2.8a.81.81 0 0 0 .78 0Zm-7.43-10.16-5.08 2.94c-.22.12-.24.31 0 .42l4.86 2.81a.84.84 0 0 0 .74 0l5.08-2.94c.22-.12.24-.31.05-.42l-4.87-2.81a.84.84 0 0 0-.78 0Zm-16.42 9.49-8.61 5c-.21.13-.23.32 0 .43l4.86 2.81a.81.81 0 0 0 .74 0l8.61-5c.21-.13.23-.32 0-.43l-4.86-2.86a.81.81 0 0 0-.74.05Zm9-5.2-5.08 2.94c-.22.12-.24.31-.05.42l4.87 2.81a.84.84 0 0 0 .74 0l5.08-2.94c.22-.12.24-.31.05-.42l-4.87-2.81a.84.84 0 0 0-.75 0ZM186 289.37l-5.09 2.93c-.21.13-.23.32 0 .43l4.86 2.81a.81.81 0 0 0 .74 0l5.09-2.93c.21-.13.23-.32 0-.43l-4.87-2.81a.79.79 0 0 0-.73 0Zm-7.43 4.29-5.09 2.93c-.22.13-.23.32 0 .43l4.86 2.81a.81.81 0 0 0 .74 0l5.08-2.93c.22-.13.24-.32.05-.43l-4.87-2.81a.79.79 0 0 0-.79 0Zm19.06 11.46 5.09-2.94c.21-.12.23-.31 0-.42l-4.85-2.76a.82.82 0 0 0-.73 0l-5.09 2.94c-.21.12-.23.31 0 .43l4.86 2.8a.84.84 0 0 0 .7-.05Zm-7.43 4.29 5.08-2.94c.22-.12.24-.31.05-.42l-4.87-2.81a.82.82 0 0 0-.73 0l-5.09 2.94c-.22.12-.23.32 0 .43l4.86 2.8a.84.84 0 0 0 .68 0Zm-7.43 4.29 5.08-2.94c.22-.12.24-.31 0-.42l-4.85-2.81a.84.84 0 0 0-.74 0l-5.08 2.94c-.22.12-.24.32 0 .43l4.86 2.8a.81.81 0 0 0 .71 0Zm-7.45 4.3 5.08-2.94c.22-.12.24-.31 0-.42l-4.87-2.81a.84.84 0 0 0-.74 0l-5.08 2.94c-.22.12-.24.32 0 .43l4.86 2.8a.81.81 0 0 0 .75 0Zm38-30 5.08-2.94c.22-.12.24-.31 0-.42l-4.86-2.81a.81.81 0 0 0-.74 0l-5.08 2.93c-.22.13-.24.32 0 .43l4.87 2.81a.84.84 0 0 0 .76 0ZM205 300.83l11.34-6.55c.22-.13.24-.32.05-.43L204.61 287a.79.79 0 0 0-.73 0l-5.88 3.45c-.22.12-.24.31 0 .42l6.25 3.61c.19.11.17.3 0 .43l-4.7 2.71c-.21.12-.23.31 0 .43l4.86 2.8a.84.84 0 0 0 .59-.02ZM171.11 298l-5.11 2.89c-.22.12-.24.31 0 .42l4.86 2.81a.81.81 0 0 0 .74 0l5.08-2.93c.22-.13.24-.32.05-.43l-4.87-2.81a.84.84 0 0 0-.75.05Zm-7.43 4.29-5.08 2.94c-.22.12-.24.31 0 .42l4.86 2.81a.84.84 0 0 0 .74 0l5.08-2.94c.22-.13.24-.32 0-.43l-4.87-2.81a.84.84 0 0 0-.73-.04Zm-41.12 45.81a.81.81 0 0 0 .74 0l5.09-2.93c.21-.13.23-.32 0-.43l-4.86-2.81a.81.81 0 0 0-.74 0l-5.09 2.93c-.21.13-.23.32 0 .43Zm-18.32-11.49-5.09 2.94c-.21.12-.23.31 0 .42l4.86 2.81a.84.84 0 0 0 .74 0l5.08-2.94c.22-.12.24-.31 0-.42l-4.83-2.88a.82.82 0 0 0-.76.02Zm9.42 8.6a.84.84 0 0 0 .74 0l5.08-2.94c.22-.12.24-.31 0-.42l-4.82-2.85a.84.84 0 0 0-.74 0l-5.08 2.94c-.22.12-.24.31 0 .43Zm20.5 4.62 5.09-2.94c.21-.13.23-.32 0-.43l-4.87-2.81a.82.82 0 0 0-.73 0l-5.09 2.94c-.21.12-.23.31 0 .42l4.86 2.81a.84.84 0 0 0 .74-.04Zm-8.16 4.26a.84.84 0 0 0 .74 0l5.08-2.94c.22-.12.24-.32.05-.43L127 347.9a.79.79 0 0 0-.73 0l-5.09 2.94c-.21.12-.23.31 0 .42Zm-14.32-21.82-5.09 2.94c-.21.12-.23.31 0 .42l4.86 2.81a.84.84 0 0 0 .74 0l5.09-2.94c.21-.12.23-.31 0-.42l-4.86-2.81a.84.84 0 0 0-.75 0Zm37.15-21.45-5.08 2.94c-.22.12-.24.31-.05.42l4.87 2.81a.84.84 0 0 0 .74 0l5.08-2.94c.22-.12.24-.32 0-.43l-4.86-2.8a.81.81 0 0 0-.71 0ZM119.1 328l-5.1 2.92c-.21.12-.23.31 0 .42l4.86 2.81a.84.84 0 0 0 .74 0l5.09-2.94c.21-.12.23-.31 0-.43l-4.86-2.8a.84.84 0 0 0-.73.02Zm37.15-21.45-5.08 2.94c-.22.12-.24.31 0 .42l4.83 2.79a.84.84 0 0 0 .74 0l5.08-2.94c.22-.13.24-.32.05-.43L157 306.5a.84.84 0 0 0-.75.03Zm-14.86 8.58-5.08 2.94c-.22.12-.24.31-.05.42l4.87 2.81a.84.84 0 0 0 .74 0l5.08-2.94c.22-.12.24-.32 0-.43l-4.86-2.8a.84.84 0 0 0-.7-.02ZM134 319.4l-5.08 2.94c-.22.12-.24.31 0 .42l4.87 2.81a.82.82 0 0 0 .73 0l5.09-2.94c.21-.12.23-.31 0-.43l-4.86-2.8a.84.84 0 0 0-.75 0Zm-7.43 4.29-5.09 2.94c-.21.12-.23.31 0 .42l4.86 2.81a.84.84 0 0 0 .74 0l5.09-2.94c.21-.12.23-.31 0-.43l-4.86-2.8a.84.84 0 0 0-.78 0Zm33.93 2.88 5.08-2.94c.22-.12.24-.31 0-.42l-4.86-2.81a.81.81 0 0 0-.74 0l-5.08 2.93c-.22.13-.24.32-.05.43l4.87 2.81a.84.84 0 0 0 .74 0Zm69.32-62.49L224.7 267c-.22.13-.24.32 0 .43l4.87 2.81a.79.79 0 0 0 .73 0l5.09-2.93c.22-.13.23-.32 0-.43l-4.86-2.81a.81.81 0 0 0-.75.01Zm-9 5.19-5.08 2.94c-.22.12-.24.31 0 .42l4.86 2.81a.84.84 0 0 0 .74 0l5.08-2.94c.22-.12.24-.31 0-.42l-4.87-2.81a.84.84 0 0 0-.77 0Zm16.43-9.48-5.08 2.93c-.22.13-.24.32 0 .43L237 266a.81.81 0 0 0 .74 0l5.08-2.93c.22-.13.24-.32 0-.43l-4.82-2.88a.81.81 0 0 0-.79.03ZM196.14 298l5.08-2.94c.22-.12.24-.32.05-.43l-4.87-2.8a.81.81 0 0 0-.74 0l-5.08 2.94c-.22.12-.24.31-.05.42l4.87 2.81a.84.84 0 0 0 .74 0Zm49.24-42.48a.81.81 0 0 0-.74 0l-5.08 2.93c-.22.13-.24.32-.05.43l4.87 2.81a.81.81 0 0 0 .74 0l5.08-2.93c.22-.13.24-.32 0-.43Zm-77.49 66.81 5.08-2.94c.22-.12.24-.31 0-.42l-4.86-2.81a.84.84 0 0 0-.74 0l-5.08 2.94c-.22.12-.24.32-.05.43l4.87 2.8a.81.81 0 0 0 .78-.05ZM259 269.67l5.09-2.94c.21-.12.23-.31 0-.42l-4.86-2.81a.84.84 0 0 0-.74 0l-5.09 2.94c-.21.12-.23.31 0 .42l4.87 2.81a.82.82 0 0 0 .73 0Zm-14.38.28 5.09-2.94c.21-.12.23-.32 0-.43l-4.86-2.8a.81.81 0 0 0-.74 0l-5.08 2.94c-.22.12-.24.31-.05.42l4.92 2.86a.82.82 0 0 0 .73 0Zm7.7-10.46a.81.81 0 0 0-.74 0l-5.08 2.94c-.22.12-.24.31 0 .42l4.87 2.81a.84.84 0 0 0 .74 0l5.08-2.94c.22-.12.24-.32 0-.43Zm1.56-.91 11.82 6.82a.82.82 0 0 0 .73 0l5.09-2.94c.22-.12.23-.31 0-.42l-11.81-6.83a.84.84 0 0 0-.74 0l-5.08 2.94c-.17.13-.19.32 0 .43Zm-17.16 9.51-5.08 2.91c-.21.12-.23.31 0 .42l4.87 2.81a.82.82 0 0 0 .73 0l5.09-2.94c.21-.12.23-.32 0-.43l-4.86-2.8a.84.84 0 0 0-.74.03Zm-55.92 32.29-5.08 2.94c-.22.12-.24.31-.05.42l4.87 2.81a.84.84 0 0 0 .74 0l5.08-2.94c.22-.12.24-.32 0-.43l-4.86-2.8a.81.81 0 0 0-.7 0Zm70-26.4a.84.84 0 0 0 .74 0l5.09-2.94c.21-.12.23-.31 0-.42l-4.86-2.81a.84.84 0 0 0-.74 0l-5.03 2.94c-.21.12-.23.31 0 .42Zm-62.61 22.11-5.04 2.91c-.22.12-.24.31-.05.42l4.87 2.81a.84.84 0 0 0 .74 0l5.08-2.94c.22-.12.24-.32 0-.43l-4.86-2.8a.81.81 0 0 0-.7.03ZM130 343.76a.81.81 0 0 0 .74 0l5.09-2.93c.21-.13.23-.32 0-.43l-4.83-2.84a.81.81 0 0 0-.74 0l-5.09 2.93c-.21.13-.23.32 0 .43Zm-8.64-9.06-5.08 2.94c-.22.12-.24.31 0 .43l4.86 2.8a.84.84 0 0 0 .74 0l5.08-2.94c.22-.12.24-.31 0-.42l-4.87-2.81a.84.84 0 0 0-.74 0Zm16.81 4.74 5.09-2.93c.21-.13.23-.32 0-.43l-4.86-2.81a.81.81 0 0 0-.74 0l-5.09 2.93c-.21.13-.23.32 0 .43l4.86 2.81a.81.81 0 0 0 .73 0Zm7.43-4.29 5.09-2.93c.21-.13.23-.32 0-.43l-4.83-2.79a.81.81 0 0 0-.74 0l-5.12 2.94c-.21.13-.23.32 0 .43l4.87 2.81a.82.82 0 0 0 .72-.03Zm7.43-4.29 5.09-2.93c.22-.13.23-.32 0-.43l-4.86-2.81a.81.81 0 0 0-.74 0l-5.08 2.93c-.22.13-.24.32-.05.43l4.87 2.81a.79.79 0 0 0 .74 0Zm-24.24-.45-5.08 2.94c-.22.12-.24.31 0 .42l4.86 2.81a.84.84 0 0 0 .74 0l5.08-2.94c.22-.12.24-.31 0-.42l-4.87-2.81a.84.84 0 0 0-.74 0Zm7.44-4.29-5.09 2.94c-.22.12-.24.31 0 .42l4.86 2.81a.84.84 0 0 0 .74 0l5.08-2.94c.22-.12.24-.31 0-.42L137 326.1a.82.82 0 0 0-.78.02ZM165.94 309l-5.09 2.94c-.21.12-.23.31 0 .42l4.87 2.81a.82.82 0 0 0 .73 0l5.09-2.94c.21-.12.23-.31 0-.43l-4.86-2.8a.84.84 0 0 0-.74 0Zm-7.43 4.29-5.09 2.94c-.21.12-.23.31 0 .42l4.86 2.81a.84.84 0 0 0 .74 0l5.09-2.94c.21-.12.23-.31 0-.43l-4.86-2.8a.84.84 0 0 0-.74-.04Zm14.86-8.58-5.08 2.94c-.22.12-.24.31 0 .42l4.87 2.81a.82.82 0 0 0 .73 0l5.09-2.94c.22-.12.23-.31 0-.43l-4.86-2.8a.84.84 0 0 0-.75-.04Zm-29.72 17.16-5.09 2.94c-.21.12-.23.31 0 .42l4.86 2.81a.84.84 0 0 0 .74 0l5.09-2.94c.21-.12.23-.31 0-.42l-4.87-2.81a.82.82 0 0 0-.73-.04Zm7.43-4.29-5.08 2.9c-.21.12-.23.31 0 .42l4.86 2.81a.84.84 0 0 0 .74 0l5.09-2.94c.21-.12.23-.31 0-.42l-4.86-2.81a.84.84 0 0 0-.75 0Zm-9.49 27.94 5.09-2.93c.21-.13.23-.32 0-.43l-4.86-2.81a.84.84 0 0 0-.74 0l-5.08 2.93c-.21.12-.23.31 0 .42l4.86 2.81a.81.81 0 0 0 .73-.03Zm-39.18-1.84-4.87-2.81a.84.84 0 0 0-.74 0l-5.08 2.94c-.22.12-.24.31 0 .42l4.82 2.77a.84.84 0 0 0 .74 0l5.08-2.94c.22-.12.24-.31.05-.42Zm9.68 2.43-4.86-2.81a.84.84 0 0 0-.74 0l-7.82 4.52c-.22.12-.24.32 0 .43l4.86 2.8a.81.81 0 0 0 .74 0l7.82-4.52c.18-.16.2-.35 0-.46Zm-16.94-8-4.87-2.81a.81.81 0 0 0-.74 0l-6.25 3.61c-.22.12-.24.31-.05.43l4.87 2.8a.84.84 0 0 0 .74 0l6.25-3.61c.22-.14.24-.33.05-.44Zm4.79-2.77a.81.81 0 0 0 .74 0l5.09-2.93c.21-.13.23-.32 0-.43l-4.77-2.86a.81.81 0 0 0-.74 0l-5.09 2.93c-.21.13-.23.32 0 .43ZM121 349l-4.87-2.81a.79.79 0 0 0-.73 0l-9.78 5.64c-.22.13-.24.32-.05.43l4.87 2.81a.81.81 0 0 0 .74 0l9.77-5.64c.22-.18.24-.37.05-.43Zm3.43 6-4.87-2.8a.81.81 0 0 0-.74 0l-6.25 3.61c-.22.13-.24.32 0 .43l4.87 2.81a.81.81 0 0 0 .74 0l6.25-3.61c.17-.14.19-.34 0-.44Zm30.76-51.57a.84.84 0 0 0 .74 0l5.09-2.94c.21-.12.23-.32 0-.43l-4.86-2.8a.81.81 0 0 0-.74 0l-5.09 2.94c-.21.12-.23.31 0 .42ZM140.33 312a.84.84 0 0 0 .74 0l5.09-2.94c.21-.12.23-.31 0-.43l-4.86-2.8a.81.81 0 0 0-.74 0l-5.09 2.94c-.21.12-.23.31 0 .42Zm-33 19a.79.79 0 0 0 .73 0l5.09-2.93c.21-.13.23-.32 0-.43l-4.86-2.81a.81.81 0 0 0-.74 0l-5.09 2.93c-.21.13-.23.32 0 .43Zm40.38-23.32a.84.84 0 0 0 .74 0l5.09-2.94c.21-.12.23-.32 0-.43l-4.86-2.8a.81.81 0 0 0-.74 0l-5.09 2.94c-.21.12-.23.31 0 .42Zm-14.86 8.58a.84.84 0 0 0 .74 0l5.08-2.94c.22-.12.24-.31.05-.43l-4.87-2.8a.82.82 0 0 0-.73 0l-5.09 2.94c-.22.12-.23.31 0 .42Zm-4.82 39a.81.81 0 0 0-.74 0l-7.82 4.52c-.22.12-.24.31 0 .42l4.87 2.81a.79.79 0 0 0 .73 0l7.83-4.51c.21-.13.23-.32 0-.43Zm-5.84-32.84a.81.81 0 0 0 .74 0l5.08-2.93c.22-.13.24-.32 0-.43l-4.86-2.81a.81.81 0 0 0-.74 0l-5.08 2.93c-.22.13-.24.32 0 .43Zm-7.43 4.29a.79.79 0 0 0 .73 0l5.09-2.93c.22-.13.23-.32 0-.43l-4.86-2.81a.81.81 0 0 0-.74 0L110 323.5c-.22.13-.24.32 0 .43Zm150.93-50.93a.79.79 0 0 0-.73 0L252.44 283c-.22.13-.23.32 0 .43l4.86 2.81a.81.81 0 0 0 .74 0l12.52-7.22c.21-.13.23-.32 0-.43Zm-16.42 9.49a.81.81 0 0 0-.74 0l-5.08 2.94c-.22.12-.24.31-.05.42l4.87 2.81a.82.82 0 0 0 .73 0l5.09-2.94c.21-.12.23-.32 0-.43ZM149 341.19l5.09-2.93c.21-.13.23-.32 0-.43l-4.8-2.83a.84.84 0 0 0-.74 0l-5.09 3c-.21.12-.23.31 0 .42l4.86 2.81a.81.81 0 0 0 .68-.04Zm85.44-47.31a.81.81 0 0 0-.74 0l-5.09 2.94c-.21.12-.23.31 0 .42l4.86 2.81a.84.84 0 0 0 .74 0l5.09-2.94c.21-.12.23-.32 0-.43Zm38.72-22.36a.81.81 0 0 0-.74 0l-5.09 2.93c-.21.13-.23.32 0 .43l4.86 2.81a.81.81 0 0 0 .74 0l5.09-2.93c.21-.13.23-.32 0-.43Zm12.31-1.52-11.81-6.82a.84.84 0 0 0-.74 0l-5.09 2.94c-.21.12-.23.32 0 .43l11.81 6.82a.81.81 0 0 0 .74 0l5.09-2.93c.17-.1.19-.29 0-.44Zm-78.78 39.87a.84.84 0 0 0-.74 0l-6.26 3.62c-.21.12-.23.31 0 .42l4.86 2.81a.84.84 0 0 0 .74 0l6.26-3.62c.21-.12.23-.31 0-.42Zm18.77-10.84a.84.84 0 0 0-.74 0l-7.82 4.52c-.22.12-.23.32 0 .43l4.86 2.81a.84.84 0 0 0 .74 0l7.82-4.52c.22-.12.24-.31.05-.42Zm-36 20.77a.81.81 0 0 0-.74 0L146.89 344c-.21.12-.23.32 0 .43l4.86 2.8a.84.84 0 0 0 .74 0l41.85-24.16c.22-.13.24-.32 0-.43Zm-44.2 25.52a.82.82 0 0 0-.73 0l-6.24 3.68c-.22.12-.24.31 0 .42l4.87 2.81a.84.84 0 0 0 .74 0l6.26-3.62c.21-.12.23-.31 0-.42Zm52.8-30.48a.79.79 0 0 0-.73 0l-6.26 3.61c-.22.13-.24.32-.05.43l4.87 2.81a.81.81 0 0 0 .74 0l6.25-3.61c.22-.12.24-.32 0-.43Zm-61.4 35.45a.84.84 0 0 0-.74 0l-6.24 3.71c-.21.13-.23.32 0 .43l4.86 2.81a.81.81 0 0 0 .74 0l6.26-3.61c.22-.12.24-.31 0-.43Zm78.61-45.39a.81.81 0 0 0-.74 0l-6.25 3.61c-.22.12-.24.31-.05.42l4.87 2.81a.82.82 0 0 0 .73 0l6.26-3.62c.22-.12.24-.31 0-.42Zm26.6-15.35a.81.81 0 0 0-.74 0l-5.09 2.94c-.21.12-.23.31 0 .42l4.87 2.81a.82.82 0 0 0 .73 0l5.09-2.94c.21-.12.23-.32 0-.43ZM258.53 278l5.09-2.94c.21-.12.23-.31 0-.42l-4.86-2.81a.84.84 0 0 0-.74 0l-5.02 2.93c-.21.12-.23.32 0 .43l4.86 2.8a.81.81 0 0 0 .67.01Zm-30.32 1.46 5.08-2.94c.22-.12.24-.31.05-.42l-4.87-2.81a.84.84 0 0 0-.74 0l-5.08 2.94c-.22.13-.24.32 0 .43l4.86 2.8a.81.81 0 0 0 .7-.03Zm-19.74 27.44 14.86-8.58c.22-.12.24-.31 0-.42l-4.87-2.81a.84.84 0 0 0-.74 0l-14.86 8.58c-.21.13-.23.32 0 .43l4.86 2.81a.81.81 0 0 0 .75-.04Zm41.89-24.59a.81.81 0 0 0 .74 0l5.09-2.94c.21-.12.23-.31 0-.42l-4.87-2.81a.82.82 0 0 0-.73 0l-5.09 2.94c-.21.12-.23.32 0 .43Zm-6.21-4 5.09-2.94c.21-.12.23-.31 0-.42l-4.86-2.81a.84.84 0 0 0-.74 0l-5.05 2.86c-.21.12-.23.31 0 .42l4.86 2.81a.84.84 0 0 0 .7.02ZM201 311.16l5.08-2.93c.22-.13.24-.32 0-.43l-4.78-2.8a.79.79 0 0 0-.73 0l-5.09 3c-.22.13-.23.32 0 .43l4.86 2.81a.81.81 0 0 0 .66-.08Zm32.9-19.39a.79.79 0 0 0 .73 0l5.09-2.93c.22-.13.23-.32 0-.43l-4.86-2.81a.81.81 0 0 0-.74 0l-5.08 2.93c-.22.13-.24.32-.05.43Zm-70.05 40.84 5.08-2.93c.22-.13.23-.32 0-.43l-4.86-2.81a.81.81 0 0 0-.74 0l-5.08 2.93c-.22.13-.24.32-.05.43l4.87 2.81a.81.81 0 0 0 .82 0Zm7.43-4.29 5.08-2.93c.22-.13.24-.32 0-.43l-4.86-2.81a.81.81 0 0 0-.74 0l-5.08 2.93c-.22.13-.24.32 0 .43l4.87 2.81a.81.81 0 0 0 .77 0Zm-14.87 8.58 5.09-2.93c.21-.13.23-.32 0-.43l-4.86-2.81a.81.81 0 0 0-.74 0l-5.09 2.93c-.21.13-.23.32 0 .43l4.87 2.81a.79.79 0 0 0 .77 0Zm29.73-17.16 5.08-2.93c.22-.13.24-.32.05-.43l-4.87-2.81a.81.81 0 0 0-.74 0l-5.08 2.93c-.22.13-.24.32 0 .43l4.86 2.81a.81.81 0 0 0 .74 0Zm-7.39 4.26 5.08-2.93c.22-.13.24-.32 0-.43l-4.83-2.78a.81.81 0 0 0-.74 0l-5.08 2.93c-.22.13-.24.32-.05.43l4.87 2.81a.81.81 0 0 0 .75-.03Zm14.86-8.58 5.08-2.93c.22-.13.24-.32.05-.43l-4.87-2.81a.81.81 0 0 0-.74 0l-5.08 2.93c-.22.13-.24.32 0 .43l4.86 2.81a.81.81 0 0 0 .7.03Zm40.55-59.68a.81.81 0 0 0 .74 0l5.08-2.93c.22-.13.24-.32.05-.43l-1.3-.75a.84.84 0 0 0-.74 0l-5.08 2.94c-.22.12-.24.31 0 .42Zm-36.93 23.38a.82.82 0 0 0 .73 0l5.09-2.94c.21-.12.23-.31 0-.42l-4.82-2.76a.84.84 0 0 0-.74 0l-5.09 2.94c-.21.12-.23.32 0 .43Zm14.86-8.58a.84.84 0 0 0 .74 0l5.08-2.94c.22-.12.24-.31 0-.42l-4.86-2.81a.84.84 0 0 0-.74 0l-5.08 2.94c-.22.12-.24.31-.05.43Zm-23.94 13.82a.84.84 0 0 0 .74 0l5.08-2.94c.22-.12.24-.31.05-.42l-4.87-2.81a.82.82 0 0 0-.73 0l-5.09 2.94c-.21.12-.23.31 0 .42Zm16.51-9.53a.84.84 0 0 0 .74 0l5.08-2.94c.21-.12.23-.31 0-.42l-4.86-2.81a.84.84 0 0 0-.74 0l-5.08 2.94c-.22.12-.24.31-.05.43ZM173.29 293a.84.84 0 0 0 .74 0l5.08-2.94c.22-.12.24-.31 0-.42l-4.87-2.81a.84.84 0 0 0-.74 0l-5.08 2.94c-.22.12-.24.31 0 .43Zm7.43-4.29a.84.84 0 0 0 .74 0l5.08-2.94c.22-.12.24-.31.05-.42l-4.87-2.81a.84.84 0 0 0-.74 0l-5.08 2.94c-.22.12-.24.31 0 .42Zm38.58-24.33a.81.81 0 0 0 .74 0l5.08-2.93c.22-.13.24-.32 0-.43l-1.29-.74a.81.81 0 0 0-.74 0l-5.08 2.94c-.22.12-.24.31-.05.42Zm22.29-12.87a.81.81 0 0 0 .74 0l5.08-2.93c.22-.13.24-.32.05-.43l-1.3-.75a.81.81 0 0 0-.74 0l-5.08 2.94c-.22.12-.24.31 0 .42Zm10.22 5.9a.81.81 0 0 0 .74 0l5.08-2.93c.22-.13.24-.32.05-.43l-4.87-2.81a.81.81 0 0 0-.74 0l-5.07 2.9c-.22.13-.24.32-.05.43ZM266 273.68l5.09-2.94c.21-.12.23-.31 0-.42l-4.86-2.81a.84.84 0 0 0-.74 0l-5.09 2.94c-.21.12-.23.32 0 .43l4.86 2.8a.81.81 0 0 0 .74 0Zm-39.23-13.62a.81.81 0 0 0 .74 0l5.08-2.93c.22-.13.24-.32 0-.43l-1.3-.74a.81.81 0 0 0-.74 0l-5.08 2.94c-.22.12-.24.31 0 .42Zm-60.87 37.2a.84.84 0 0 0 .74 0l5.08-2.94c.22-.12.24-.31 0-.42l-4.87-2.81a.84.84 0 0 0-.74 0L161 294c-.22.12-.24.31 0 .43Z" style="fill:#455a64"/><path style="fill:#37474f" d="m187.85 335.59 1.04.6 27.69 15.98 49.24-28.43 1.03-.58-28.73-16.59-50.27 29.02z"/><path style="fill:#263238" d="m188.89 336.19 27.69 15.98 49.24-28.43-27.7-15.98-49.23 28.43z"/><path d="M74.3 199.92a7.38 7.38 0 0 1 3.23-1.08 4.72 4.72 0 0 1 2.54.54 4.31 4.31 0 0 1 1.67 1.74 5.45 5.45 0 0 1 .63 2.47 1.8 1.8 0 0 1-.18.76 1.17 1.17 0 0 1-.39.5l-3.6 2.08a1 1 0 0 1-.62.18 1.05 1.05 0 0 1-.48-.23l-.26-.27a1.4 1.4 0 0 0-.51-.32 1.76 1.76 0 0 0-.82-.07 3.24 3.24 0 0 0-1.21.46 7.42 7.42 0 0 0-1 .69 5.57 5.57 0 0 0-.85.83 3.6 3.6 0 0 0-.6 1 3 3 0 0 0-.24 1.19 1.32 1.32 0 0 0 .26.91 1.2 1.2 0 0 0 .88.27 7.41 7.41 0 0 0 1.63-.24l2.53-.66a8.57 8.57 0 0 1 2.64-.34 3.2 3.2 0 0 1 1.88.71 3.9 3.9 0 0 1 1.12 1.89 11.51 11.51 0 0 1 .37 3.23 14.27 14.27 0 0 1-.63 4.21 17.23 17.23 0 0 1-1.77 3.92 18 18 0 0 1-2.69 3.39 16.84 16.84 0 0 1-3.39 2.59 8.26 8.26 0 0 1-3.4 1.2 4.54 4.54 0 0 1-2.65-.48 4.28 4.28 0 0 1-1.75-1.8 6 6 0 0 1-.64-2.79 1.78 1.78 0 0 1 .17-.76 1.12 1.12 0 0 1 .4-.5l3.6-2.08a1.1 1.1 0 0 1 .6-.2.94.94 0 0 1 .44.19l.33.36a1.82 1.82 0 0 0 .59.44 1.79 1.79 0 0 0 .93.16 3.36 3.36 0 0 0 1.39-.5 10.33 10.33 0 0 0 2.43-1.89 3.33 3.33 0 0 0 1-2.32.94.94 0 0 0-.35-.85 1.85 1.85 0 0 0-1.07-.16 9.69 9.69 0 0 0-1.83.35c-.74.21-1.61.43-2.62.67-1.89.47-3.26.23-4.13-.72s-1.31-2.63-1.31-5.06a14.12 14.12 0 0 1 .54-3.77 17.33 17.33 0 0 1 1.51-3.76 17.62 17.62 0 0 1 2.46-3.43 13.78 13.78 0 0 1 3.22-2.65ZM98.4 186.33a.4.4 0 0 1 .52 0 .9.9 0 0 1 .22.68v4.48a2.11 2.11 0 0 1-.22.93 1.38 1.38 0 0 1-.52.64l-4.83 2.79v21.67a2.11 2.11 0 0 1-.22.93 1.39 1.39 0 0 1-.52.64l-3.6 2.08a.41.41 0 0 1-.52 0 .91.91 0 0 1-.22-.67v-21.68l-4.83 2.79a.41.41 0 0 1-.52 0 .9.9 0 0 1-.22-.68v-4.48a2.11 2.11 0 0 1 .22-.93 1.44 1.44 0 0 1 .52-.64ZM108.73 180.36c.36-.21.64-.21.83 0a1.55 1.55 0 0 1 .4.7l6 23.17a2.22 2.22 0 0 1 .11.57 1.73 1.73 0 0 1-.18.76 1.1 1.1 0 0 1-.43.52l-3.46 2q-.54.31-.78.09a1 1 0 0 1-.29-.53l-.77-3.06-7.3 4.21-.76 3.95a3.53 3.53 0 0 1-.29.87 1.89 1.89 0 0 1-.78.81l-3.46 2a.32.32 0 0 1-.43 0 .71.71 0 0 1-.18-.55 4 4 0 0 1 .11-.7l6-30.07a5.45 5.45 0 0 1 .39-1.16 2.12 2.12 0 0 1 .84-.95Zm-4.45 21 4.45-2.57-2.23-8.79ZM125.51 170.71a9.94 9.94 0 0 1 3.24-1.28 3.48 3.48 0 0 1 2.43.38 3.82 3.82 0 0 1 1.53 2.13 12.21 12.21 0 0 1 .54 4 18.23 18.23 0 0 1-.85 5.75 15 15 0 0 1-2.42 4.59l3.41 8.09a1.25 1.25 0 0 1 .08.42 1.72 1.72 0 0 1-.18.75 1 1 0 0 1-.43.52l-3.73 2.16c-.36.21-.62.24-.78.07a1.79 1.79 0 0 1-.37-.54l-3-7.29-2.52 1.46v9a2.26 2.26 0 0 1-.22.93 1.44 1.44 0 0 1-.52.64l-3.6 2.08a.41.41 0 0 1-.52 0 .9.9 0 0 1-.22-.68v-27.3a2.18 2.18 0 0 1 .22-.93 1.41 1.41 0 0 1 .52-.63Zm-3.1 14.6 3.1-1.79a5.91 5.91 0 0 0 1.91-1.78 5.08 5.08 0 0 0 .75-2.89q0-1.77-.75-2a2.46 2.46 0 0 0-1.91.42l-3.1 1.79ZM149.47 156.86a.41.41 0 0 1 .52 0 .9.9 0 0 1 .22.68v4.48a2.11 2.11 0 0 1-.22.93 1.44 1.44 0 0 1-.52.64l-4.83 2.78v21.68a2.11 2.11 0 0 1-.22.93 1.39 1.39 0 0 1-.52.64l-3.6 2.08a.41.41 0 0 1-.52 0 .89.89 0 0 1-.22-.67v-21.68l-4.83 2.79a.41.41 0 0 1-.52 0 .9.9 0 0 1-.22-.68v-4.48a2.11 2.11 0 0 1 .22-.93 1.44 1.44 0 0 1 .52-.64ZM82.92 237.5a.4.4 0 0 1 .52 0 .9.9 0 0 1 .22.68v16.86a24.27 24.27 0 0 1-.6 5.5 20.4 20.4 0 0 1-1.72 4.75 17 17 0 0 1-2.65 3.83 14.23 14.23 0 0 1-3.37 2.74 8.19 8.19 0 0 1-3.41 1.18 3.64 3.64 0 0 1-2.63-.78 5.68 5.68 0 0 1-1.7-2.78 15.86 15.86 0 0 1-.61-4.81v-16.82a2.26 2.26 0 0 1 .22-.93 1.39 1.39 0 0 1 .53-.64l3.59-2.07a.39.39 0 0 1 .52 0 .9.9 0 0 1 .22.68v16.69a5.65 5.65 0 0 0 .81 3.51c.54.64 1.36.65 2.46 0a5.7 5.7 0 0 0 2.45-2.85 11.28 11.28 0 0 0 .81-4.44v-16.65a2.26 2.26 0 0 1 .22-.93 1.39 1.39 0 0 1 .52-.64ZM95.19 230.44a8.86 8.86 0 0 1 3.16-1.21 3.26 3.26 0 0 1 2.38.48 4.28 4.28 0 0 1 1.53 2.22 12.76 12.76 0 0 1 .53 4 19.79 19.79 0 0 1-.53 4.66 16.3 16.3 0 0 1-1.53 4 14.6 14.6 0 0 1-5.54 5.7l-3.51 2v8.63a2.26 2.26 0 0 1-.22.93 1.36 1.36 0 0 1-.52.63l-3.6 2.08a.38.38 0 0 1-.52 0 .87.87 0 0 1-.22-.67v-27.3a2.11 2.11 0 0 1 .22-.93 1.38 1.38 0 0 1 .52-.64Zm-3.51 15.25 3.37-1.95a5.37 5.37 0 0 0 1.95-1.88 5.6 5.6 0 0 0 .75-3c0-1.19-.25-1.89-.75-2.12a2.08 2.08 0 0 0-1.91.32l-3.37 2Z" style="fill:#7000ff"/><ellipse cx="187.87" cy="313.18" rx="41.87" ry="17.16" style="fill:#7000ff"/><ellipse cx="187.87" cy="313.18" rx="41.87" ry="17.16" style="fill:#7000ff"/><ellipse cx="191.3" cy="313.18" rx="45.29" ry="18.57" style="fill:#fff;opacity:.9"/><path d="M145.23 304.32a18.6 18.6 0 0 1 37.19 0 4.52 4.52 0 0 1 0 .52 4.35 4.35 0 0 1 0 .51c-.21 2.58-2 5.11-5.44 7.08-7.26 4.2-19 4.2-26.32 0-3.4-2-5.22-4.5-5.43-7.08a4.35 4.35 0 0 1 0-.51 4.52 4.52 0 0 1 0-.52Z" style="fill:#7000ff"/><path d="M145.23 304.32a18.6 18.6 0 0 1 37.19 0 4.52 4.52 0 0 1 0 .52 4.35 4.35 0 0 1 0 .51c-.21 2.58-2 5.11-5.44 7.08-7.26 4.2-19 4.2-26.32 0-3.4-2-5.22-4.5-5.43-7.08a4.35 4.35 0 0 1 0-.51 4.52 4.52 0 0 1 0-.52Z" style="fill:#fff;opacity:.8"/><path d="M155.75 288.08a18.57 18.57 0 0 1 26.67 16.24 4.52 4.52 0 0 1 0 .52 4.35 4.35 0 0 1 0 .51c-.21 2.58-2 5.11-5.44 7.08a24.56 24.56 0 0 1-9.34 2.91c4.83-.83 8-6.22 6.47-12.17-1.72-6.9-8.7-16.87-18.36-15.09Z" style="fill:#fff;opacity:.30000000000000004"/><path d="M145.23 305.35a4.35 4.35 0 0 1 0-.51 4.52 4.52 0 0 1 0-.52 18.51 18.51 0 0 1 6.31-13.44c-2 2.07-6.51 9.9-1.63 15.87 3.22 3.93 18.47 9.53 31 2.33a13 13 0 0 1-4 3.35c-7.26 4.2-19 4.2-26.32 0-3.33-1.97-5.15-4.5-5.36-7.08Z" style="fill:#7000ff;opacity:.1"/><path d="M164 290.42c-.83 1.89.77 4.43 3.58 5.66s5.75.7 6.59-1.2-.77-4.43-3.58-5.66-5.74-.7-6.59 1.2ZM174.79 298.14a2.44 2.44 0 0 0 4.38 1.92 2.44 2.44 0 0 0-4.38-1.92Z" style="fill:#fff;opacity:.5"/><path d="M223 304a15.8 15.8 0 0 0-31.59 0v.88c.18 2.19 1.72 4.33 4.63 6 6.16 3.56 16.17 3.56 22.35 0 2.89-1.68 4.43-3.82 4.61-6V304Z" style="fill:#7000ff"/><path d="M223 304a15.8 15.8 0 0 0-31.59 0v.88c.18 2.19 1.72 4.33 4.63 6 6.16 3.56 16.17 3.56 22.35 0 2.89-1.68 4.43-3.82 4.61-6V304Z" style="fill:#fff;opacity:.8"/><path d="M214.05 290.24A15.77 15.77 0 0 0 191.4 304v.88c.18 2.19 1.72 4.33 4.63 6a21.22 21.22 0 0 0 7.97 2.52c-4.1-.71-6.75-5.29-5.49-10.34 1.41-5.86 7.34-14.33 15.54-12.82Z" style="fill:#fff;opacity:.30000000000000004"/><path d="M223 304.91v-.88a15.77 15.77 0 0 0-5.36-11.42c1.71 1.77 5.53 8.42 1.38 13.49-2.73 3.33-15.68 8.09-26.34 2a11.12 11.12 0 0 0 3.36 2.84c6.16 3.56 16.17 3.56 22.35 0 2.88-1.7 4.42-3.84 4.61-6.03Z" style="fill:#7000ff;opacity:.1"/><path d="M207 292.23c.7 1.61-.66 3.76-3 4.81s-4.89.59-5.59-1 .65-3.77 3-4.81 4.92-.61 5.59 1ZM197.88 298.78a2.08 2.08 0 1 1-2.52-.7 1.87 1.87 0 0 1 2.52.7Z" style="fill:#fff;opacity:.5"/><path d="M238.41 305.85a10.44 10.44 0 0 0-20.88 0 4.21 4.21 0 0 0 0 .58c.12 1.45 1.13 2.87 3.05 4a16.4 16.4 0 0 0 14.79 0c1.91-1.11 2.93-2.53 3-4a4.21 4.21 0 0 0 0-.58Z" style="fill:#7000ff"/><path d="M238.41 305.85a10.44 10.44 0 0 0-20.88 0 4.21 4.21 0 0 0 0 .58c.12 1.45 1.13 2.87 3.05 4a16.4 16.4 0 0 0 14.79 0c1.91-1.11 2.93-2.53 3-4a4.21 4.21 0 0 0 0-.58Z" style="fill:#fff;opacity:.9"/><path d="M232.5 296.73a10.43 10.43 0 0 0-15 9.12 4.21 4.21 0 0 0 0 .58c.12 1.45 1.13 2.87 3.05 4a13.88 13.88 0 0 0 5.25 1.63c-2.71-.46-4.47-3.49-3.63-6.83.99-3.9 4.91-9.5 10.33-8.5Z" style="fill:#fff;opacity:.5"/><path d="M238.41 306.43a4.21 4.21 0 0 0 0-.58 10.36 10.36 0 0 0-3.54-7.55c1.13 1.17 3.66 5.57.91 8.92-1.8 2.2-10.36 5.35-17.41 1.31a7.37 7.37 0 0 0 2.21 1.88 16.4 16.4 0 0 0 14.79 0c1.91-1.11 2.93-2.53 3.04-3.98Z" style="fill:#7000ff;opacity:.1"/><path d="M227.86 298c.47 1.07-.43 2.49-2 3.19s-3.23.39-3.7-.68.43-2.49 2-3.18 3.24-.33 3.7.67ZM221.81 302.38a1.23 1.23 0 0 1-.79 1.54 1.12 1.12 0 1 1 .79-1.54Z" style="fill:#fff;opacity:.5"/><path d="M260.67 310.39a14.2 14.2 0 0 0-28.39 0v.8c.17 2 1.55 3.89 4.16 5.4 5.54 3.2 14.54 3.2 20.09 0 2.59-1.51 4-3.44 4.14-5.4v-.4c0-.14.01-.26 0-.4Z" style="fill:#7000ff"/><path d="M260.67 310.39a14.2 14.2 0 0 0-28.39 0v.8c.17 2 1.55 3.89 4.16 5.4 5.54 3.2 14.54 3.2 20.09 0 2.59-1.51 4-3.44 4.14-5.4v-.4c0-.14.01-.26 0-.4Z" style="fill:#fff;opacity:.7000000000000001"/><path d="M252.64 298a14.2 14.2 0 0 0-20.36 12.39v.8c.17 2 1.55 3.89 4.16 5.4a18.77 18.77 0 0 0 7.12 2.22c-3.68-.64-6.07-4.75-4.93-9.29 1.31-5.26 6.64-12.88 14.01-11.52Z" style="fill:#fff;opacity:.30000000000000004"/><path d="M260.67 311.19v-.8a14.14 14.14 0 0 0-4.82-10.25c1.54 1.58 5 7.56 1.24 12.11-2.45 3-14.09 7.28-23.66 1.78a9.73 9.73 0 0 0 3 2.56c5.54 3.2 14.54 3.2 20.09 0 2.6-1.51 3.99-3.44 4.15-5.4Z" style="fill:#7000ff;opacity:.1"/><path d="M246.33 299.79c.64 1.44-.58 3.38-2.73 4.32s-4.39.53-5-.92.58-3.38 2.72-4.32 4.38-.53 5.01.92ZM238.11 305.68a1.87 1.87 0 1 1-2.27-.63 1.69 1.69 0 0 1 2.27.63Z" style="fill:#fff;opacity:.5"/><path d="M204.86 279.56a16.93 16.93 0 0 1-6 12.93 11.06 11.06 0 0 0-4 8.41v34.5a3.45 3.45 0 0 1-2 2.85 9 9 0 0 1-2.56.94 12.25 12.25 0 0 1-4.75 0 8.79 8.79 0 0 1-2.55-.94 3.47 3.47 0 0 1-2-2.85v-34.58a10.93 10.93 0 0 0-4-8.31 16.9 16.9 0 0 1-6-13.08 17 17 0 0 1 34 .13Z" style="fill:#7000ff"/><path d="M204.86 279.56a16.93 16.93 0 0 1-6 12.93 11.06 11.06 0 0 0-4 8.41v34.5a3.45 3.45 0 0 1-2 2.85 9 9 0 0 1-2.56.94 12.25 12.25 0 0 1-4.75 0 8.79 8.79 0 0 1-2.55-.94 3.47 3.47 0 0 1-2-2.85v-34.58a10.93 10.93 0 0 0-4-8.31 16.9 16.9 0 0 1-6-13.08 17 17 0 0 1 34 .13Z" style="fill:#fff;opacity:.5"/><path d="M204.86 279.56a16.93 16.93 0 0 1-6 12.93 11.06 11.06 0 0 0-4 8.41v34.5a3.45 3.45 0 0 1-2 2.85 9 9 0 0 1-2.56.94 12.25 12.25 0 0 1-4.75 0 8.79 8.79 0 0 1-2.55-.94 3.47 3.47 0 0 1-2-2.85v-34.58a10.93 10.93 0 0 0-4-8.31 16.9 16.9 0 0 1-6-13.08 17 17 0 0 1 34 .13Z" style="opacity:.15"/><path d="M197.35 279.56a9.47 9.47 0 0 1-4 7.72 7.7 7.7 0 0 0-3.11 6.3v42.83a2.41 2.41 0 0 1-2.35 2.43h-.05a2.41 2.41 0 0 1-2.35-2.43v-43a7.59 7.59 0 0 0-3.1-6.18 9.43 9.43 0 0 1-4-8 9.47 9.47 0 0 1 18.94.26Z" style="fill:#7000ff"/><path d="M197.35 279.56a9.47 9.47 0 0 1-4 7.72 7.7 7.7 0 0 0-3.11 6.3v42.83a2.41 2.41 0 0 1-2.35 2.43h-.05a2.41 2.41 0 0 1-2.35-2.43v-43a7.59 7.59 0 0 0-3.1-6.18 9.43 9.43 0 0 1-4-8 9.47 9.47 0 0 1 18.94.26Z" style="fill:#fff;opacity:.25"/><circle cx="196.48" cy="287.68" r="3.59" style="fill:#fff;opacity:.7000000000000001"/><circle cx="194.96" cy="277.03" r="2.7" style="fill:#fff;opacity:.7000000000000001"/><path d="M187.09 272.71a1.34 1.34 0 1 1 1.34 1.34 1.34 1.34 0 0 1-1.34-1.34ZM176.39 274.32A3.64 3.64 0 1 1 180 278a3.63 3.63 0 0 1-3.61-3.68ZM175.78 280.89a1.71 1.71 0 1 0 3.41 0 1.71 1.71 0 0 0-3.41 0ZM176 287.41a3.32 3.32 0 1 1 3.32 3.31 3.32 3.32 0 0 1-3.32-3.31ZM183.31 292.24a2.28 2.28 0 1 1 2.28 2.28 2.28 2.28 0 0 1-2.28-2.28Z" style="fill:#fff;opacity:.7000000000000001"/><circle cx="173.71" cy="277.03" r="1.16" style="fill:#fff;opacity:.7000000000000001"/><circle cx="199.37" cy="272.22" r="1.53" style="fill:#fff;opacity:.7000000000000001"/><path d="M199.36 279.73a1.54 1.54 0 1 1 1.54 1.54 1.54 1.54 0 0 1-1.54-1.54ZM183.39 281a1.55 1.55 0 1 1 1.54 1.54 1.54 1.54 0 0 1-1.54-1.54Z" style="fill:#fff;opacity:.7000000000000001"/><path d="M276.7 312.85a8.65 8.65 0 0 0-17.3 0 2 2 0 0 0 0 .24 2.09 2.09 0 0 0 0 .25 4.44 4.44 0 0 0 2.53 3.29 13.54 13.54 0 0 0 12.24 0 4.48 4.48 0 0 0 2.53-3.29v-.49Z" style="fill:#7000ff"/><path d="M276.7 312.85a8.65 8.65 0 0 0-17.3 0 2 2 0 0 0 0 .24 2.09 2.09 0 0 0 0 .25 4.44 4.44 0 0 0 2.53 3.29 13.54 13.54 0 0 0 12.24 0 4.48 4.48 0 0 0 2.53-3.29v-.49Z" style="fill:#fff;opacity:.5"/><path d="M271.8 305.3a8.64 8.64 0 0 0-12.4 7.55 2 2 0 0 0 0 .24 2.09 2.09 0 0 0 0 .25 4.44 4.44 0 0 0 2.53 3.29 11.51 11.51 0 0 0 4.34 1.35c-2.25-.38-3.7-2.89-3-5.66.79-3.21 4.04-7.85 8.53-7.02Z" style="fill:#fff;opacity:.5"/><path d="M276.7 313.34v-.49a8.66 8.66 0 0 0-2.94-6.25c.94 1 3 4.61.76 7.39-1.5 1.82-8.59 4.43-14.43 1.08a6.2 6.2 0 0 0 1.84 1.56 13.54 13.54 0 0 0 12.24 0 4.48 4.48 0 0 0 2.53-3.29Z" style="fill:#7000ff;opacity:.2"/><path d="M268 306.39c.39.88-.36 2.06-1.66 2.63s-2.68.33-3.07-.56.36-2.06 1.66-2.63 2.64-.32 3.07.56ZM263 310a1.13 1.13 0 1 1-1.39-.39 1 1 0 0 1 1.39.39Z" style="fill:#fff;opacity:.5"/><path d="M263.74 320a11.91 11.91 0 0 0-23.82 0v.67c.13 1.65 1.29 3.27 3.48 4.53 4.65 2.69 12.2 2.69 16.86 0 2.18-1.26 3.34-2.88 3.48-4.53v-.33c0-.11.01-.25 0-.34Z" style="fill:#7000ff"/><path d="M263.74 320a11.91 11.91 0 0 0-23.82 0v.67c.13 1.65 1.29 3.27 3.48 4.53 4.65 2.69 12.2 2.69 16.86 0 2.18-1.26 3.34-2.88 3.48-4.53v-.33c0-.11.01-.25 0-.34Z" style="fill:#fff;opacity:.6000000000000001"/><path d="M257 309.58A11.9 11.9 0 0 0 239.92 320v.67c.13 1.65 1.29 3.27 3.48 4.53a16 16 0 0 0 6 1.87c-3.09-.54-5.09-4-4.14-7.8 1.08-4.45 5.55-10.84 11.74-9.69Z" style="fill:#fff;opacity:.5"/><path d="M263.74 320.64v-.67a11.81 11.81 0 0 0-4.05-8.6c1.3 1.33 4.18 6.34 1.05 10.17-2.06 2.51-11.83 6.1-19.86 1.49a8.4 8.4 0 0 0 2.52 2.14c4.65 2.69 12.2 2.69 16.86 0 2.18-1.26 3.34-2.88 3.48-4.53Z" style="fill:#7000ff;opacity:.1"/><path d="M251.71 311.07c.53 1.22-.49 2.84-2.29 3.63s-3.69.45-4.22-.77.49-2.84 2.29-3.63 3.68-.44 4.22.77ZM244.81 316a1.57 1.57 0 0 1-2.81 1.23 1.57 1.57 0 0 1 2.81-1.23Z" style="fill:#fff;opacity:.30000000000000004"/><path d="M242.61 325.77a14.79 14.79 0 0 0-29.57 0v.83c.17 2 1.61 4 4.33 5.62 5.77 3.34 15.14 3.34 20.92 0 2.71-1.57 4.15-3.57 4.32-5.62v-.41c0-.14.01-.27 0-.42Z" style="fill:#7000ff"/><path d="M242.61 325.77a14.79 14.79 0 0 0-29.57 0v.83c.17 2 1.61 4 4.33 5.62 5.77 3.34 15.14 3.34 20.92 0 2.71-1.57 4.15-3.57 4.32-5.62v-.41c0-.14.01-.27 0-.42Z" style="fill:#fff;opacity:.8"/><path d="M234.24 312.87a14.76 14.76 0 0 0-21.2 12.9v.83c.17 2 1.61 4 4.33 5.62a19.71 19.71 0 0 0 7.42 2.32c-3.84-.66-6.32-4.94-5.14-9.67 1.35-5.49 6.92-13.42 14.59-12Z" style="fill:#fff;opacity:.30000000000000004"/><path d="M242.61 326.6v-.83a14.72 14.72 0 0 0-5-10.68c1.6 1.65 5.18 7.88 1.3 12.62-2.56 3.12-14.68 7.58-24.66 1.85a10.18 10.18 0 0 0 3.14 2.66c5.77 3.34 15.14 3.34 20.92 0 2.69-1.57 4.13-3.57 4.3-5.62Z" style="fill:#7000ff;opacity:.1"/><path d="M227.68 314.73c.66 1.5-.61 3.52-2.84 4.5s-4.58.55-5.24-1 .61-3.52 2.84-4.5 4.56-.51 5.24 1ZM219.11 320.86a1.77 1.77 0 0 1-1.12 2.19 1.59 1.59 0 1 1-1.25-2.85 1.76 1.76 0 0 1 2.37.66Z" style="fill:#fff;opacity:.30000000000000004"/><path d="M284 314.88a5.23 5.23 0 0 0-10.46 0v.29a2.67 2.67 0 0 0 1.53 2 8.18 8.18 0 0 0 7.4 0 2.67 2.67 0 0 0 1.53-2v-.29Z" style="fill:#7000ff"/><path d="M284 314.88a5.23 5.23 0 0 0-10.46 0v.29a2.67 2.67 0 0 0 1.53 2 8.18 8.18 0 0 0 7.4 0 2.67 2.67 0 0 0 1.53-2v-.29Z" style="fill:#fff;opacity:.2"/><path d="M281.06 310.32a5.23 5.23 0 0 0-7.5 4.56v.29a2.67 2.67 0 0 0 1.53 2 7.12 7.12 0 0 0 2.63.82 2.64 2.64 0 0 1-1.82-3.42c.48-1.95 2.44-4.75 5.16-4.25Z" style="fill:#fff;opacity:.5"/><path d="M284 315.17v-.29a5.19 5.19 0 0 0-1.78-3.78c.57.59 1.83 2.79.46 4.47-.9 1.1-5.19 2.67-8.72.65a3.77 3.77 0 0 0 1.11.94 8.18 8.18 0 0 0 7.4 0 2.67 2.67 0 0 0 1.53-1.99Z" style="fill:#455a64"/><path d="M278.74 311c.23.54-.22 1.25-1 1.6s-1.61.19-1.85-.34.22-1.25 1-1.59 1.61-.23 1.85.33ZM275.71 313.14a.63.63 0 0 1-.4.78.56.56 0 1 1-.44-1 .63.63 0 0 1 .84.22Z" style="fill:#fff;opacity:.30000000000000004"/><path d="M104.62 308.44a8.65 8.65 0 0 1 17.3 0 2 2 0 0 1 0 .24 2.09 2.09 0 0 1 0 .25 4.46 4.46 0 0 1-2.53 3.29 13.54 13.54 0 0 1-12.24 0 4.46 4.46 0 0 1-2.53-3.29 2.09 2.09 0 0 1 0-.25 2 2 0 0 1 0-.24Z" style="fill:#7000ff"/><path d="M104.62 308.44a8.65 8.65 0 0 1 17.3 0 2 2 0 0 1 0 .24 2.09 2.09 0 0 1 0 .25 4.46 4.46 0 0 1-2.53 3.29 13.54 13.54 0 0 1-12.24 0 4.46 4.46 0 0 1-2.53-3.29 2.09 2.09 0 0 1 0-.25 2 2 0 0 1 0-.24Z" style="fill:#fff;opacity:.5"/><path d="M109.52 300.89a8.54 8.54 0 0 1 3.75-.86 8.64 8.64 0 0 1 8.65 8.41 2 2 0 0 1 0 .24 2.09 2.09 0 0 1 0 .25 4.46 4.46 0 0 1-2.53 3.29 11.51 11.51 0 0 1-4.34 1.35c2.24-.38 3.7-2.89 3-5.66-.79-3.21-4.05-7.85-8.53-7.02Z" style="fill:#fff;opacity:.5"/><path d="M104.62 308.93a2.09 2.09 0 0 1 0-.25 2 2 0 0 1 0-.24 8.62 8.62 0 0 1 2.94-6.25c-.94 1-3 4.61-.76 7.39 1.5 1.82 8.59 4.43 14.43 1.08a6.33 6.33 0 0 1-1.84 1.56 13.54 13.54 0 0 1-12.24 0 4.46 4.46 0 0 1-2.53-3.29Z" style="fill:#7000ff;opacity:.2"/><path d="M113.36 302c-.39.88.36 2.06 1.66 2.63s2.68.33 3.07-.56-.36-2.06-1.67-2.63-2.67-.34-3.06.56ZM118.37 305.57a1.13 1.13 0 1 0 1.39-.39 1 1 0 0 0-1.39.39Z" style="fill:#fff;opacity:.30000000000000004"/><path d="M123.17 311.75a12.55 12.55 0 0 1 25.1 0v.7c-.15 1.73-1.37 3.44-3.68 4.77-4.89 2.83-12.85 2.83-17.75 0-2.3-1.33-3.52-3-3.67-4.77v-.35c0-.12-.01-.23 0-.35Z" style="fill:#7000ff"/><path d="M123.17 311.75a12.55 12.55 0 0 1 25.1 0v.7c-.15 1.73-1.37 3.44-3.68 4.77-4.89 2.83-12.85 2.83-17.75 0-2.3-1.33-3.52-3-3.67-4.77v-.35c0-.12-.01-.23 0-.35Z" style="fill:#fff;opacity:.7000000000000001"/><path d="M130.27 300.79a12.55 12.55 0 0 1 18 11v.7c-.15 1.73-1.37 3.44-3.68 4.77a16.54 16.54 0 0 1-6.29 2c3.25-.57 5.36-4.2 4.36-8.22-1.16-4.72-5.87-11.45-12.39-10.25Z" style="fill:#fff;opacity:.30000000000000004"/><path d="M123.17 312.45v-.7a12.52 12.52 0 0 1 4.26-9.07c-1.36 1.4-4.39 6.68-1.1 10.71 2.17 2.65 12.46 6.43 20.93 1.57a8.61 8.61 0 0 1-2.67 2.26c-4.89 2.83-12.85 2.83-17.75 0-2.3-1.33-3.52-3.04-3.67-4.77Z" style="fill:#7000ff;opacity:.1"/><path d="M135.85 302.37c-.56 1.28.52 3 2.41 3.82s3.88.47 4.44-.81-.51-3-2.41-3.82-3.88-.47-4.44.81ZM143.12 307.58a1.65 1.65 0 1 0 2-.56 1.49 1.49 0 0 0-2 .56Z" style="fill:#fff;opacity:.5"/><path d="M112.13 319.11a11.91 11.91 0 0 1 23.82 0v.67c-.14 1.65-1.3 3.26-3.49 4.53-4.65 2.69-12.2 2.69-16.86 0-2.18-1.27-3.34-2.88-3.47-4.53v-.34c0-.12-.01-.21 0-.33Z" style="fill:#7000ff"/><path d="M112.13 319.11a11.91 11.91 0 0 1 23.82 0v.67c-.14 1.65-1.3 3.26-3.49 4.53-4.65 2.69-12.2 2.69-16.86 0-2.18-1.27-3.34-2.88-3.47-4.53v-.34c0-.12-.01-.21 0-.33Z" style="fill:#fff;opacity:.6000000000000001"/><path d="M118.87 308.71a11.9 11.9 0 0 1 17.13 10.4v.67c-.14 1.65-1.3 3.26-3.49 4.53a16 16 0 0 1-6 1.87c3.09-.54 5.09-4 4.14-7.8-1.13-4.38-5.6-10.81-11.78-9.67Z" style="fill:#fff;opacity:.5"/><path d="M112.13 319.78v-.67a11.84 11.84 0 0 1 4-8.61c-1.29 1.33-4.17 6.35-1 10.17 2.06 2.52 11.83 6.11 19.87 1.49a8.21 8.21 0 0 1-2.53 2.15c-4.65 2.69-12.2 2.69-16.86 0-2.19-1.31-3.35-2.88-3.48-4.53Z" style="fill:#7000ff;opacity:.15"/><path d="M124.16 310.21c-.54 1.21.49 2.84 2.29 3.63s3.68.44 4.22-.77-.5-2.84-2.29-3.63-3.69-.44-4.22.77ZM131.06 315.15a1.57 1.57 0 0 0 2.81 1.24 1.57 1.57 0 0 0-2.81-1.24Z" style="fill:#fff;opacity:.30000000000000004"/><path d="M137.4 324.34a14.79 14.79 0 0 1 29.56 0v.82c-.17 2-1.61 4.06-4.32 5.63-5.77 3.34-15.15 3.34-20.93 0-2.7-1.57-4.14-3.58-4.31-5.63v-.41c0-.14-.01-.27 0-.41Z" style="fill:#7000ff"/><path d="M137.4 324.34a14.79 14.79 0 0 1 29.56 0v.82c-.17 2-1.61 4.06-4.32 5.63-5.77 3.34-15.15 3.34-20.93 0-2.7-1.57-4.14-3.58-4.31-5.63v-.41c0-.14-.01-.27 0-.41Z" style="fill:#fff;opacity:.8"/><path d="M145.76 311.44a14.76 14.76 0 0 1 21.2 12.9v.82c-.17 2-1.61 4.06-4.32 5.63a19.71 19.71 0 0 1-7.42 2.32c3.83-.67 6.32-4.95 5.14-9.68-1.36-5.43-6.92-13.43-14.6-11.99Z" style="fill:#fff;opacity:.30000000000000004"/><path d="M137.4 325.16v-.82a14.67 14.67 0 0 1 5-10.68c-1.61 1.65-5.18 7.87-1.3 12.62 2.56 3.12 14.68 7.57 24.65 1.85a10.27 10.27 0 0 1-3.13 2.66c-5.77 3.34-15.15 3.34-20.93 0-2.69-1.57-4.12-3.58-4.29-5.63Z" style="fill:#7000ff;opacity:.1"/><path d="M152.33 313.29c-.66 1.51.61 3.53 2.84 4.5s4.58.56 5.24-1-.61-3.52-2.84-4.5-4.57-.51-5.24 1ZM160.9 319.43a1.94 1.94 0 1 0 2.36-.66 1.74 1.74 0 0 0-2.36.66Z" style="fill:#fff;opacity:.30000000000000004"/><path d="M216.64 334.12a13.5 13.5 0 0 0-27 0v.76c.15 1.87 1.47 3.7 3.95 5.13 5.27 3.05 13.82 3.05 19.1 0 2.47-1.43 3.79-3.26 3.94-5.13v-.38c0-.13.02-.25.01-.38Z" style="fill:#7000ff"/><path d="M216.64 334.12a13.5 13.5 0 0 0-27 0v.76c.15 1.87 1.47 3.7 3.95 5.13 5.27 3.05 13.82 3.05 19.1 0 2.47-1.43 3.79-3.26 3.94-5.13v-.38c0-.13.02-.25.01-.38Z" style="fill:#fff;opacity:.9"/><path d="M209 322.34a13.48 13.48 0 0 0-19.35 11.78v.76c.15 1.87 1.47 3.7 3.95 5.13a17.82 17.82 0 0 0 6.77 2.12c-3.5-.61-5.77-4.52-4.69-8.84 1.25-5 6.32-12.24 13.32-10.95Z" style="fill:#fff;opacity:.5"/><path d="M216.64 334.88v-.76a13.43 13.43 0 0 0-4.58-9.75c1.46 1.51 4.73 7.19 1.18 11.52-2.33 2.85-13.4 6.92-22.5 1.69a9.25 9.25 0 0 0 2.86 2.42c5.27 3.05 13.82 3.05 19.1 0 2.47-1.42 3.79-3.25 3.94-5.12Z" style="fill:#7000ff;opacity:.1"/><path d="M203 324c.6 1.37-.56 3.21-2.6 4.11s-4.17.5-4.78-.87.56-3.22 2.6-4.11 4.18-.47 4.78.87ZM195.19 329.64A1.77 1.77 0 1 1 193 329a1.6 1.6 0 0 1 2.19.64Z" style="fill:#fff;opacity:.5"/><path d="M160.27 335.59a12.84 12.84 0 0 1 25.67 0v.72c-.14 1.77-1.4 3.52-3.76 4.88-5 2.9-13.14 2.9-18.16 0-2.35-1.36-3.6-3.11-3.75-4.88v-.36c0-.12-.01-.24 0-.36Z" style="fill:#7000ff"/><path d="M160.27 335.59a12.84 12.84 0 0 1 25.67 0v.72c-.14 1.77-1.4 3.52-3.76 4.88-5 2.9-13.14 2.9-18.16 0-2.35-1.36-3.6-3.11-3.75-4.88v-.36c0-.12-.01-.24 0-.36Z" style="fill:#fff;opacity:.9"/><path d="M167.54 324.39a12.67 12.67 0 0 1 5.57-1.29 12.84 12.84 0 0 1 12.83 12.49v.72c-.14 1.77-1.4 3.52-3.76 4.88a17 17 0 0 1-6.44 2c3.33-.57 5.49-4.29 4.47-8.4-1.21-4.79-6.01-11.64-12.67-10.4Z" style="fill:#fff;opacity:.5"/><path d="M160.27 336.31v-.72a12.8 12.8 0 0 1 4.36-9.28c-1.39 1.44-4.5 6.84-1.13 11 2.22 2.71 12.75 6.58 21.41 1.61a8.88 8.88 0 0 1-2.73 2.31c-5 2.9-13.14 2.9-18.16 0-2.35-1.4-3.6-3.15-3.75-4.92Z" style="fill:#7000ff;opacity:.1"/><path d="M173.24 326c-.58 1.31.53 3.06 2.46 3.91s4 .48 4.55-.83-.53-3.06-2.47-3.91-3.97-.48-4.54.83ZM180.67 331.33a1.69 1.69 0 1 0 2.06-.57 1.52 1.52 0 0 0-2.06.57Z" style="fill:#fff;opacity:.5"/><path d="M193.58 340.08a5.23 5.23 0 0 0-10.46 0v.29a2.71 2.71 0 0 0 1.53 2 8.18 8.18 0 0 0 7.4 0 2.71 2.71 0 0 0 1.53-2v-.29Z" style="fill:#7000ff"/><path d="M193.58 340.08a5.23 5.23 0 0 0-10.46 0v.29a2.71 2.71 0 0 0 1.53 2 8.18 8.18 0 0 0 7.4 0 2.71 2.71 0 0 0 1.53-2v-.29Z" style="fill:#fff;opacity:.9"/><path d="M190.62 335.52a5.12 5.12 0 0 0-2.27-.53 5.24 5.24 0 0 0-5.23 5.09v.29a2.71 2.71 0 0 0 1.53 2 7.12 7.12 0 0 0 2.63.82 2.64 2.64 0 0 1-1.82-3.42c.48-1.95 2.44-4.77 5.16-4.25Z" style="fill:#fff;opacity:.6000000000000001"/><path d="M193.58 340.37v-.29a5.19 5.19 0 0 0-1.78-3.78c.57.59 1.83 2.79.46 4.46-.9 1.11-5.19 2.68-8.72.66a3.77 3.77 0 0 0 1.11.94 8.18 8.18 0 0 0 7.4 0 2.71 2.71 0 0 0 1.53-1.99Z" style="fill:#7000ff;opacity:.1"/><path d="M188.3 336.17c.23.54-.22 1.25-1 1.59s-1.61.2-1.85-.33.22-1.25 1-1.6 1.61-.19 1.85.34ZM185.27 338.34a.62.62 0 0 1-.4.77.56.56 0 1 1-.44-1 .62.62 0 0 1 .84.23Z" style="fill:#fff;opacity:.5"/><path d="M97.3 310.47a5.23 5.23 0 0 1 10.45 0 .76.76 0 0 1 0 .15.66.66 0 0 1 0 .14 2.65 2.65 0 0 1-1.53 2 8.16 8.16 0 0 1-7.39 0 2.67 2.67 0 0 1-1.53-2v-.29Z" style="fill:#7000ff"/><path d="M97.3 310.47a5.23 5.23 0 0 1 10.45 0 .76.76 0 0 1 0 .15.66.66 0 0 1 0 .14 2.65 2.65 0 0 1-1.53 2 8.16 8.16 0 0 1-7.39 0 2.67 2.67 0 0 1-1.53-2v-.29Z" style="fill:#fff;opacity:.2"/><path d="M100.26 305.91a5.22 5.22 0 0 1 7.49 4.56.76.76 0 0 1 0 .15.66.66 0 0 1 0 .14 2.65 2.65 0 0 1-1.53 2 7 7 0 0 1-2.62.82 2.64 2.64 0 0 0 1.82-3.42c-.49-1.95-2.42-4.75-5.16-4.25Z" style="fill:#fff;opacity:.5"/><path d="M97.3 310.76v-.29a5.19 5.19 0 0 1 1.78-3.78c-.57.59-1.84 2.79-.46 4.47.9 1.1 5.19 2.67 8.71.65a3.53 3.53 0 0 1-1.11.94 8.16 8.16 0 0 1-7.39 0 2.67 2.67 0 0 1-1.53-1.99Z" style="fill:#455a64"/><path d="M102.58 306.56c-.23.54.22 1.25 1 1.6s1.61.19 1.85-.34-.22-1.25-1-1.59-1.62-.23-1.85.33ZM105.61 308.73a.68.68 0 0 0 1.23.54.62.62 0 0 0-.39-.77.63.63 0 0 0-.84.23Z" style="fill:#fff;opacity:.30000000000000004"/><path d="M208.74 256.54h-9.09c-1.3 7.86 2.87 13.88 4.54 13.88s5.81-6.02 4.55-13.88Z" style="fill:#7000ff"/><path d="M208.74 256.54h-9.09c-1.3 7.86 2.87 13.88 4.54 13.88s5.81-6.02 4.55-13.88Z" style="fill:#fff;opacity:.7000000000000001"/><path d="M204.19 256.54h1.56a6.92 6.92 0 0 1 .84 4.2c-.18 2.11-1.46 4.87-2.4 4.87s-2.21-2.76-2.4-4.87a6.88 6.88 0 0 1 .85-4.2h1.55" style="fill:#fff"/><path d="m208.71 242.41-9.42 3.33-.73 3.13a3.79 3.79 0 0 0 1.7 3.32 6.18 6.18 0 0 0 1.43.78 7.64 7.64 0 0 0 5.43 0 5.76 5.76 0 0 0 1.4-.77 3.79 3.79 0 0 0 1.7-3.32Z" style="fill:#7000ff"/><path d="m208.71 242.41-9.42 3.33-.73 3.13a3.79 3.79 0 0 0 1.7 3.32 6.18 6.18 0 0 0 1.43.78 7.64 7.64 0 0 0 5.43 0 5.76 5.76 0 0 0 1.4-.77 3.79 3.79 0 0 0 1.7-3.32Z" style="fill:#fff;opacity:.2"/><path d="m210.44 249.82.31 1.32a4.2 4.2 0 0 1-1.86 3.47 7.17 7.17 0 0 1-1.54.84 8.35 8.35 0 0 1-5.89 0 7 7 0 0 1-1.57-.85 4.22 4.22 0 0 1-1.86-3.48l-.85 3.66a4.19 4.19 0 0 0 2.11 3.42 7.65 7.65 0 0 0 1.84.89 10.44 10.44 0 0 0 6.56 0 7.72 7.72 0 0 0 1.8-.88 4.2 4.2 0 0 0 2.12-3.42Z" style="fill:#7000ff"/><path d="m210.44 249.82.31 1.32a4.2 4.2 0 0 1-1.86 3.47 7.17 7.17 0 0 1-1.54.84 8.35 8.35 0 0 1-5.89 0 7 7 0 0 1-1.57-.85 4.22 4.22 0 0 1-1.86-3.48l-.85 3.66a4.19 4.19 0 0 0 2.11 3.42 7.65 7.65 0 0 0 1.84.89 10.44 10.44 0 0 0 6.56 0 7.72 7.72 0 0 0 1.8-.88 4.2 4.2 0 0 0 2.12-3.42Z" style="fill:#fff;opacity:.2"/><path d="m210.44 249.79-.08-.31-.14-.61a3.79 3.79 0 0 1-1.7 3.32 5.76 5.76 0 0 1-1.4.77 7.64 7.64 0 0 1-5.43 0 6.18 6.18 0 0 1-1.43-.78 3.79 3.79 0 0 1-1.7-3.32l-.53 2.26a4.22 4.22 0 0 0 1.86 3.48 7 7 0 0 0 1.57.85 8.35 8.35 0 0 0 5.89 0 7.17 7.17 0 0 0 1.54-.84 4.2 4.2 0 0 0 1.86-3.47Z" style="fill:#455a64"/><path d="m209.5 245.79-.79-3.38-9.42 3.33-.73 3.13-.21.92-.32 1.34-.59 2.55c5.35-1.52 9.66-4.35 12.06-7.89Z" style="opacity:.15"/><path d="M176.6 256.54h-9.09c-1.3 7.86 2.87 13.88 4.55 13.88s5.84-6.02 4.54-13.88Z" style="fill:#7000ff"/><path d="M176.6 256.54h-9.09c-1.3 7.86 2.87 13.88 4.55 13.88s5.84-6.02 4.54-13.88Z" style="fill:#fff;opacity:.7000000000000001"/><path d="M172.06 256.54h1.55a6.88 6.88 0 0 1 .85 4.2c-.19 2.11-1.47 4.87-2.4 4.87s-2.22-2.76-2.4-4.87a6.92 6.92 0 0 1 .84-4.2h1.56" style="fill:#fff"/><path d="M176.57 242.41H168l-1.54 6.46a3.77 3.77 0 0 0 1.7 3.32 6 6 0 0 0 1.43.78 7.64 7.64 0 0 0 5.43 0 5.88 5.88 0 0 0 1.39-.77 3.77 3.77 0 0 0 1.7-3.32Z" style="fill:#7000ff"/><path d="M176.57 242.41H168l-1.54 6.46a3.77 3.77 0 0 0 1.7 3.32 6 6 0 0 0 1.43.78 7.64 7.64 0 0 0 5.43 0 5.88 5.88 0 0 0 1.39-.77 3.77 3.77 0 0 0 1.7-3.32Z" style="fill:#fff;opacity:.2"/><path d="m178.23 249.48.07.31.31 1.35a4.15 4.15 0 0 1-1.86 3.47 6.87 6.87 0 0 1-1.53.84 8.35 8.35 0 0 1-5.89 0 6.59 6.59 0 0 1-1.57-.85 4.17 4.17 0 0 1-1.86-3.48l-.86 3.66a4.2 4.2 0 0 0 2.12 3.42 7.58 7.58 0 0 0 1.83.89 10.44 10.44 0 0 0 6.56 0 8 8 0 0 0 1.81-.88 4.19 4.19 0 0 0 2.11-3.42Z" style="fill:#7000ff"/><path d="m178.23 249.48.07.31.31 1.35a4.15 4.15 0 0 1-1.86 3.47 6.87 6.87 0 0 1-1.53.84 8.35 8.35 0 0 1-5.89 0 6.59 6.59 0 0 1-1.57-.85 4.17 4.17 0 0 1-1.86-3.48l-.86 3.66a4.2 4.2 0 0 0 2.12 3.42 7.58 7.58 0 0 0 1.83.89 10.44 10.44 0 0 0 6.56 0 8 8 0 0 0 1.81-.88 4.19 4.19 0 0 0 2.11-3.42Z" style="fill:#fff;opacity:.2"/><path d="m178.3 249.79-.07-.31-.15-.61a3.77 3.77 0 0 1-1.7 3.32 5.88 5.88 0 0 1-1.38.81 7.64 7.64 0 0 1-5.43 0 6 6 0 0 1-1.43-.78 3.77 3.77 0 0 1-1.7-3.32l-.53 2.26a4.17 4.17 0 0 0 1.86 3.48 6.59 6.59 0 0 0 1.57.85 8.35 8.35 0 0 0 5.89 0 6.87 6.87 0 0 0 1.53-.84 4.15 4.15 0 0 0 1.86-3.47Z" style="fill:#455a64"/><path d="m168 242.41-.8 3.35c2.38 3.54 6.69 6.38 12 7.91l-1-4.19-.15-.61-1.51-6.46Z" style="opacity:.15"/><path d="m197.18 262.27-8.86-2.3-8.85 2.3a35.8 35.8 0 0 0 .1 12.17c1.16 7.43 6.33 14.87 8.75 14.87s7.6-7.44 8.76-14.87a35.8 35.8 0 0 0 .1-12.17Z" style="fill:#7000ff"/><path d="m197.18 262.27-8.86-2.3-8.85 2.3a35.8 35.8 0 0 0 .1 12.17c1.16 7.43 6.33 14.87 8.75 14.87s7.6-7.44 8.76-14.87a35.8 35.8 0 0 0 .1-12.17Z" style="fill:#fff;opacity:.85"/><path d="M194.12 263.34H182c-1.73 10.47 3.83 18.5 6.06 18.5s7.79-8.03 6.06-18.5Z" style="fill:#7000ff"/><path d="M188.06 263.34h2.08a9.17 9.17 0 0 1 1.12 5.59c-.25 2.82-1.95 6.49-3.2 6.49s-2.95-3.67-3.2-6.49a9.17 9.17 0 0 1 1.12-5.59h2.08" style="fill:#fff"/><path d="m196.09 252.36-1-4.17h-13.56l-1 4.17a5.05 5.05 0 0 0 2.27 4.43 7.78 7.78 0 0 0 1.9 1 10.23 10.23 0 0 0 7.25 0 8.42 8.42 0 0 0 1.86-1 5 5 0 0 0 2.28-4.43Z" style="fill:#7000ff"/><path d="m196.09 252.36-1-4.17h-13.56l-1 4.17a5.05 5.05 0 0 0 2.27 4.43 7.78 7.78 0 0 0 1.9 1 10.23 10.23 0 0 0 7.25 0 8.42 8.42 0 0 0 1.86-1 5 5 0 0 0 2.28-4.43Z" style="fill:#fff;opacity:.5"/><path d="m196.29 253.18.09.41.42 1.8a5.55 5.55 0 0 1-2.48 4.62 8.84 8.84 0 0 1-2 1.12 11.17 11.17 0 0 1-7.85 0 8.81 8.81 0 0 1-2.09-1.14 5.54 5.54 0 0 1-2.48-4.64l-1.14 4.89a5.6 5.6 0 0 0 2.81 4.56A10.67 10.67 0 0 0 184 266a13.93 13.93 0 0 0 8.75 0 11 11 0 0 0 2.41-1.17 5.62 5.62 0 0 0 2.81-4.56Z" style="fill:#7000ff"/><path d="m196.29 253.18.09.41.42 1.8a5.55 5.55 0 0 1-2.48 4.62 8.84 8.84 0 0 1-2 1.12 11.17 11.17 0 0 1-7.85 0 8.81 8.81 0 0 1-2.09-1.14 5.54 5.54 0 0 1-2.48-4.64l-1.14 4.89a5.6 5.6 0 0 0 2.81 4.56A10.67 10.67 0 0 0 184 266a13.93 13.93 0 0 0 8.75 0 11 11 0 0 0 2.41-1.17 5.62 5.62 0 0 0 2.81-4.56Z" style="fill:#fff;opacity:.5"/><path d="m196.38 253.59-.09-.41-.2-.82a5 5 0 0 1-2.26 4.43 8.42 8.42 0 0 1-1.86 1 10.23 10.23 0 0 1-7.25 0 7.78 7.78 0 0 1-1.9-1 5.05 5.05 0 0 1-2.27-4.43l-.7 3a5.54 5.54 0 0 0 2.48 4.64 8.81 8.81 0 0 0 2.09 1.14 11.17 11.17 0 0 0 7.85 0 8.84 8.84 0 0 0 2-1.12 5.55 5.55 0 0 0 2.48-4.62Z" style="fill:#455a64"/><path d="M188.31 254.92a34.5 34.5 0 0 0 8.16-1l-.09-.37-.09-.41-.2-.82-1-4.17h-13.56l-1 4.17-.37 1.6a34.24 34.24 0 0 0 8.15 1Z" style="opacity:.15"/><path d="M179.94 214.72 153.55 205a26.08 26.08 0 0 1 .11-3.38c0-.35.07-.69.12-1s.1-.64.16-.95.15-.63.23-.93l.15-.46.1-.34a7.67 7.67 0 0 1 3.46-4.34l3.39-2 .36-.21a9.45 9.45 0 0 1 3.46-1.1 31.35 31.35 0 0 0 7.54-1.81 9.66 9.66 0 0 0 1.91-2.13c2.58-3.93 3.22-12.39 3.06-16.59l3.75-2.16 2.33 44.92-3.93-1.45v.12Z" style="fill:#37474f"/><path d="m153.55 205 26.39 9.72-.18-3.49v-.12l-1.41-27-.74-14.34c.16 4.2-.48 12.66-3.06 16.59a9.66 9.66 0 0 1-1.91 2.13c-2.6 2.18-6.48 3.32-11.29 4a10.79 10.79 0 0 0-1.44.28 9.07 9.07 0 0 0-2 .81 7.67 7.67 0 0 0-3.46 4.34l-.1.34-.15.46c-.08.3-.16.61-.23.93s-.12.63-.16.95-.1.67-.12 1a26.08 26.08 0 0 0-.14 3.4Z" style="fill:#263238"/><path d="m179.55 207.18-25.13-9.25a15.57 15.57 0 0 0-.77 3.69l26.11 9.61Z" style="fill:#7000ff"/><path d="m179.55 207.18-25.13-9.25a15.57 15.57 0 0 0-.77 3.69l26.11 9.61Z" style="opacity:.30000000000000004"/><path d="M200.49 206.07c3.31 10.72 6.68 21.43 10.27 32.07a5.65 5.65 0 0 1-1.95 5.78 30.8 30.8 0 0 1-20.49 7.27 31.71 31.71 0 0 1-20.48-7.56 5.57 5.57 0 0 1-2-5.71c3.65-10.47 7-21 10.27-31.63Z" style="fill:#455a64"/><path d="M188.32 242.82a31.84 31.84 0 0 0 21.44-7.63l1 2.95a5.65 5.65 0 0 1-1.95 5.78 31 31 0 0 1-20.49 7.27 31.88 31.88 0 0 1-20.48-7.56 5.57 5.57 0 0 1-2-5.71c.4-1.14.6-1.72 1-2.88 5.93 5.21 13.76 7.52 21.48 7.78ZM188.32 218.14a41.48 41.48 0 0 1-15.07-2.51c1.16-3.68 1.75-5.55 2.91-9.34l11-.1H189.59l11-.1c1.16 3.8 1.74 5.69 2.91 9.41a41.54 41.54 0 0 1-15.18 2.64Z" style="fill:#263238"/><path d="M196.09 206.1c.37 3 .86 7 1.38 11.12a35.4 35.4 0 0 0 4.06-1.08c-.71-4-1.06-6-1.77-10.07ZM167.83 243.63a31.89 31.89 0 0 0 20.5 7.56h1.51l1.46-.08.7-.11 1.11-.12c.24 0 .47-.07.71-.12s.46-.07.69-.12l1.17-.22.21-.05c.45-.11.89-.22 1.31-.34s1-.3 1.55-.47c.3-.09.59-.2.87-.3s.75-.29 1.11-.44c.7-.29 1.39-.6 2-.91l.48-.25c.19-.09.38-.2.55-.29l.77-.45.81-.49.75-.49.7-.49c-.53-2.83-.79-4.27-1.33-7.16a29.85 29.85 0 0 1-5 2.41c.19 1.4.43 2.5.38 2.7-1.93 7.26-19.15 8.54-33.01.23Z" style="fill:#455a64"/><path d="M197.47 217.22q1.49 11.76 3 23.5a29.85 29.85 0 0 0 5-2.41l-4-22.17a35.4 35.4 0 0 1-4 1.08Z" style="fill:#fff;opacity:.1"/><path d="m195.82 214.72 26.39-9.72a26.08 26.08 0 0 0-.11-3.38c0-.35-.07-.69-.12-1s-.1-.64-.16-.95-.15-.63-.23-.93l-.15-.46c0-.11-.06-.23-.1-.34a7.67 7.67 0 0 0-3.46-4.34l-3.39-2-.36-.21a9.45 9.45 0 0 0-3.46-1.1 31.35 31.35 0 0 1-7.54-1.81 9.66 9.66 0 0 1-1.91-2.13c-2.57-3.93-3.22-12.39-3.05-16.59l-3.76-2.16-2.33 44.92 3.94-1.45v.12Z" style="fill:#37474f"/><path d="m222.21 205-26.39 9.72.19-3.49v-.12l1.4-27 .75-14.34c-.17 4.2.48 12.66 3.05 16.59a9.66 9.66 0 0 0 1.91 2.13c2.6 2.18 6.48 3.32 11.29 4a10.79 10.79 0 0 1 1.44.28 8.88 8.88 0 0 1 2 .81 7.67 7.67 0 0 1 3.46 4.34c0 .11.07.23.1.34l.15.46c.08.3.16.61.23.93s.12.63.16.95.1.67.12 1a26.08 26.08 0 0 1 .14 3.4Z" style="fill:#263238"/><path d="m196.21 207.18 25.13-9.25a15.57 15.57 0 0 1 .77 3.69L196 211.23Z" style="fill:#7000ff"/><path d="m196.21 207.18 25.13-9.25a15.57 15.57 0 0 1 .77 3.69L196 211.23Z" style="opacity:.30000000000000004"/><path d="M214.54 124.9a24 24 0 0 0-.47-5.73c-3.6-16.88-13.69-30.73-19.5-39.7-1.06-1.64-3.35-5.36-4.29-6a3.49 3.49 0 0 0-3.91 0c-.94.66-3.2 4.4-4.29 6-5.36 7.9-15.9 22.83-19.5 39.71a23.45 23.45 0 0 0-.47 5.73l3.27 94.44c0 4.69 4.31 9.39 12.91 11.95a35.33 35.33 0 0 0 20.07 0c8.6-2.56 12.9-7.26 12.9-11.95Z" style="fill:#7000ff"/><path d="M214.54 124.9a24 24 0 0 0-.47-5.73c-3.6-16.88-13.69-30.73-19.5-39.7-1.06-1.64-3.35-5.36-4.29-6a3.49 3.49 0 0 0-3.91 0c-.94.66-3.2 4.4-4.29 6-5.36 7.9-15.9 22.83-19.5 39.71a23.45 23.45 0 0 0-.47 5.73l3.27 94.44c0 4.69 4.31 9.39 12.91 11.95a35.33 35.33 0 0 0 20.07 0c8.6-2.56 12.9-7.26 12.9-11.95Z" style="fill:#fff;opacity:.5"/><path d="M214.07 119.17c-3.6-16.88-13.69-30.73-19.5-39.7l-.86-1.35c4.77 12.13 12.32 31.58 12.81 58.79.28 16.06-.86 59.13-1.85 91.75a18.69 18.69 0 0 0 2.87-2v-.05a12.78 12.78 0 0 0 1.5-1.55l.16-.2c.12-.15.24-.31.34-.46a2.75 2.75 0 0 0 .19-.28c.14-.22.28-.44.4-.66s.15-.26.22-.4.1-.23.16-.34.13-.32.19-.47.07-.19.1-.28.15-.49.21-.73c0-.07 0-.15.05-.22s.07-.39.1-.59v-.23a6.79 6.79 0 0 0 0-.78l3.28-94.44a24 24 0 0 0-.37-5.81Z" style="fill:#fff;opacity:.35000000000000003"/><path d="M168.12 128.78c11.06 6.38 29 6.38 40 0a19 19 0 0 0 6.38-5.67 22.29 22.29 0 0 0-.48-4.23c-.15-.73-.32-1.46-.5-2.18a20.63 20.63 0 0 1-5.4 4.35c-11.06 6.38-29 6.38-40 0a21.25 21.25 0 0 1-5.12-4c-.15.63-.29 1.25-.43 1.88a23.5 23.5 0 0 0-.48 4.73 19.61 19.61 0 0 0 6.03 5.12Z" style="fill:#455a64"/><path d="M214.53 123.14a22.06 22.06 0 0 0-.46-4c-.18-.81-.37-1.6-.57-2.39a20.76 20.76 0 0 1-5.33 4.27 29.33 29.33 0 0 1-2.63 1.32c.27 2.4.5 4.88.66 7.43.68-.32 1.34-.66 2-1a19 19 0 0 0 6.33-5.63Z" style="fill:#fff;opacity:.1"/><path d="M190 73.28a3.41 3.41 0 0 0-1.65-.43 3.46 3.46 0 0 0-1.95.6c-.94.66-3.2 4.4-4.29 6-5.36 7.9-15.9 22.83-19.5 39.71a23.45 23.45 0 0 0-.47 5.73l3.27 94.44c0 4.69 4.31 9.39 12.91 11.95.12 0 .24.06.36.09-1.72-39.32-9.39-103.19-1.6-128.67 4.22-13.87 10.08-30.37 12.92-29.42Z" style="opacity:.15"/><path d="M193.69 78.09c1.6 4.06 3.51 9 5.36 14.68 1.08-.62 2-1.29 2.89-1.91-2.08-3.39-4.12-6.45-5.9-9.15l-1.47-2.24-.59-.93Z" style="fill:#fff;opacity:.1"/><path d="m177.06 225.45-26.4 20.77-3.72-2.17c-.21-7.64 2.28-14.4 7.8-21.52 2.36-3 4.52-5.87 6.45-8.55a92.67 92.67 0 0 0 7.66-12c3.18-6.28 4-10.18 3.92-14.51a3.05 3.05 0 0 0 0-.43v-.42l2 1Z" style="fill:#455a64"/><path d="M147.8 236a30.56 30.56 0 0 0-.76 4.56l3.72 2.15v-.12a29.87 29.87 0 0 1 .75-4.41Z" style="fill:#7000ff"/><path d="M147.8 236a30.56 30.56 0 0 0-.76 4.56l3.72 2.15v-.12a29.87 29.87 0 0 1 .75-4.41Z" style="fill:#fff;opacity:.6000000000000001"/><path d="M174.73 187.57c.16 4-.49 8.87-3.06 15.78-2.36 6.35-7 13.37-13.2 21.34-5.52 7.13-8 13.88-7.8 21.53l26.39-20.76Z" style="fill:#37474f"/><path d="m176.67 218.37-25.14 19.77a28.06 28.06 0 0 0-.76 4.58l26.11-20.54Z" style="fill:#7000ff"/><path d="m198.7 225.45 26.4 20.77 3.72-2.17c.21-7.64-2.27-14.4-7.8-21.52-2.36-3-4.52-5.87-6.45-8.55a91.45 91.45 0 0 1-7.65-12c-3.19-6.28-4-10.18-3.93-14.51a3.05 3.05 0 0 1 0-.43v-.42l-2 1Z" style="fill:#455a64"/><path d="M228 236a30.56 30.56 0 0 1 .76 4.56l-3.76 2.15v-.12a28.62 28.62 0 0 0-.75-4.41Z" style="fill:#7000ff"/><path d="M228 236a30.56 30.56 0 0 1 .76 4.56l-3.76 2.15v-.12a28.62 28.62 0 0 0-.75-4.41Z" style="fill:#fff;opacity:.6000000000000001"/><path d="M201 187.57c-.16 4 .49 8.87 3.06 15.78 2.37 6.35 7 13.37 13.2 21.34 5.52 7.13 8 13.88 7.8 21.53l-26.36-20.76Z" style="fill:#37474f"/><path d="m199.09 218.37 25.14 19.77a28.06 28.06 0 0 1 .76 4.58l-26.11-20.54Z" style="fill:#7000ff"/><path d="M167.05 134.06a3.18 3.18 0 0 1 1.43 2.48c0 .91-.64 1.28-1.43.83a3.16 3.16 0 0 1-1.44-2.48c0-.89.64-1.29 1.44-.83ZM167 139.93a3 3 0 0 1 1.36 2.35c0 .87-.61 1.22-1.36.79a3 3 0 0 1-1.36-2.35c-.01-.87.6-1.22 1.36-.79ZM167.06 145.81a2.82 2.82 0 0 1 1.28 2.22c0 .82-.57 1.15-1.28.74a2.82 2.82 0 0 1-1.28-2.22c0-.82.57-1.15 1.28-.74ZM167.22 151.69a2.65 2.65 0 0 1 1.21 2.09c0 .77-.54 1.08-1.21.7a2.67 2.67 0 0 1-1.21-2.1c-.01-.77.54-1.08 1.21-.69ZM167.44 157.56a2.53 2.53 0 0 1 1.14 2c0 .72-.51 1-1.14.66a2.52 2.52 0 0 1-1.13-2c0-.72.5-1.02 1.13-.66ZM167.69 163.44a2.36 2.36 0 0 1 1.06 1.84c0 .67-.48.95-1.06.61a2.33 2.33 0 0 1-1.06-1.84c0-.67.47-.95 1.06-.61ZM167.93 169.31a2.21 2.21 0 0 1 1 1.71c0 .63-.45.89-1 .57a2.16 2.16 0 0 1-1-1.71c.01-.63.45-.88 1-.57Z" style="fill:#37474f"/><path d="M209.6 134.06a3.18 3.18 0 0 0-1.43 2.48c0 .91.64 1.28 1.43.83a3.18 3.18 0 0 0 1.43-2.48c-.03-.89-.64-1.29-1.43-.83ZM209.66 139.93a3 3 0 0 0-1.36 2.35c0 .87.61 1.22 1.36.79a3 3 0 0 0 1.35-2.35c-.01-.87-.6-1.22-1.35-.79ZM209.59 145.81a2.83 2.83 0 0 0-1.29 2.19c0 .82.58 1.15 1.29.74a2.82 2.82 0 0 0 1.28-2.22c0-.79-.57-1.12-1.28-.71ZM209.43 151.69a2.65 2.65 0 0 0-1.21 2.09c0 .77.54 1.08 1.21.7a2.7 2.7 0 0 0 1.21-2.1c0-.77-.55-1.08-1.21-.69ZM209.21 157.56a2.53 2.53 0 0 0-1.14 2c0 .72.51 1 1.14.66a2.55 2.55 0 0 0 1.13-2c0-.72-.51-1.02-1.13-.66ZM209 163.44a2.33 2.33 0 0 0-1.06 1.84c0 .67.47.95 1.06.61a2.33 2.33 0 0 0 1.06-1.84c-.06-.67-.51-.95-1.06-.61ZM208.72 169.31a2.18 2.18 0 0 0-1 1.71c0 .63.44.89 1 .57a2.19 2.19 0 0 0 1-1.71c-.01-.63-.46-.88-1-.57Z" style="fill:#455a64"/><circle cx="188.32" cy="160.34" r="10.56" transform="rotate(-80.78 188.334 160.34)" style="fill:#37474f"/><circle cx="188.32" cy="160.34" r="7.68" style="fill:#7000ff"/><path d="m384.33 135.85-3.23-9.17 2.6-7.48v-4.59l-7.94 4.59v4.58l3.41 9a.49.49 0 0 0 .23.2Z" style="fill:#7000ff"/><path d="m384.33 135.85-3.23-9.17 2.6-7.48v-4.59l-7.94 4.59v4.58l3.41 9a.49.49 0 0 0 .23.2Z" style="opacity:.2"/><path d="M403.28 78.19a5.27 5.27 0 0 0-2.38-4.12L399 73a5.25 5.25 0 0 0-4.76 0l-29.75 17.13a5.28 5.28 0 0 0-2.38 4.13V127a5.28 5.28 0 0 0 2.38 4.12l1.94 1.12a5.32 5.32 0 0 0 4.76 0l9.55-5.53 3.41 9a.51.51 0 0 0 .92-.09l3.6-13.49L400.9 115a5.27 5.27 0 0 0 2.38-4.12Z" style="fill:#7000ff"/><path d="M362.11 127a5.28 5.28 0 0 0 2.38 4.12l1.94 1.12a5.35 5.35 0 0 0 4.35.19c-1.12.42-2-.21-2-1.57V98.12a4.83 4.83 0 0 1 .7-2.34l-6.7-3.87a4.9 4.9 0 0 0-.7 2.35Z" style="opacity:.2"/><path d="M403.2 77.51c-.28-1-1.2-1.33-2.3-.7L371.19 94a4.66 4.66 0 0 0-1.68 1.78l-6.69-3.86a4.79 4.79 0 0 1 1.67-1.78L394.2 73a5.32 5.32 0 0 1 4.8 0l1.94 1.12a5.27 5.27 0 0 1 2.26 3.39Z" style="fill:#fff;opacity:.30000000000000004"/><path d="M398 101.37h-.17l-2.27-.13a.36.36 0 0 1-.38-.37c0-.35 0-.71.05-1.06s0-.76-.05-1.13a1.06 1.06 0 0 1 .25-.67l2.54-3.07a.73.73 0 0 0 .15-.64l-1.21-2.66a.16.16 0 0 0-.07-.09c-.09 0-.24 0-.38.12l-2.72 2.48a.46.46 0 0 1-.59.1 4.08 4.08 0 0 0-1.16-.67.45.45 0 0 1-.27-.48l.84-3.79a.24.24 0 0 0-.12-.27.47.47 0 0 0-.25 0l-2.65.27a.71.71 0 0 0-.58.4l-1.44 3.86a1.26 1.26 0 0 1-.58.56 11.15 11.15 0 0 0-1.64 1c-.22.15-.47.16-.57 0l-1.36-2.07c-.09-.15-.31-.11-.49.07l-2.91 3.07a.79.79 0 0 0-.22.64l.81 2.75a.94.94 0 0 1-.15.66 20.78 20.78 0 0 0-1.34 2.32 1.06 1.06 0 0 1-.63.47l-2.5.6a.87.87 0 0 0-.56.47l-1.25 4.22a.31.31 0 0 0 .31.39l2.27.12a.39.39 0 0 1 .39.37 12.46 12.46 0 0 0 0 2.2 1.06 1.06 0 0 1-.25.67l-2.61 2.92a.71.71 0 0 0-.16.64l1.21 2.66a.16.16 0 0 0 .07.09.16.16 0 0 0 .1 0 .44.44 0 0 0 .29-.13l2.71-2.48a.48.48 0 0 1 .6-.1 4.08 4.08 0 0 0 1.16.67.44.44 0 0 1 .27.48l-.84 3.79a.23.23 0 0 0 .11.26.39.39 0 0 0 .25 0l2.65-.26a.73.73 0 0 0 .58-.4l1.44-3.86a1.26 1.26 0 0 1 .58-.56 10.87 10.87 0 0 0 1.64-.95c.26-.18.47-.16.57 0l1.36 2.07a.17.17 0 0 0 .06.06c.11.07.28 0 .43-.13l2.91-3.07a.79.79 0 0 0 .22-.64l-.81-2.75a.93.93 0 0 1 .15-.66 20.78 20.78 0 0 0 1.34-2.32 1.06 1.06 0 0 1 .63-.47l2.49-.6a.81.81 0 0 0 .57-.47l1.25-4.22a.29.29 0 0 0-.07-.28Zm-13.3 10.32h-1.01a2.66 2.66 0 0 1-2.5-1.68 4.73 4.73 0 0 1-.36-1.39 6.51 6.51 0 0 1 0-.77 11.82 11.82 0 0 1 3.29-7.54 9.05 9.05 0 0 1 2-1.63 5.28 5.28 0 0 1 .67-.34 4.17 4.17 0 0 1 1.88-.4h.31a2.66 2.66 0 0 1 2.02 1.81c1.12 2.49-.17 6.83-2.89 9.7a7.57 7.57 0 0 1-3.45 2.24Z" style="fill:#fff"/><path d="M451.47 347.68v35.77a6.35 6.35 0 0 1-2.81 4.91l-3.38 1.95a6.28 6.28 0 0 1-4 .58 5 5 0 0 1-1.64-.54h-.08l-.21-.12-39.7-22.92a9.39 9.39 0 0 1-4.69-8.12v-33.68a2.68 2.68 0 0 1 1.21-2.09l6.63-3.82a2.61 2.61 0 0 1 2.4 0l45 26a2.48 2.48 0 0 1 .86.9 2.58 2.58 0 0 1 .41 1.18Z" style="fill:#7000ff"/><path d="M451.47 347.68v35.77a6.35 6.35 0 0 1-2.81 4.91l-3.38 1.95a6.28 6.28 0 0 1-4 .58 5 5 0 0 1-1.64-.54c1.55.73 2.77-.08 2.77-1.91v-34.8a3.73 3.73 0 0 0-.53-1.8l9.22-5.32a2.58 2.58 0 0 1 .37 1.16Z" style="opacity:.2"/><path d="M442.43 353.62a4.05 4.05 0 0 0-1.82-3.16L398 325.89c-1.68-1-3.06-.18-3.06 1.76v31.49a9.37 9.37 0 0 0 4.69 8.12l39.7 22.93c1.68 1 3.06.18 3.06-1.77Z" style="opacity:.30000000000000004"/><path d="M395 337.17a7.75 7.75 0 0 0 3.49 6.05l40.47 23.36c1.92 1.11 3.49.2 3.49-2v-12a1.94 1.94 0 0 1 1-1.67l6.21-3.56-46.84-27.75-6.88 3.95a1.93 1.93 0 0 0-1 1.66Z" style="fill:#7000ff;opacity:.6000000000000001"/><path d="m402.82 319.6-6.88 3.95a2 2 0 0 0-.73.76l47.49 27.32a2 2 0 0 1 .69-.69l6.21-3.56Z" style="fill:#7000ff"/><path d="m415.54 350.39 6.3 3.64a3.85 3.85 0 0 1 1.76 3v1.44c0 1.11-.76 1.56-1.73 1l-6.34-3.65a3.87 3.87 0 0 1-1.74-3v-1.42c.01-1.12.79-1.57 1.75-1.01Z" style="fill:#37474f"/><path d="M418.23 325.82v5l-2.87 1.66v-7.6c0-.39.27-.55.61-.35Z" style="fill:#263238"/><path d="M433.31 331.11v9.26l-2.13 1.23-1.44-.83v-7.6a1.4 1.4 0 0 0-.61-1.06l-10.9-6.29-2.26-1.3c-.34-.2-.61 0-.61.35v7.6l-1.45-.84v-9.37a1.37 1.37 0 0 1 .61-.94l.91-.53a1.34 1.34 0 0 1 1.23 0l16 9.25a1.37 1.37 0 0 1 .65 1.07Z" style="fill:#455a64"/><path d="M431.18 332.34v9.26l-1.44-.83v-7.6a1.4 1.4 0 0 0-.61-1.06l-10.9-6.29-2.26-1.3c-.34-.2-.61 0-.61.35v7.6l-1.45-.84v-9.37c.06-.3.31-.41.61-.24l16 9.26a1.36 1.36 0 0 1 .66 1.06Z" style="fill:#37474f"/><path d="M406.08 376.46c.67.25 1.06 1.52 1.36 4.61.18 1.91.83 4.44-2.08 6a7.41 7.41 0 0 1-6.9-.07c-2.53-1.57-3.31-5.14-6.28-7.47-2.6-2-6.77-4.07-8.23-7.22-1.21-2.59-1.2-6.29 3.11-6.1 5.25.25 8.22 4.38 11.78 4.46 1.99.04 6.57 5.54 7.24 5.79Z" style="fill:#263238"/><path d="M406.08 374.94v3.11c0 1.53-6.47 3.8-8.29.32-.14-.3-.84-4.57-.84-4.57Z" style="fill:#ffa8a7"/><path d="M376.06 394.6s1.23 0 1.71 5c.19 1.92.64 5.84 0 7.26s-4.19 2.05-8.16 2.41c-3 .26-5.65 1.7-8.39 3.25a18.21 18.21 0 0 1-8.5 2.34c-3.76 0-6.94-.37-9.62-2.49-1.42-1.13-3.23-3.5-1.9-5.29a3.93 3.93 0 0 1 2-1.06c1.67-.62 3.36-1.19 5.06-1.73a50.72 50.72 0 0 0 7.44-2.85c3.5-1.73 7.41-3.66 10.06-6.62Z" style="fill:#263238"/><path d="M376 392v3.63c0 1.32-1.53 3.3-5.57 3.18-2.84-.09-4.82-.84-4.72-3.18v-3.37Z" style="fill:#ffa8a7"/><path d="M407.89 333.59a84.81 84.81 0 0 0-3.76-16.2s1-14 1.51-27.28a352.94 352.94 0 0 0-1.14-40.77s-45.1-4.28-45.85 12.3.34 58.74.92 66 1.17 14.1 2.71 27.64c1.33 11.66 3.47 37 3.47 37A10.92 10.92 0 0 0 376 392s3.4-34 3.79-42.38c.5-10.89-2-16.89-2-16.89s1-6.85 2.64-20.93c1.19-9.95 2.77-21.28 2.77-21.28s1.54 14 2.47 21.84c.87 7.25 2.34 13 4.52 26.49 1.88 11.72 7 36.53 7 36.53 5.29 2.83 8.85-.44 8.85-.44s3.33-31.18 1.85-41.35Z" style="fill:#37474f"/><path d="m383.2 290.52 2.13-13.85s8.78-2.79 13.24-8c0 0-2.38 6.08-10.56 9.35l-3.28 11.66-.56 9.62Z" style="fill:#263238"/><path d="M395.22 193.77c7-1.7 11.48 1.71 14.08 11.28 2.22 8.2 5.48 25.17 6.74 31.51.47 2.35 1.4 5-3.54 8a217.71 217.71 0 0 1-22.14 11.17l-2.69-10.11 10.9-22.34Z" style="fill:#7000ff"/><path d="M395.22 193.77c7-1.7 11.48 1.71 14.08 11.28 2.22 8.2 5.48 25.17 6.74 31.51.47 2.35 1.4 5-3.54 8a217.71 217.71 0 0 1-22.14 11.17l-2.69-10.11 10.9-22.34Z" style="opacity:.25"/><path style="fill:#ffa8a7" d="m375.79 189.31 2.11 14.81 13.31-.47-1.28-17.29-14.14 2.95z"/><path d="M366.23 171s-3.57 5.24-3.18 5.77 2.95 1 2.95 1Z" style="fill:#f28f8f"/><path d="M367.4 174.46a4.35 4.35 0 1 1 4.42-4.28 4.35 4.35 0 0 1-4.42 4.28Zm.12-7.73a3.39 3.39 0 1 0 3.33 3.44 3.38 3.38 0 0 0-3.33-3.44Z" style="fill:#263238"/><path d="M376.15 156.55c-7.08 1.38-9.17 4.45-10 15.65-.88 11.71.25 15.42 1.77 17 1 1.08 6.79 1.36 9.72.61 3.66-1 11.95-3.74 15.9-9.58 4.65-6.86 6-16.24 1.19-20.17-6.73-5.52-15.73-4.06-18.58-3.51Z" style="fill:#ffa8a7"/><path d="M375.9 190.12c-3 .34-7.14 0-8-.9a20.92 20.92 0 0 0 7.58-1.49Z" style="fill:#f28f8f"/><path d="M366 159.3c.18.31.38.61.58.9a22.86 22.86 0 0 0 4.08 4.2 8.08 8.08 0 0 1 2.52 4.15c.46 1.7.62 3.72 2.46 4.54 0 0 1.23-4.52 5-3.89s4.27 5.55 1.8 8.49-4.71 1.76-4.71 1.76 0 6.48 2.83 10.19c0 0 3.25 1.11 9.28-.07 3.7-.73 9-5.27 11.27-10.12 4.81-10.27 5.28-19.56-1.28-22.46-.14-.06-.65-2.42-.83-2.76a8 8 0 0 0-1.64-2.22 10 10 0 0 0-5.43-2.67c-5.35-.77-10.81.34-16.13-.76-2.39-.49-4.87-1.42-7.19-.69a6.4 6.4 0 0 0-4.14 5.49 9.67 9.67 0 0 0 1.53 5.92Z" style="fill:#263238"/><path d="m399 159.3 4.26-2.43a2.45 2.45 0 1 0-4.26 2.43ZM375.58 175.62l.21-4.9a2.45 2.45 0 0 0-.21 4.9Z" style="fill:#263238"/><path style="fill:#263238" d="m363.54 169.14 13.11 1.91-.54.91-12.58-1.83.01-.99z"/><path d="M405.91 201.55c-1.55-6.08-3.75-8.06-9-8.2a66.85 66.85 0 0 0-8.13 1c-.56 2.56-7.19 4.31-13.91 2.92-2 .59-7.28 2-8.94 2.63-4.75 1.72-7 6.65-7.37 22.31 0 0-.91 37.14 0 43.56 12 4.67 24.41 4.46 31.27 2.92 14.29-3.2 16-9.14 16-9.14s-.75-14.91-1.24-26.24c.72-7.22 1.79-12.65 2.18-18.41a48 48 0 0 0-.86-13.35Z" style="fill:#7000ff"/><path d="M405.91 201.55c-1.55-6.08-3.75-8.06-9-8.2a66.85 66.85 0 0 0-8.13 1c-.56 2.56-7.19 4.31-13.91 2.92-2 .59-7.28 2-8.94 2.63-4.75 1.72-7 6.65-7.37 22.31 0 0-.91 37.14 0 43.56 12 4.67 24.41 4.46 31.27 2.92 14.29-3.2 16-9.14 16-9.14s-.75-14.91-1.24-26.24c.72-7.22 1.79-12.65 2.18-18.41a48 48 0 0 0-.86-13.35Z" style="opacity:.1"/><path d="m390.24 190.55.11 1.42s-.7 2-4.74 2.76c-6.8 1.26-9.17-.85-9.17-.85l-.17-1.22s-.66-.27-1.76.58a60.25 60.25 0 0 0-4.7 5.5s1.3-.37 5.54 1.43a20.28 20.28 0 0 0 13.25.5 7.3 7.3 0 0 0 4.84-5.43c.17-1.24-2.03-5.24-3.2-4.69Z" style="fill:#7000ff"/><path d="m390.24 190.55.11 1.42s-.7 2-4.74 2.76c-6.8 1.26-9.17-.85-9.17-.85l-.17-1.22s-.66-.27-1.76.58a60.25 60.25 0 0 0-4.7 5.5s1.3-.37 5.54 1.43a20.28 20.28 0 0 0 13.25.5 7.3 7.3 0 0 0 4.84-5.43c.17-1.24-2.03-5.24-3.2-4.69Z" style="opacity:.25"/><path d="M367.09 199.54c-9.53 1-10.33 3.67-13.6 14-3.09 9.78-6.65 22.83-7.18 25.15-.74 3.23-.6 12.18 1.58 14.23s6.6 5.36 10.58-5.22c3.65-9.71 9.18-25.56 9.18-25.56s3.98-13.91-.56-22.6Z" style="fill:#ffa8a7"/><path d="m344.74 216.83-8.54-26.25a.45.45 0 0 0-.3-.31l-1.14-.37a.48.48 0 0 0-.4 0l-12.93 7.51a.7.7 0 0 0-.29.82l9.35 25.77a.46.46 0 0 0 .68.25l.36-.21.13.34a.46.46 0 0 0 .68.25l12.08-7a.75.75 0 0 0 .32-.8Z" style="fill:#37474f"/><path d="m335.54 190.32-12.93 7.51a.7.7 0 0 0-.3.82l9.35 25.73a.46.46 0 0 0 .68.25l12.08-7a.75.75 0 0 0 .32-.82l-8.54-26.25a.44.44 0 0 0-.66-.24Z" style="fill:#455a64"/><path style="fill:#fff" d="m324.16 200.14 11.87-6.74 7.12 21.91-11.15 6.3-7.84-21.47z"/><path d="M328.89 196.2a.31.31 0 0 1-.25-.15.28.28 0 0 1 .11-.38l2.85-1.67a.28.28 0 0 1 .28.49l-2.88 1.67a.37.37 0 0 1-.11.04ZM328.09 196.47a.29.29 0 0 1-.28.28.28.28 0 0 1-.27-.28.27.27 0 0 1 .27-.27.28.28 0 0 1 .28.27ZM339 219.6a.72.72 0 1 1-.71-.72.71.71 0 0 1 .71.72Z" style="fill:#37474f"/><path d="M330.55 215.08a22.74 22.74 0 0 1 .56-2.8 5.49 5.49 0 0 1 1.57-2.39 1.31 1.31 0 0 1 1.45-.32 1 1 0 0 1 .45.84 4.16 4.16 0 0 1-.1 1 9.32 9.32 0 0 0 .19 4.07c.18.64.5 1.22.69 1.85a8.63 8.63 0 0 1 .44 2.17 10.28 10.28 0 0 0 1.54 3.81c1.17 1.77 16.81 17.3 16.81 17.3l-2.38 14.26c-4.27.35-14.42-14-17.74-18.69-3.19-4.53-6-7.38-9-11.21-2.34-3-3.82-11.74-3.06-17.28a7.15 7.15 0 0 1 1.36-3.49l2.81 7.73 2.38 3.75c.33.5 1 1 1.56.51a2.08 2.08 0 0 0 .47-1.11Z" style="fill:#ffa8a7"/><path d="M367.91 199.3s-5.16-.09-8.85 2-5.47 9.72-6.63 13.4-4.92 18.32-4.92 18.32l-8.1-7.41s-5.14 1.51-6.83 8.54c0 0 2.59 4 7.22 10.56s9.45 11.76 12.94 11 5.38-4.48 8.75-13.1 7.94-23.41 7.94-23.41 2.57-12.4-1.52-19.9Z" style="fill:#7000ff"/><path d="M367.91 199.3s-5.16-.09-8.85 2-5.47 9.72-6.63 13.4-4.92 18.32-4.92 18.32l-8.1-7.41s-5.14 1.51-6.83 8.54c0 0 2.59 4 7.22 10.56s9.45 11.76 12.94 11 5.38-4.48 8.75-13.1 7.94-23.41 7.94-23.41 2.57-12.4-1.52-19.9Z" style="opacity:.25"/><path d="M347.51 233.06s-.91 2.89-1.6 6.07a31.49 31.49 0 0 1 .63-6.95Z" style="opacity:.25"/></svg>