<svg width="1200" height="630" fill="none" xmlns="http://www.w3.org/2000/svg"><path fill="#fff" d="M0 0h1200v630H0z"/><path d="M290.126 364.674h22.782c26.992 0 49.031-15.601 49.031-50.765 0-35.163-22.039-51.012-49.031-51.012h-22.782v101.777Zm24.268 36.897H251V226h63.642c52.745 0 88.157 33.678 88.157 87.909 0 54.232-35.412 87.662-88.405 87.662ZM542.113 401.571H430.679V226h111.186v36.897h-72.061v33.431h65.375v34.42h-65.375v33.678h72.309v37.145ZM645.101 349.569 686.951 226h41.602l-64.137 175.571h-40.364L559.668 226h43.088l42.345 123.569ZM714.734 378.294c0-13.868 11.391-25.259 25.259-25.259 13.867 0 25.506 11.391 25.506 25.259 0 13.62-11.639 25.506-25.506 25.506-13.868 0-25.259-11.886-25.259-25.506Z" fill="#000"/><path d="m947.934 226-56.46 88.157 56.955 87.414h-47.545l-34.668-56.955-34.421 56.955h-46.06l56.708-87.909L785.735 226h47.05l34.669 56.955L902.122 226h45.812Z" fill="#7000FF"/></svg>